<mxfile host="app.diagrams.net" modified="2022-03-29T20:50:53.177Z" agent="5.0 (Windows NT 10.0; Win64; x64) AppleWebKit/537.36 (KHTML, like Gecko) Chrome/99.0.4844.88 Safari/537.36" etag="IJSAsRQ_CatideBDNuoO" version="17.2.5" type="github">
  <diagram id="5TvHl2zGr-3kOGAzG85A" name="Page-1">
    <mxGraphModel dx="2329" dy="1922" grid="1" gridSize="10" guides="1" tooltips="1" connect="1" arrows="1" fold="1" page="1" pageScale="1" pageWidth="827" pageHeight="1169" math="0" shadow="0">
      <root>
        <mxCell id="0" />
        <mxCell id="1" parent="0" />
        <mxCell id="6a8K1tgUcUgkUUCFOzlF-20" value="" style="shape=image;verticalLabelPosition=bottom;labelBackgroundColor=default;verticalAlign=top;aspect=fixed;imageAspect=0;image=data:image/png,iVBORw0KGgoAAAANSUhEUgAAAz0AAABiCAYAAAB6WL3KAAAAAXNSR0IArs4c6QAAAARnQU1BAACxjwv8YQUAAAAJcEhZcwAACxMAAAsTAQCanBgAADETSURBVHhe7Z1NzLbrVZbfjUQ00hpjMBGqA9FAwUQdUEo0MRZoohMKDIXujvmbAmVo+BtpaMEp4WekUKIDE/4caEwDA42KGwaOLEyIAzYxkcT0cx3rWud61n099/P+7O7d0mefR3K/11rnOte6rufn/frc7/t9u6+9Ch6MMcYYY4wx5k75klqNMcYYY4wx5i7xTY8xxhhjjDHmrvFNjzHGGGOMMeau8U2PMcYYY4wx5q7xTY8xxhhjjDHmrvFNjzHGGGOMMeau8U2PMcYYY4wx5q7xTY8xxhhjjDHmrvFNjzHGGGOMMeau8U2PMcYYY4wx5q7xTY8xxhhjjDHmrvFNjzHGGGOMMeau8U2PMcYYY4wx5q7xTY8xxhhjjDHmrvFNjzHGGGOMMeau8U2PMcYYY4wx5q7xTY8xxhhjjDHmrvFNjzHGGGOMMeau8U2PMcYYY4wx5q7xTY8xxhhjjDHmrvFNjzHGGGOMMeau8U2PMcYYY4wx5q7xTY8xxhhjjDHmrvFNjzHGGGOMMeau8U2PMcYYY4wx5q7xTY8xxhhjjDHmrvFNjzHGGGOMMeau8U2PMcYYY4wx5q7xTY8xxhhjjDHmrvFNjzHGGGOMMeau8U2PMcaYU/74j//44Q/+4A8qM8YYY754ee1VULExxrzr+d3f/d38sP8Y73nPex6+9mu/trL75Ud+5EcefuVXfuXhe77nex6+93u/t9S3Bz3PPI88n+bdC+8Drq/8yq8sxRhj3n5802PMFwB94PuGb/iGUo48VTfvHN/6rd/65G83eF1+9md/trL7hOfg9ddfz5udn/iJn3j4tV/7tbf15kTP86/+6q8+fNVXfVWphu99LuD5/sAHPvDi5139n68bc17H3//933/0zzO4dR5urn/rt34r32PGGPNO4ZseY74AfOxjH3v47d/+7Yff+Z3fKeXIU3XzzrHf8PDBnw/lP/ZjP1bK4t5/Kv0DP/ADDx/60IcePvKRjzz85E/+5MOXf/mXv62/7fnN3/zNhzfffPPhm7/5m/2bnoAfcnz/939/ft/vvPQ3bdxQ8p79fN2Y6zeC7Hd248N5uHn70R/90VIu8P1G3Te/xph3Gv+bHmOMGXAzMy9xS79XfuiHfihveOAHf/AHH779278947cL3VD5hmfBb9O44eF5//SnP50/8PilX/qlvNn5jd/4jXL96Yabtv2HBk/x0z/90/kYfcNjjHmn8U2PMTf4X2/+34eP/Ov/9vA3/+WnH/7Kv/iPD6//2zdC+5OqmnczfDjlt3F8GGX9pm/6pvxJNz+t50Pcd37nd6bGxU/B0QU5H3B//ud/Pn/C/fVf//U5Y35Y1BzVmcd8sc9gn1szXnKWD3/4w1V5ePjUpz512P+NN96oyvnjp5f9JuzF/HlGPQ72JBfM5Dy3HvO9w2PlRvC7v/u7+0aQvw7Gb3l++Zd/OfM/7XDuj3/845U9D254eIzGGPNO45seY07ghucf/eJ/efhPn/mjhzf/5P+l9u/+5/9++NAv/ucv2I2PPmjy4ZEPhHxAnB9y+dBEnb8/zzo/TKv37AM2zA+vzN4/vJoj/PsFnlM+0AMf2vhrPTz3vA78lS3+Kg+/IeGvcc3nk3+7wAd+fHzg4yf7v/d7v5fPv2Cu6vyVIT4Ik4t9Bvtzpu/4ju/o1/bWWXRmYA6vPefDhwd0I/TRj340f9vAb2T46248ZtDjR+OvLdHHB/Sf+ZmfOfxWQjcu/JYIDz/NV53zaR6gM1ePmXm8x6fnnnnve997uCF9DF6v59wc6mZWN5zz+57nFU0rHj3XU2M+74fnnI2/AkrvfI/dQmfjYo+f+7mfq8qCs/Kbo3n+W4/TGGOeBf+mxxhz5KP/5n+8+op//h9Or4/8q/9arrfO66+//urrvu7rXn3qU586veLDa9YFGjl9xPEB4dUHP/jBV/GB4NWbb76Znk9+8pPtoS4Ps77lW77loOERmv3jP/7jr+JDcOb4mWde5XMxny/Qc/bxj3+8lNvg4XUSzPvGb/zGV5/5zGdKeZXPPfOk8Zrte+p1BmZMP/Da6XW8xdlZ9jlx45Eaj3ESH0Bffd/3fV/G8z0jOB+anhN59jkCH3UxH5/Y97hn4kYhH6++x994442qHNF7hRWfnsf5/arXlfcRHr7v9b7j9QW9Pvx5wOuKh/eBXn/mcwbeV/TqtT9jvpbMIf71X//1zIF+vS/g1mMgF7xP6Yub4TwDz89jZzDGmKfwb3qMOYHf6tziv//h/6noc4efZJ9d+q8dCX4qyr8j4Sfg/NSdn/z/1E/9VP5kPD40lGtBTRd/XYZZ/AR2avqJLvDTeWbyGwd+W0HMT/jZ0zzO2T/a5vnmueOn8byWPNe8ThN+izH/DcP+71r0GvGTbmYR7x72njPIeY/MvZ5zFmbMOfz2B/DSp4v/6AC/kZrw2yGxn0/v4el5DPrZk/PymwLOC8/97ccXO/wmjN9y8frw2PntB7/hINZvaFh5fvT9yspv8Vj5Pt6fK/6MoMb3PX8GUI+bkqouqH3iE5/IlfdB3IDk+4j5vE95X9HLbwmf81owh5557sljjwFde/A8oPG9wDyeH85pjDFvFd/0GHPCe7/sSyu65o/qr7u9HfCPlc8u/kd+wgdI/hrRhA8ksH8QlQ76B/dTm/DBQtf8gMt+fPhAN8+Hv37Dh1X9FS7diLwUPvzyQZC/8sRM/moP/2bmOR865flcz3J2k/Vd3/VdlT3Nc8464azc5PGe48P3/j3wboC/psh/tpn/khkf8PnAr9ef51M3ktwMTPRc6YYV0J66KYb9eebGk/fd/PNg/pXE58DZef/weu5ofx7bRDfH8/3KTRA3TzwHZzdQxhjzEnzTY8wJf/sr/kJF1/yTr/7LFX1h2T+UPsZT3r3OhyM+gPHhxzwfPpzxQZPfyHHjwofTt/oc6ifg/Jsa5vFhUR8IQTemgg+FXPqg+1bPon7eA/TNi98APhfdaD/ngzKPDR+/JeCn/6z7Tf67CV4Dbgp4/bn02vPbNtAq9Lo+5/V96c0o8OcDfx4896YZPzc+vKb7v+/R/vs59GeQVt63vBfwcfPDv+15zr8VMsaYW/imx5gTPvHhv3X62x60f/YP/0Zlnz/OfkLLT2Rh/0ntS+DDlT4o7R9wufabIfM4PJ98INUHfW485k/fn4t+us0HPi7N0A2J4K8isReXfqrOh1PgpoP3jN4nzJs3Tbfg/cT1C7/wC9nDjRTz+Yn//lejHoObLN63PBbOoL/WxJwd3oNc/BUqfDzmT37yk1V9d6DX6RZ8L77//e/PWO8vodd13pTgmTcW+03xLXjfsNfZnwdP9U6Yw00Lrzn7iq/5mq/J9dafZ3MP3kP8FT1u/PVXbvc+Y4x5Lr7pMeaEv/beP/fw7//p3334x/VbHW52/v77/mJofy9qX5ba5xP+B58PBXxg5MMMMR8m+ZDzudz0AB+S9V8YY7Y+nDLfvAyeSz7s8Ve1+C9rcdPwVn5jwQ0AP9X+4Ac/mBevBx8g52vNPu973/tyLy4+DOLRh0Z+W8JfGeKvRuksz32v8NsFvLwH+Ak783nPveRDLx+c+Wk9K2dgDu+xs99G4GFPbhjx8Zh5bO8WuDnhOeLitea55kaG54v/Y1i+z3ktuWHgdcGjG1J8xNwg7K/PYzfFt2DO/LNGe/AeeCl6D0444/4Y2I+c327xvgbe/+i68dfNztn7xxhjnsNr/NcMKjbGfJ7gww3/g86/3znjrM4/VOY/WqCfmvLBgQ+5+pDAhxQ88//ZXNqco98iPDZbP+nlQ4t5OfqgNn/y/lbQ67HP4caA15ibiqf2+lzPwhl4P3C9VV5yhrdjvy9G+J7k4vte8Bzw/c0Nob6n+fDP9ytewY0KfxboOdP7gxtu/gwAavN7mn7+LOA9tN8MU6Nv/nnAD15u3TCd/ZkieN35T6lzFh6HNG5q5mPg5og6e53V0X/4h3/44du+7dtKMcaYl+GbHmO+yHgnPxTe+pBt/nQxb3rM/TFvNm59n+tG8qk/C+R7K9/T7/SfB895DP4zyRjzduGbHmOM+SKD3wTyIdH/CV9jjDHmefimxxhjjDHGGHPX+D9kYIwxxhhjjLlrfNNjjDHGGGOMuWt802OMMcYYY4y5a3zTY4wxxhhjjLlrfNNjjDHGGGOMuWt802OMMcYYY4y5a3zTY4wxxhhjjLlrfNNjjDHGGGOMuWt802OMMcYYY4y5a3zTY4wxxhhjjLlrfNNjjDHGGGOMuWt802OMMcYYY4y5a3zTY4wxxhhjjLlrfNNjjDHGGGOMuWt802OMMcYYY4y5a3zTY4wxxhhjjLlrfNNjjDHGGGOMuWt802OMMcYYY4y5a3zTY4wxxhhjjLlrfNNjjDHGGGOMuWt802OMMcYYY4y5a3zTY4wxxhhjjLlrfNNjjDHGGGOMuWt802OMMcYYY4y5a3zTY4wxxhhjjLlrfNNjjDHGGGOMuWt802OMMcYYY4y5a3zTY4wxxhhjjLlrfNNjjDHGGGOMuWt802OMMcYYY4y5a3zTY4wxxhhjjLlrfNNjjDHGGGOMuWtei+tDtT689tprr1hfvXqVOSFfQicnfi1q6cOjFU+BuILwAXnFOaOayDW7vQFl8inMfuWzV2drb6x5MCT0IOOL3GfR7O7dYxiNCrVnrwE9auozBfMMMGtXewVd12bEJ6i8z5/krG2O/IB2OE9xc2aM4rzdUzlhx7sHZo00rkgv5biu3jvBEtac9GR20Xd239yX/WJZm5CkYcwqT2XJYVZAe+4xfdXX3jRdDPt5sjeWPMPmnb373tkDZVf9sOKJ+hhzhEIs6a+6eqktYT2WDPmy9+DDoxVPkftnUHuTV5wzqolcs9sbUCafwuxXPnt1tvbGmgdDQg8yvsiH54q8e/cYRqNC7dlrQI+a+kzBPAPM2tVeQde1GfEJKu/zJzlrmyM/oB3OU9ycGaM4b/dUTtjx7oFZI40r0ks5rqv3TrCENSc9mV30nd0392W/WNYmJGkYs8pTWXKYFdCee0xf9bU3TRfDfp7sjSXPsHln77539kDZVT+seKI+xhyhEEv6q65eaktYjyVDvuw9+PBoxVPk/hnU3uQV54xqItfs9gaUyacw+5XPXp2tvbHmwZDQg4wv8uG5Iu/ePYbRqFB79hrQo6Y+UzDPALN2tVfQdW1GfILK+/xJztrmyA9oh/MUN2fGKM7bPZUTdrx7YNZI44r0Uo7r6r0TLGHNSU9mF31n98192S+WtQlJGsas8lSWHGYFtOce01d97U3TxbCfJ3tjyTNs3tm77509UHbVDyueqI8xRyjEkv6qq5faEtZjyZAvew8+PFrxFLl/BrU3ecU5o5rINbu9AWXyKcx+5bNXZ2tvrHkwJPQgY8mI/yDlhUxJmTS0hwdj7kFPVIwlc3zEY72aSQ9x1UD1U8KOV2v6mIFW7PMP+44+nTNjtKqliUImY9ag++Uvb7LnheS5ZqGsh3lLvh45avNcis809cChD5mZK7wcuezzMcy509xza22YEZZDH9zQGZmHqyTPta+U4iLo/uHZa4fzB6RZW9ZDXfTcIsfKxowMqrdqeEh7E3mG3jOKrBGMeh4KKa6sbz1nHB4P8d5TszNMITiZ3TWoes4jrRWi1L1TT1SMJXN8xGO9mkkPcdVA9VPCjldr+piBVuzzD/uOvv15Uy1NFDIZswbdL395kz0vJM81C2U9zFvy9chRm+dSfKapBw59yMxc4eXIZZ+PYc6d5p5ba8OMsBz64IbOyDxcJXmufaUUF0H3D89eO5w/IM3asvr7f9A1qHrOI60VotS9U09UjCVzfMRjvZpJD3HVQPVTwo5Xa/qYgVbs8w/7jr79eVMtTRQyGbMG3S9/eZM9LyTPNQtlPcxb8vXIUZvnUnymqQcOfcjMXOHlyGWfj2HOneaeW2vDjLAc+uCGzsg8XCV5rn2lFBdB9w/PXjucPyDN2rL6+3/QNah6ziOtFaLUvVNPVIwlc3zEY72aSQ9x1UD1U8KOV2v6mIFW7PN7X3wfqOY8VBn60LPGSplaGouq9wZnaIZiqFwH6brYNeWz/6m+iCN8xV/jO5puMGfDmBXh5Q1aQi5skEKRxqHt+YQZKsk3NbFrW1+uI7+5n9jnvYTa73BWaXEhE0+ifDnS7Nk1wrhuHSxrsy+40rZ65oCmGCrnYJmmWGiG1slq6W/Ox5Dn1uw8e8Xah8eiMzVILHHhx6InNLW4kpD7vHsMe21fq7Ye4ImHMrU0FlU/nGNHMxRD5dk362LXlM/+p/oijtDf/zv7vJdQ+x3OKi0uZOJJlC9Hmj27RhjXrYNlbfYFV9pWzxzQFEPlHCzTFAvN0DpZLf7+F1U/nGNHMxRD5dk362LXlM/+p/oijtDf/zv7vJdQ+x3OKi0uZOJJlC9Hmj27RhjXrYNlbfYFV9pWzxzQFEPlHCzTFAvN0DpZLf7+F1U/nGNHMxRD5dk362LXlM/+p/oijvD4/U/338lgDKyGNfn2A+l69OTBq48ZWUPQvN2zcbXX7Kue/DLyBoml/Nok9xurqBF57FxDkw/kvaorr1V7ZQEPtfJCyZfZ2bTiy5Biz4OWFMSi/VhzpkrZcdk7PSzlz33TWDPI41rBUROalb7pYd4+I0idNS7Vr6g56uvZQE/Vd1/rxWqo3k1XEqWs9T6pFhSpaUWKq+dNvbTsL50wmTWoXOcjV62ftA3tq7l86fOiE89WpMjlqdZVH0nPZVU9mLMpEHY8NHzQjRtd3/eoPAXN2z0bV3vNvurJLyNvkFjKr01yv7GKGqGn/PBeBHmv6spr1V5ZwEOtvFDyZXY2rfgypNjzoCUFsWg/1pypUnZc9k4PS/lz3zTWDPK4VnDUhGalb3qYt88IUmeNS/Urao76ejbQU/Xd13qxGqp305VEKWu9T6oFRWpakeLqeVMvLftLJ0xmDSrX+chV6ydtQ/tqLl/6vOjEsxUpcnmqddVH0nNZVQ/mbAqEHQ8NH3TjRtf3PSpPQfN2z8bVXrOvevLLyBsklvJrk9xvrKJG6Ck/vBdB3qu68lq1VxbwUCsvlHyZnU0rvgwp9jxoSUEs2o81Z6qUHZe908NS/tw3jTWDPK4VHDWhWembHubtM4LUWeNS/Yqao76eDfRUffe1XqyG6t10JVHKWu+TakGRmlakuHre1EvL/tIJk1mDynU+ctX6SdvQvprLlz4vOvFsRYpcnmpd9ZH0XFbVgzmbAmHHQ8MH3bjR9X2PylPQvN2zcbXX7Kue/DLyBoml/Nok9xuryIO8f8WXYjUSnlH7rjpeiPwwXDNkrnx6KH2WFd+O/EEX8SEQLqXRga5qNaeyxZlWaMZND/vXXu2RVnn2B2reHzPWjOPKHkCbsdg1cnmnbxClrM1i71Xynu8wIwvMyWTsOXJ5WBJ5ROXVsvTdc8YtTw0i7PNv3nxsGYQOqk3f1iPv5ZCB+iezB8YevS+EnrNYIyVchUC1Sq+gzFKWfe7VGUAzZ13x3jP0eY7eZ/dvHNrwQuSn55S58umh5O//6AG0GYtdI5d3+gZRytos9l4l7/kOM7LAnEzGniOXhyWRR1ReLUvfPWfc8tQgwj7/5s3HlkHooNr0bT3yXg4ZqH8ye2Ds0ftC6DmLNVLCVQhUq/QKyixl2edenQE0c9YV7z1Dn+fofXb/xqENL0R+ek6ZK58eSv7+jx5Am7HYNXJ5p28QpazNYu9V8p7vMCMLzMlk7DlyeVgSeUTl1bL03XPGLU8NIuzzb958bBmEDqpN39Yj7+WQgfonswfGHr0vhJ6zWCMlXIVAtUqvoMxSln3u1RlAM2dd8d4z9HmO3mf3bxza8ELkp+eUufLpofSF+f6P66trPRxszV4bCTZk+O6TZ8RZ06q+LPSIS4BeZdU1S3MepbwzjuXyDUlcs1JH2+h9oq4eUjhtuIGa5O/9NC9iNNbeT5RvHXZbo9yz0ViX3M9x9gvlQ08fwc4at/YnJZQGoUfajyPr5T3b59msUWvfvT/ySPM1m+TeK0zC1n9A5BrXzUOc7ZcDVm8zfQPNzuJJW888gW2onRaLtenl/DPXnjlD+9TKbGQsyZUQ4GWJi1KuCEXmeFQrf+4jNHf3yTNizZenz1MhUgfoVVZdszTnUco741j8/U8+9PQR7Kxxa39SQmkQeqT9OLJe3rN9ns0atfbd+yOPNF+zSe69wiRs/v4PkLEkV0KAlyUuSrkiFJnjUa38uY/Q3N0nz4g1X54+T4VIHaBXWXXN0pxHKe+MY/H3P/nQ00ews8at/UkJpUHokfbjyHp5z/Z5NmvU2nfvjzzSfM0mufcKk7D5+z9AxpJcCQFelrgo5YpQZI5HtfLnPkJzd588I9Z8efo8FSJ1gF5l1TVLcx6lvDOO5fb3P1/+uoosqdYAWGk2JJH3BsHh0FvtKhehh5z6YW6AHuGS1Vv+9gp8w3Plf6TeMey5GPr+vHAWtKuZrAMd5Gx+zqirm8rb+531blpaY6Utc748gfbUypCMa8Z68ooaPM94tVfZ0bO16tIb9Fk/I+q535wRcWrqZSUvHfrMF+lCldQ7+x5l9r0E+mqvbIx4HfiyN9cafuFMS6qN9szXiJv0+6foufTP3m3e3tf7Vrr3H57zrXaVi9BDTv0wN0CP8HAm+dsr8A3Plf+Resew52Lo+/PCWdCuZrIOdJCz+Tmjrm4qb+931rtpaY2Vtsz58gTaUytDMq4Z68kravA849VeZUfP1qpLb9Bn/Yyo535zRsSpqZeVvHToM1+kC1VS7+x7lNn3EuirvbIx4nXgy95ca/iFMy2pNtozXyNu0u+foufSP3u3eXtf71vp3n94zrfaVS5CDzn1w9wAPcLDmeRvr8A3PFf+R+odw56Loe/PC2dBu5rJOtBBzubnjLq6qby931nvpqU1Vtoy58sTaE+tDMm4Zqwnr6jB84xXe5UdPVurLr1Bn/Uzop77zRkRp6ZeVvLSoc98kS5USb2z71Fm30ugr/bKxojXgS97c63hF860pNpoz3yNuEm/f4qeS//s3ebtfb1vpXv/4Tnfale5CD3k1A9zA/QID2eSv70C3/Bc+W/W4/qrGQWz8BjyDT87fEnEh+Zb82Z/kG03+pH6wZ7Nm7Nq7WcUZj2gdPrkFRdT9e3U+Ksz3fKfMXsCzaO554rw6BWc8+WVju3wuEE9rLCVD8hb8elzGPDlcMbZB9XKiMxnDeSfPgJKy7EeVwZrBsb8NWh5szfy/MdpleNTreMd9U/O/KX1c3DSd3mAgWqPzBKMbEFztYqZTw9pxDL2a1/5zTlTP5nT7P23OJnLWfz9f+I/Y/YEmkdzzxXhWRse58vb7wH5slqohxW28gF5Kz59DgO+HM44+6BaGZH5rIH800dAaTnW48pgzcDo7/81Z74u/dpXfnPO1E/mNHv/LU7mchZ//5/4z5g9gebR3HNFeNaGx/ny9ntAvqwW6mGFrXxA3opPn8OAL4czzj6oVkZkPmsg//QRUFqO9bgyWDMw+vt/zZmvS7/2ld+cM/WTOc3ef4uTuZzli+b7n+grrn29mZ5Y6ay7V/X0ZrA2YUjm05PChbKlTMyqHPIMrPhSiXgairXxmH8yLCVSZo0R6OTaq3uh/IcVOa70Dy1R79AUZCn0zvNL7X1py7L2J1EtZw6/1kvTxdc6QZWzjpbJtscK05P1sqGvgGaSSz+0nNlCvlzIy3PYG22M2vtnDvi7dx5hzOl6aYc8IM8njRUhkAekiayN+VmPnBH7GWfOfsRzr37BypALackpDNYLGGt5ZtznCdCyRs46vBkSjBp5+yvXGUJK0Mlnj3TW3at6ejNYM/PxwfSkcKFsKROzKod5VomHwxZr4zH/ZFhKpMwaI9DJtVf3QvkPK3Jc6R9aot6hKchS6J3nl9r70pZl7U+iWs4cfq2XpouvdYIqZx0tk22PFaYn62VDXwHNJJd+aDmzhXy5kJfnsDfaGLX3zxzwd+88wpjT9dIOeUCeTxorQiAPSBNZG/OzHjkj9jPOnP2I5179gpUhF9KSUxisFzDW8sy4zxOgZY2cdXgzJBg18vZXrjOElKCTzx7prLtX9fRmsGbm44PpSeFC2VImZlUO86wSD4ct1sZj/smwlEiZNUagk2uv7oXyH1bkuNI/tES9Q1OQpdA7zy+196Uty9qfRLWcOfxaL00XX+sEVc46WibbHitMT9bLhr4Cmkku/dByZgv5ciEvz2FvtDFq75854O/eeYQxp+ulHfKAPJ80VoRAHpAmsjbmZz1yRuxnnDn7Ec+9+gUrQy6kJacwWC9grOWZcZ8nQMsaOevwZkgwauTtr1xnCClBJ5890ll3r+rpzWDNzMcH05PChbKlTMyqHOZZJR4OW6yNx/yTYSmREvwlFSQSxjUHoB8G00hfrVkYUuYkpc+DZhEPUq3Uek/5x6pzya9SasEhlydCHSZrZUpPQNB7grwrW1Rf7yktkDf1TTuKQempka4l1/QUU6MHNGOeQXPm48HTSem9L2vUpYsacXxtg86rJ/PR33tPjS/BYU+EoOyH1+Axf6P5taZHca3qlSdnVJwrKToNVU6GX/2VZnxJKiUISWfI9WJZIJcn4yA9+AlqTZ246pqJfuiXly/F9OaXHHDxRtiPS6CRH/bGo7VMPQMPAZSeewXy7o8HTVLmJKX3HqT5pfaqlVrvKf9YdS75VUotOOTyRKjDZK1M6QkIek+Qd2WL6us9pQXypr5pRzEoPTXSteSanmJq9IBmzDNoznw8eDopvfdljbp0USOOr23QefVkPvp776nxJTjsiRCU/fAaPOZvNL/W9CiuVb3y5IyKcyVFp6HKyfCrv9KML0mlBCHpDLleLAvk8mQcpAc/Qa2pE1ddM9EP/fLypZje/JIDLt4I+3EJNPLD3ni0lqln4CGA0nOvQN798aBJypyk9N6DNL/UXrVS6z3lH6vOJb9KqQWHXJ4IdZislSk9AUHvCfKubFF9vae0QN7UN+0oBqWnRrqWXNNTTI0e0Ix5Bs2ZjwdPJ6X3vqxRly5qxPG1DTqvnsxHf+89Nb4Ehz0RgrIfXoPH/I3m15oexbWqV56cUXGupOg0VDkZfvVXmvElqZQgJJ0h14tlgVyejIP04CeoNXXiqmsm+qFfXr4U05tfcsDFG2E/LoFGftgbj9Yy9Qw8BFB67hXIuz8eNEmZk5Tee5Dml9qrVmq9p/xj1bnkVym14JDLE6EOk7Uy5fqeVBbk6SAomS/rURxjaF/1pah4ajurrWuHmXFF+dB7tk9+kS6ow65Vbyz94jWjnvneKzQjQsScVXXFrOT4ukBKfAa26mnf0JI9D255U0fLpPTyXPXIJ4aGvb0lPBXnfHKBXvXeW/VRy7z09o2eKPVzy0q5/VVIP3VEPFVvpkY86L5izrya81ZY4y6PISQSZvd5IfJcJyc1gu5DL0/q8s1arbFcHmfpfaiLfNDRer9gxnD6XCme2s5q69phZlxRPvSe7ZNfpAvqsGvVG8vhtU5GPfO9V2hGhIg5q+qKWcnxdYGU+Axs1dO+oSV7Htzypo6WSenlueqRTwwNe3tLeCrO+eQCveq9t+qjlnnp7Rs9UernlpVy+6uQfuqIeKreTI140H3FnHk1562wxl0eQ0gkzO7zQuS5Tk5qBN2HXp7U5Zu1WmO5PM7S+1AX+aCj9X7BjOH0uVI8tZ3V1rXDzLiifOg92ye/SBfUYdeqN5bDa52MeuZ7r9CMCBFzVtUVs5Lj6wIp8RnYqqd9Q0v2PLjlTR0tk9LLc9Ujnxga9vaW8FSc88kFetV7b9VHLfPS2zd6otTPLSvl9lch/dQR8VS9mRrxoPuKOfNqzlthjbs8hpBImN3nhchznZzUCLoPvTypyzdrtcZyeZyl96Eu8kFH6/2CGcPpc6V4ajurrWuHmXFF+dB7tk9+kS6ow65VbywxKrQ/v0oNGptgzDjF6iAmjas9ta7K0uXNE4y6ZuWCVvEqrv2SGhHLcXat09d19UgPZp7x8PMl80y285HX2nsFqufZi/l4k70eF1IeZsRZHEhgv/YRB4czUKB/LdlW0unzx0q+Pxa4OsSkm9eZ4PBY58wpn+Q5Az9UIXXNqDXrFbdnaPgyL++cTcvaYM1FyL4UqiGQB7J3hb3PGlT7SQ8yrrrmZn+N1iz55WmtfEtcjyP3qpwluUhL2+aDzpemWmPpPuKDN5CBJNfRM8k6PTXjMJSYNK721LoqS5970TsfQ+YsaBWv4uXM6IyI5Ti71unrunqkBzPPePj5knkm2/nIa+29AtXz7MV8vMlejwspDzPiLA4ksF/7iIPDGSjQv5ZsK+n0+WMl3x8LXB1i0s3rTHB4rHPmlE/ynIEfqpC6ZtSa9YrbMzR8mZd3zqZlbbDmImRfCtUQyAPZu8LeZw2q/aQHGVddc7O/RmuW/PK0Vr4lrseRe1XOklykpW3zQedLU62xdB/xwRvIQJLr6JlknZ6acRhKTBpXe2pdlaXPveidjyFzFrSKV/FyZnRGxHKcXev0dV090oOZZzz8fMk8k+185LX2XoHqefZiPt5kr8eFlIcZcRYHEtivfcTB4QwU6F9LtpV0+vyxku+PBa4OMenmdSY4PNY5c8onec7AD1VIXTNqzXrF7RkavszLO2fTsjZYcxGyL4VqCOSB7F1h77MG1X7Sg4yrrrnZX6M1S355WivfEtfjyL0qZ0ku0tK2+aDzpanWWLqP+OANZCDJdfRMsk5PzTgMJSaNqz21rsrS5170zseQOQtaxat4OTM6I2I5zq51+rquHunBzDNG58ufVQEQI59rmqt8lRfzMGsywaWfleC0H3uaLmS9dMKeSVwa0irWg0GvFT3rK1zn2jXFCmJBF2gruJzjClpZas7Bp7ER6vxZlBZXb1i9qS3rYkkHui981XKZA+gsJ72HfZbS5OMfPdTz3PJv9aTK8lJvHzU8qmPXWjWdUbVk9lev6BnlyTm1Zo9q+JQTj3pTmmZecdZT3OzZiRk5IOa0H01zI9Y5d3KPqusxpVbNlNAa6StL1HfYv9AM2rqGnzFj3euHvGAWoK8Xg+DSz0pw2o89TReyXjphzyQuDWkVYx5l9FrRs77Cda5dU6wgFnSBtoLLOa6glaXmHHwaG6HOn0VpcfWG1Zvasi6WdKD7wlctlzmAznLSe9hnKU0+/tFDPc8t/1ZPqiwv9fZRw6M6dq1V0xlVS2Z/9YqeUZ6cU2v2qIZPOfGoN6Vp5hVnPcXNnp2YkQNiTvvRNDdinXMn96i6HlNq1UwJrZG+skR9h/0LzaCta/gZM9a9fsgLZgH6ejEILv2sBKf92NN0IeulE/ZM4tKQVjHmUUavFT3rK1zn2jXFCmJBF2gruJzjClpZas7Bp7ER6vxZlBZXb1i9qS3rYkkHui981XKZA+gsJ72HfZbS5OMfPdTz3PJv9aTK8lJvHzU8qmPXWjWdUbVk9lev6BnlyTm1Zo9q+JQTj3pTmmZecdZT3OzZiRk5IOa0H01zI9Y5d3KPqusxpVbNlNAa6StL1HfYv9AM2rqGnzFj3euHvGAWoK8Xg+DSz0pw2o89TReyXjphzyQuDWkVYx5l9FrRs77CdS5pfPnSKPTAWrMZaCKu5mfD4FhyI/LaPTXNqxVrlQ+Hy55aqTVoLHGlVz5RfmaoTq6+nluongfJoATSZe056uNL2/LLegypk8PWT5x6kJpq6LFW6fi4Ulnc2idj9VPDg179PS8u6D7NCnS2nINGjBCkjxXzknomZJ1S9aYWl+pN1dsvRt8kfQTUpicLK+ZL7rVpos9x0n/wzfpAAnOAXO2ns4v5+Lu3fLO2c1XrzWgOap85W3OXspCea9VIMy5/zist46CHrNZslj/z5xI9uTchOZtU3OetFWuV+/GjZU+t1Bo0lrjSK58oPzNUJ1dfzy1Uz4NkUALpsl7e/2XhS9vyy+V5XJsFWz9x6kFqqqHHWqXj40plcWufjNVPDQ969fe8uKD7NCvQ2XIOGjFCkD5WzEvqmZB1StWbWlyqN1Vvvxh9k/QRUJueLKyYL7nXpok+x0n/wTfrAwnMAXK1n84u5uPv3vLN2s5VrTejOah95mzNXcpCeq5VI824/DmvtIyDHrJas1n+zJ9L9OTehORsUnGft1asVe7Hj5Y9tVJr0FjiSq98ovzMUJ1cfT23UD0PkkEJpMt6ef+XhS9tyy+X53FtFmz9xKkHqamGHmuVjo8rlcWtfTJWPzU86NXf8+KC7tOsQGfLOWjECEH6WDEvqWdC1ilVb2pxqd5Uvf1i9E3SR0BterKwYr7kXpsm+hwn/QffrA8kMAfI1X46u5iPv3vLN2s7V7XejOag9pmzNXcpC+m5Vo004/LnvNIyDnrIas1m+TN/LtGTexOSs0nFfd5asVa5Hz9a9tRKrUFjiSu98onyM0N1cvU9/Jn8GoTAfxaQ5rwwKkYvjzTSNWn1VJi0rjXqnx09s3648JQvz0IgQu99iDMYfXnghbRcS2b/sxgI9Ngzr17tI2Pq9MX62ervmi5mcEGts9ZrDirw1VzJfQbiWvv1IaGn1p5XGr593efNOXos6ZPGGsyeSe7FFei1zbPMNegVDUjkD2au84s5Y8b48zVMZe2fs+mvGbNHpFbezgkCPfb9SqInnw96UzjxBDl77D9XPZ+akXr5d6+09tU641xHb6J89CeRs+RjpFaP//Aah951eRQPjzRSzVcuWtcadb1HelathwtP+fIsBCL03oc4g9GnB0XOVR7J83t+xkCgx5559WofGVOnL1Z//8deXIFe2zzLXINe0YBE/mDmOr+YM2aMP1/DVNb+OZv+mjF7RGrl7Zwg0GPfryR68vmgN4UTT5Czx/5z1fOpGamXf/dKa1+tM8519CbKR38SOUs+Rmr1+A+vcehdl0fx8Egj1XzlonWtUdd7pGfVerjwlC/PQiBC732IMxh9elDkXOWRPL/nZwwEeuyZV6/2kTF1+mL193/sxRXotc2zzDXoFQ1I5A9mrvOLOWPG+PM1TGXtn7PprxmzR6RW3s4JAj32/UqiJ58PelM48QQ5e+w/Vz2fmpF6+XevtPbVOuNcR2+ifPQnkbPkY6RWj//wGofedXkUD480Us1XLlrXGnW9R3pWrYcLT/nyLAQi9N6HOIPRpwdFzlUeyfN7/rNMOZx4J8zpZo00u2he6eXuv/KuXVrWxqWlJ8hZ0jBiKv++3xpccwq17HMP1AyYvXO/3GOrHebJO2LCzhWPnrQRzDlnqP8p31PMOYRz3lnOkuaitPTtfvFSfWffQ0QeaeY5pOr7+Q75c2DmHBHXrf4ev/U0bRgpwQ1vLnGNlmvKd5iBtvfsPnn2tWqnz9PmzbMRUzrzTzSTNdL00rL3V37Yp7S0lJaeIGdJw4ip/Pt+a3DNKdSyzz1QM2D2zv1yj612mCfviAk7Vzx60kYw55yh/qd8TzHnEM55ZzlLmovS0rf7xUv1nX0PEXmkmeeQqu/nO+TPgZlzRFy3+nv81tO0YaQEN7y5xDVarinfYQba3rP75NnXqp0+T5s3z0ZM6cw/0UzWSNNLy95f+WGf0tJSWnqCnCUNI6by7/utwTWnUMs+90DNgNk798s9ttphnrwjJuxc8ehJG8Gcc4b6n/I9xZxDOOed5SxpLkpL3+4XL9V39j1E5JFmnkOqvp/vkD8HZs4Rcd3q7/FbT9OGkRLc8OYS12i5pnyHGWh7z+6TZ1+rdvo8bd48GzGlM/9EM1kjTS8te3/lh31KS0tp6QlyljSMmMq/77cG15xCLfvcAzUDZu+hoFjXZOZ7bfYllU8y33TS2ZexWNKLqM5L74yFtFr7mvmIQfljHPy1rsagUnHIT+rilr5z2E/huHYO2iP7A+VbM3b9zHvwqV7rwasaEEOlE2mqT89Bq1jciudeeVW893e+6zc4857OI6wViE97Nn/GpXU+GX5QfPDigUofmzfzvTb7ksonmW866ezLWCzpRVTnpXfGQlqtfc18xKD8MQ7+WldjUKk45Cd1cUvfOeyncFw7B+2R/YHyrRm7fuY9+FSv9eBVDYih0ok01afnoFUsbsVzr7wq3vs73/UbnHlP5xHWCsSnPZs/49I6nww/KD548UClj82b+V6bfUnlk8w3nXT2ZSyW9CKq89I7YyGt1r5mPmJQ/hgHf62rMahUHPKTuril7xz2UziunYP2yP5A+daMXT/zHnyq13rwqgbEUOlEmurTc9AqFrfiuVdeFe/9ne/6Dc68p/MIawXi057Nn3FpnU+GHxQfvHig0sfmzXyvzb6k8knmm046+zIWS3oR1XnpnbFI7aywgwcqTZRnoTjTicVz8p1dT2NwIz74UylK6nqKL+Oq52wesSjpql7hFVW7mlXpgSrN2iHealfcqj/VN5F39swYzmqskOINyjI9V3MmU6v4ynODR33MEsqz8AhpDio9UKVD7SyHSm9StvSdrUD8GM/1QKWJ8iwUZzqxeE6+s+tpDG7EB38qRUldT/FlXPWczSMWJV3VK7yialezKj1QpVk7xFvtilv1p/om8s6eGcNZjRVSvEFZpudqzmRqFV95bvCoj1lCeRYeIc1BpQeqdKid5VDpTcqWvrMViB/juR6oNFGeheJMJxbPyXd2PY3BjfjgT6UoqespvoyrnrN5xKKkq3qFV1TtalalB6o0a4d4q11xq/5U30Te2TNjOKuxQoo3KMv0XM2ZTK3iK88NHvUxSyjPwiOkOaj0QJUOtbMcKr1J2dJ3tgLxYzzXA5UmyrNQnOnE4jn5zq6nMbgRH/ypFCWF9vDw/wGf5CQgHBSsawAAAABJRU5ErkJggg==;" parent="1" vertex="1">
          <mxGeometry x="-720" y="-625" width="680" height="80.39" as="geometry" />
        </mxCell>
        <mxCell id="NkDDDWs9M4khyT48eCoO-3" value="Navbar" style="text;html=1;strokeColor=none;fillColor=none;align=center;verticalAlign=middle;whiteSpace=wrap;rounded=0;fontStyle=0;fontSize=61;" vertex="1" parent="1">
          <mxGeometry x="-360" y="-850" width="740" height="160" as="geometry" />
        </mxCell>
        <mxCell id="NkDDDWs9M4khyT48eCoO-6" value="" style="shape=image;verticalLabelPosition=bottom;labelBackgroundColor=default;verticalAlign=top;aspect=fixed;imageAspect=0;image=data:image/png,iVBORw0KGgoAAAANSUhEUgAABWMAAAILCAYAAACNVI7JAAAACXBIWXMAAAsTAAALEwEAmpwYAAAAAXNSR0IArs4c6QAAAARnQU1BAACxjwv8YQUAAUqeSURBVHgB7N0JgBxlnTf+71PV59yTZGZykklIABOOhIArHjBRDsGDoCYCuhJ29133v+4KvIqsu+tmsroqhwv4ruu66hJ2VTRRQVQkgpsBRDwIBEiCZHJMIOdMJnNPX1X1/J+nenqOZKaPme7p7pnvBzoz011dXV1dVV31rad+D0BEREREREREREREREREREREREREREREREREREREREREREREREREREREREREREREREREREREREREREREREREREREREREREREREREREREREREREREREREREREREREREREREREREREREREREREREREREREREREREREREREREREREREREREREREREREREREREREREREREREREREREREREREREREREREREREREREREREREREREREREREBUGAiCbfmsYqBPwrIDwrIK0d+P5nm0Cn0/OppPQWSLlCba6qANkJiZ8g7H0Ej9zWiUKjp9frrYfH1wDbacHmOx4BjU3PL1+wAaZRr9aDR9R60AIiIpoarv9SPWA2uL9//zObQEREREQuD4got0YEr+ICCNmg7q0fGsC8GXS6G+9SAayxTQWxVUPnjYT+fw2C1gZ1kLc67+Hd2n9Z4Qav8c9VTS9WDD5mYKP6l2FsQsr1ADvUrQXjoccdLF2vfrt2YJwqqJctbnDPAICIKPcSwatQ23f9XSjEivj3t6tJ3TaBiIiIiFwMY4myLVlAJyQoTVI8rP6pGuPRehXqPaB+rsZkGXmgqX/WDx5o8nMdKVXwms35pT8X4VHLyrD1LP4iK9zg/oa7N6jPaWPKUNb9fBW2ziUiSm7oqobLcHrwGif5vUhEREQ0FoaxRNkUD4ZedH+fCgFd4rJ70zsQdMl69cZa4MhOGE5nzsor3HDPmvhrJdWg5nfDpJV4EJ5tGB4o8kBzbIFSHYRuc3/P5Xqgl89TP5fTqXVSPJA0lI2PRwe6VQXR4roY6W2fY6yAIdS8FPFQRqrtBOwW6BbPnKdEU0cgeB+EcdPg3/w+JCIiIspIcYaxN35lgwqD6pFz9kG1s9nJmp40rQy/5Pu01i4D5QJM/dNQoend6qd8BNK+f8Q6cv3dDWrYm0Ydf9i8LWW9V2mrMM9AamY9aPoqKbtXLZ/1aQ49MpSF3eQGhDrQF557kWhZGw93F4FSi887XRpCnTxR89c85XGhtxMDuxk33N2igvn74Ng/GRHM3nDXfZBG5ekjd55iiQkiIiIiIpqKijOMdRx1AIgG5NxAGCTUbLrxHh0ePQIn9iCDWZqS4q16b1EByvrBADat1i5ijXreGrWObFLrx8Z40KICMoH1ow5eYjfCrelJNAE33qM7dluPzMVDWf31555MOIVwHgQld/1d69U81CdbGjJ4Vj2kuE9tK25Vzx/WQlmokz6jBOrxTc8mEBERERERTTEsU5CueDilDkA960eGTpQV+uB+uLD3kZStJwuR29Lu7tUqiFyhQobLBi61X4FCp4MtoNFdzsd7uaEOxoSnwb3Me6J0i/S0hpOTt4xI3Ox+rlLXx0O8gxIa3fdvbzplPdDzqh7ZEq/v2njKvU0q7GsZOBHQgPFpwffuaASNLn7CRtdqbsD4xcPwG+9eiO/dvhFEhSpRJ3y4Yt03yTqnUc2bR+KNI8QFMEapGUtEREREY2IYOx7DQycGshMXb2X1wIj7AuEWxHvfLT46iIpP+33u3zfcXbjF1OIlCR5Wy3QDsqN+4DLv+zEREjsSFRGSD+fswGQZ+lzjbrj7ALIZME41w9eDeIh3ANkSCHQiYrUgHoi3QFojt8VuiOJpVMvQTRmMNT4eGt0N99yk5ud9WQtcpArTb7izC0SFyvBuOK31fYmtv98Yxsa3t/r2iPv39XduGlFDloiIiIiSKs4wNtx3HQL+YQeEbg/nD6R4ljrQTnH5qXQ7HrkgzVZV8dCJgezECXELaPLFA7JUnR9pTeqA9MHBGpsJOsjVHTVBt4xxD8IS49E/78VE6CDvhntUoCvHXjaEsxEPcd2bljbd1on1965G2HoYsG4+bRsc/3u9WsYb0wplhVDhinMdl6cxXP+VDW5LuGSnlfQ8dKQ+CdOkvqN34JHGocDqxrtWwHFbSTeM/CyMiW0niHIpeycpiYiIiIhGKM4wNn6QN3Sgd/3dLWk8qwXfT/Py0/RbVSUu2WRrqvFyO3ri5d6TLr1e6Heo8OW2gRaOp4uvh00Dt0Z8+O5bYSB74cpDn75VLR+dMMQtI1rj6dBHd8D0vTvuA01fm9xLhZNve9MLZZvgxG7mSbUxuLV59SXJSUhsRKj3vhEB7HDf+4xuwa5vm9zPQnhUiM7tPhWweOmkehARERER5QDLFIxm8ABe9/6MDSmGbnB7lGanXuNjiJvGXaOUxi9lL/TiERWu3DxmuDKaH9x+H268S9ftfBHZ8v3bG6GD3nhor5YX2Ynv3T55pQloahgeygrvCkh7hVuXWJfDGOtkA8VPTEqZ/KSHVIF4JvMw/lmsxA33qEBWrgFRQRK85J6IiIiIcoZhbDI6CLr+7stSly0w9U57Eygz8QP99aDJpVv8JJ/vLRkHsQm6BdyH774tqy1kNQZmlA2n1jmk5OKt55O5bdzrpt+8GRErux27EWWDW8JnQp3UERERERElZYBSSd3bsxBs3TMup/RSTLnnHmSK5K29dSdG4wliE3QLWcEOToiKmlsnNklQKsUmPHT7+EuFxMtMTKyjP6Jc0B13ERERERHlEMPYVHSrn9TBUhVuvGchKH3phIKUA77hHW2dTgcs2aid6Tg/AREVJ3f77KxPPlAs9YnKVKTFFspUWHjFDhERERFNApYpSId0w9iq5MPYK9W/BzERbu/0/pGvk69OZfS0JGsd6XZyNiDTadTjNrwpapbm0GjzORzpnFBr0GKQTsAi7GyFqC3ItVTL6HgMX64LcZkYPn0J+dxGDF+PCq0DrEJdz0/9DAty26NP2jj1Yz4ssAMPZeHz1svMDXcj54rpu1U7dRnJ57pViMtrrqZpqGPL/Ci0bVYhLYfJFMt0EhEREQ3DMDZbpKjK9CnujnewdL168mXq6Hb02nnxA9UdEGIHnNiDOesobO2/rIDH16DexwUQUk/LCrWDu3rE67lhnucWNS3rR/Ru706jfEQF0reNuhPsdr4kdUtY/ZyFpz1/NMJcg+vvqh/1MUd2YvMd6beo0h2sGZ7LVKjeoF57xaivHfToXsM71WPxXr+l9ZOp1ymbWxaiPukgD2UwX5MSLcgmvew5xgqYhlpX1LKpP0fH0dN6MyZCr4Mlpbe4ywZOqRGol4kbdCd+okmtexsn/QAvsX2Ir5MNGOuzG7GNcJ7C9z+zCbmi1yXhuVZP3WnTk5gOKe8H7KZJn1+Fup6nmq6R0/QTt7VovsOEVCdtstvyvQXZrhubzrpTSN+tml5O4L0Jhlq3Tl1GJmtaE9ORannV20Wo5VWq5TXc/0hOw0I3oCxR2xu17R/rsxzvOnTDnWvcfbdM9k3g6H2TrtEfs1sy+myGtqcr0t5mWdEHseUfctOJ5eA+Ka4ddXrc6XCaYMsHM9oHy7ah+dYAPe9OFV9fWgaX0Xx8HxERERGlwDA2H3SwFK9JNnDQJVI9Q+8Uq511z3r3IEjKjRMKXNxWBKY+0LoAcA+46gd3uoUc/Tk33nMLdK/2ejg52jBijZq+Nbjx7kZ87/ZTLl9VB/bCGOqZWI7xGiPHd8uYs8V0g77kBwKJkA3i1vg0p/Ha8XnQ4N6E59b4AadzW/YCyjxLXRaiCYVAf3a+YAM8xgXx5d5ocD8bc9gwaS1DKV4jWKrnx61IPqr4Jat63Rt12c6B+IGmnrYG92+R1nsd2EYIvY1Qz3XuV8vtfciWG+9S4xf3Aik7tdHT8ID6amnBujtvy/kBeyGv58M/x1TTNXKa7sUNd419civXdAd/KcNRFcgUolOXh9TrTv6/W+MnOR9wh9cLikx3Wq3VWV0+Mlle3eVD6E6u1qCk7F61f/BI1k9YnXbyN8Vneeo6dOM9m1JOkzRuGdFRVzrfK1LcN/Yum6cJqb5HT11G03nt4e/N49PbrCb1+d+c1fk9fB9vrOmJ76+uUftga/KyjbpRf7edMt/GVj+4jMINtDfl5aQqERER0RhYM3ay6R1ew/uiG/Ckt0N5qno37Ljh7gOjXrI8lvX3VqnnbFOv36EOVA7EAxMVRMUP8KpSTrOU96U1vVLtzLstfPJIv36w9EV3WsY3jxPq1SrycPwAoMitvWv0ltfDSdmCfLr+nvhyHSztgKnmu/789IHfxD7DUV5HrTd6+Ygv/+nT03PjPQ8gV/R06XU0fplsA8avXi23KtC7+8WMthFjcQ/SjUynqd79DHO57hTqep6Vz9E9uXUAH7n7Xqy5N7vLf8qXxrUphzG8B1Bo9HJaUnZgAstDHr5b1XZZ7w9kvpzooPLFge36xOhw8Aa1nI13eY2foF3vPj8e5E+cXhfj8+XWca/b8Wl6ETfccxMKxbo710xwGU1ocJe1bGyz4p//trT38Qa526htWfmOSUWvJ3q9nMh8G1we7szse5+IiIgoRxjGZo3dknIQHeRkvMM7pvqMDjTC4XjLikxfO96ZRWYt7OKta/JDz4/4QWX9iPuF6FT/POJ2UCWdjXD0pdRCt4RrSTlOfQCgQ5Fi5hENqQeSE6t5PILdpObb6lFv3/v06K+T7FL8bIm3Sn9x3K+jD+hysSzEW4GNFYbsGFxu3Zv6Xd+X2gp3nBMJ867/yoYJbbP0uqMDiGwr1PU8+eeYOUeFUUHrxUkJPBJEGtuKsdbh8ZC4edTtBOz0W6HrMDG7360HJue7VTw8gWmuUtv1iYVh6Z+YanFv7vo1pniYPZGAMHEiI1XoNmI9T9zQNMr06Ra1mwoikNXbUvck4ynva6LbrInM7/gVIuM5GZBQP+HvmFTcz844fVs/PlXuicpi358DERERTQUsU5AOgapUV8gh1Y5zPIhdn2QIFV7JB90QS3fYoJWU6IO1BvWbvnysfpTnxA801t3ZlbvLgT0PjJhGiPvVdHaqefIAxt45bnB3zh+5beDASKj3NuwaTeFOd4qARtegNUY/8BNy9Pvdg1I1P07XpMKD1RiLbs0Tv4S/fsxhdChyw50Hs3rp96Ry6xJj0sQvBWxBIUkEZRMNbPSycP2XslkzE6MGi3r+JbsU2X0/3ntTrEsqbInpdfU6ZEqHqMJpxESZxgOwxOqsfdsU6no+FMTWj/q4Dl3coEVvR60W93N134tHD6+mDWMFRonAY+XQNjVHdEtLidwFK6P5/u1NmIgb3GAlWZg4+ner45bUSLI8uCEe8NCnH0QuxNfdekxM1UCJg9UZPzOd5VWXbQj1bRpRE9atAZ9keY0HhMi4pEuq6YnTJ/k2qs+kaezx6Fbpp4aLKqhfc+9PTlt/hK4vO6y+uXA/jwYklWTfBGNcXeJue0bZluoA9qFPj133PJ1tVvxqpKfGVUc4WPowJh5y1qPU2gAb2ecGsXJTkv1v9R2JB2Goz6S/v8VdTt2SOka9euymMb8b9Xb+xnuq1PfFzSAiIiLKE4axqbitV1IenLYkrUPlti5L0iGKlDePUaduh3tbf+8mRCwdDox+8KPDjuu/tCPpNAQCnQhbTTDEivTDKKPBPaiJhwjXDR40x4Pl+qRPLbEr1b/xA5b4e9s0+Fj8oCt5GCvt+9XzmpAJ4Xl4jEca3EvTxgpY9PRd/6Wm1AeCxgZ1QLcp54FILujWbilPKGS5063MPYX4MrMCuaDrNMu0wo+m+EmHWLz1qWFWuQd3Uh3YJQIIXZMwvZM0qY1do7M+adASX9+vU2HUJgBJWn6JNe4l/Zl1LKNe20jdeujUgFHT82tk0KVb8GWxJdKIE0TD5W89H+qFvX6MIXTHS9edto0eOmnRpKatMck4VKhu6e1b5qFbJtJqQV9AJ1n0dyucsYPYVN+t+nsp6fqjQry1d72ELZ/ZgbGM97t1ZFDUpNajlwZPNOpOpQyhy0XUpzGyU05+pim+bakf49EWtbyOfiIovh+gllfduSFGb5WpA8Ib7mlJO8hOvf7oTuU24nt3NI75eHy/Qq8jo31/VKEkqpeTkc9/6PaR2wodNIsUYaww1DYmw5bhY9VrF+oE/Q33NI05nxLbLMPzYtL90PjVSE3IRHzdaUhjyCYkOkUbdMoJJB1uCmMHsmnsk24D1PdOqL/xtM7jvveZxLr9CD58960wMPp3j24ccaNahiejDjwRERHRKFimICW3B/rkpGga8zF9lj5567LbUnYYskkdZD10+3qMfWlyVZIgcmgc379dXyJerXaqF6m999Qt5YQKJdywJbZyZOulVK1a8yB+qWaSEM9IXntRH3Tqy2WTq0Iwuh7FRtc0nOzWbuOhl/GHbl+JUF91/DLlLIY+OvBM3jIdiLeyWa2mQd0+He+NW9/0wZ37t5q+oenKXgtCIW5J8mhDyjqMfo86EEbyICbT0iHxDgbrUwzVhP7eRWq+NLrbh+HzS2/THrp9kduKLa4B2eAGLsnGlaf1XHdilCzYktZ1KTuO0Y8LmWy73JD7eocTbqk5edxlIcl3qw7v0umM6yF3vW4a41F9IuHhpMvUeL9b45pgyZXuNucHn7kV31dho77p3931R4XJqdZtLR40ps8N4pKsR+l0DqbXe5ksAHRbo6a3jUy+/qQOYrX4NmvsfQBp5KdUQbwlcf3YA6SYT/pzcHA/kmvIqFa/W65HprPM3Bb/PlShdWL77t709l6vN3p5H9wvze5J1Hg4PxYVYKt15NQg9lQ/UNPtqPcwlkLo44CIiIimLYaxybgHeyKNECM29pl1XRNubC2ntcxIRibZqdQ7wukeqOudaR0upcNxxtNbbmdWawqmxW2pkVwgljxE1gcYqQ58ZVotxwpLX6wexUQfYOnPQmazBZ5IfiDuXpKrA4gUl0y706WGSycgSV+qg9jLkj6qwyD3MuwUr5FuMBKvE70+xVA73IP0VAfDbmAjs3gpaAGu56nml77UO91tqA6y9WW3Y3Jb7ebyxMpCFI0xW0hrLSnDu5GStY6rTzvszOS7Vbfs0+tQsla3Okx25G2pR2VchnTFQ+z1Y49LbMrgOz/ZfKtKa77dcOeaFNub1J9letuseuRFyhMcVfD2Jx8m4Lkv9Qk3M/2T5PGrRFJtR25LuX+qlxO/R5+gzHKr2DGvFomTVvrfKT9w30PLmI/ns48DIiIimtYYxo4lvfplyQ9cUu1QwknV2mGkeFDUMvYARrZ3KltGbVnkpNjxliLNg9FJNlat2eFShVpCXIBiY4rCbxWbS7oOZqpLTzMJzNJrqZS+rAS7RlOKAVIf8CcIM3WAolt6pktvQ2SGl9BOxGSv5/EWeUnYTcjMpiSPVWXcCjITski2FakuJ5dOZnVe4yd/msYen3FLlkPwFrdlXzrSW3/Sb5WYstV7LP15l+rERlrzLVU5FCd1GJ3OSZpCZhrJ55E+4ZZqvwsZbLOk21lmksd1Lds0GwroabOyecINSNoIQmBHxg0Ekp7gyrBVMREREVGWMIwdTtct0ztlukOQ9Hpcb0naKjZVazzLakLGZLKOg6rcVibZMuYBrdsqoWWMZ7Uknyc5EvDsSN3azUmj9UbKuqn1KDpFdOlxLniNW1IMkVkLdU23VMqWlAfZbi3d5BL1bZMxvWkGNm6tyiSvlVHLucSTMgvHxlJo63mqFnnjCQ6yEnCNkyiS7ZuR4rsVThMyJeRLSR7NcokamWkHgKm2AVVpLxOpgrhwILNWjlI2JXm0KmlL9ZSX8Ottc9Y6J83m1Qzps9NoNZpOPe/ky6dWj3TccM+a1MPGMttebxms0zpxKVvFytTfh6eyZfJliK1jiYiIKA+mUxirQ1aZ9BYs7RhoDXtryku4Bi9rTtbTeYrWeFv+YRw7r6lChJTB08Rfy627qN57vLVB4j20uB35pFNrLhfcS7XF2AcQ6QZIMo1WdTfeU0SX8pL6TFekeDzVQe7pNrmd5bQgO5KdvGhJq2VlttY53Yo41YG6sDMNkjCO1qGjK7j1PEVNcUeOr1xL8hIdKuAKp98Scqpxa2CnuCTd8B5ApmSqMMlIfpIiq691CiFSDx/vNDO51EFcyzg6qEy1jI9dQiFVqJ7utjmtkzR5umLHDSqTvLauh5uO1Nus9MJ4gVTLcUtGnT0mSCfz79FRpTrRIluQqVJvS4ohGnJc/oWIiIjoNGwZOz4t8U6tkh30p9Hx13ik3iFfMSk7lfFOHOIdLj10u3A7G3E7IMlDEJvw0KdvHdZh0DAqJA73pnGpI3THKvlpPUO5sd5dF1IEVzI7LXrGyy0/4nb603LKI02TfnLDTONyZ8tqQT4V1HqeKjhAB8ZDpmrFZ+anM6JCELEbUg4znprlqZeJ/AU2ltOSchgntijlMOkEcZlKtU8ixJokT07ymPt4etvm+GX8yUrHtOTlip0Ev3nzaZfKuyf0sTH92sYpW/On2zI61Ta+BfmUsqSQyHzbvSmNEwypao0TERERZRnD2Ewkdp5DfStTBiRGBh1qZFf6tSGnIt1hUKiv2u31XsiV7u/p9LqbkE6LOSoeYSuNFoQpD3JzT3f6o09o6GVWL7u6l2rduc9kn9wQaYSxsZIW5FuhrOepgoNcEUXYkWDWOA3IhXSWiWC0Aflg2tlZXlMHceOQRkg4WoitSxTIVAFiBttmt7NA9yTNqc9pytsVOwk6DNQnr4dvs/p7F7nTPPlSXSnSgnyJl63ID4EcrBtEREREY/OAUmlRZ+Kb3JqHod4daR/sO1KXKciPeG3I/Lb2y6f4Z9QEomI7wPreZ/K73kpxQcrtVuaXMedGvtfzeEmHfKl3A65C+SwmUzrLaO7Uo7ilWmbrB2p2pk+feJYy+TDxE8Qjt2252DbHw81G3Diwbvb3t6S9zzYZpvc2K7V8fl8Lka8GFERERDRNTacwdgck0ruE1ZCdcOzOCbWkMNROpUR+8Aw/UZx0qiB4AUDaRJqXupI66SXyO6/iNUKnXxibz2VUZtBjfaHRdexTUyeRxQPIhExjR8c0Tv/McrltzvdJrUKV721WSrqz0TydaZH87iMiIqLJNZ3C2M54bcZJks8dO4nUHXlMN2saq+D11g/1KK93+kdhiIVpHVwWE92b83RtAy8K/eAzDTpEcYwVatmsct+PDjFyp7jn16Su53kMDrR4jdDxdRA2Jl2jU9SjkAkVGOZvE12NouWpR2GpB6W/zRLGBZjogu9+Hxbw/o3uOFfkbZtaDyIiIqJJxDIFNHVd/6UGCI/usGQNTtvRHmOHf6oFsZpbb3Carur5PbgbHx2+Gp6b1DGzWn7FCvc9mMMeZ0vfkbieZ4+UXQW/vuTzRKcQPNGZLdN5XuptFrw3QUj1M81tVjZCVLc1cpF9HxIRERFNUQxjc0H34B6xQHkSD2fuBViuwaXLbdx4d2fKEENIXqaXTzqEFR59iXDD4HE3Q8Ox5Xs9nwqtrk8lDH15900phuJ2YuraobY59yP7WkDAjffcAl3TVp9gK+QWqvnCkx1EREQ0jTCMzQXdc+4Nd4Py4Ia7dThzK2gkRx1kp+r5nTXT8ueGe25Sn8998YN0SqkQ1nMpO6dcKzPpbidS4TI6dXXi+5/ZhMlQDK2ws0WXIigpe0C95zWgsU2nZYKIiIimPYaxNHWkF9A0qR3+BwG7adQO2q6/u0GFEdsw1Qj5kvqnIfkwU7Glnyj8Do7W3akO0OWmpA2l9Ptw5P0w5CNj9hB+w93To6kV1/PcCXh2pHVVx5p7q/DIbflat1qQr/qOUragaFkt3OXLk2Dpw2rZaUgxVIpt1l3rM+5c7VTC6GSLXCIiIqLCwD3z3GlB3joEkFnu1KUI6AOVVAGNcDbie3c0YjqS4hEVPt2SfKAi7il8TKIFhcwtTWDcm2KoB9Hfe+uoAWz2FXZ4XVDreZ6XLcN7ANmmr+q4/u6mlK3oA2FdGqIJ+ZG/ZVSgC8UqEOhMGbSLSW313ILpIL7Nakg6jJQ3T0qLZMtpgaegW562IF8EdoCIiIhoErEnmJyR+duxm447lUIkDxql2DRtg1hNt3gTKUOM3NXe1LXydPA42fSl5IVMekbpdGqEFoT6JiuI1R28vIRCVlDruW5pmDed+N6nc3XS7amUQwgjN9sK3WL5hjuTX8qd12W0iFvG6qA91XfApJaqSeNkxlSoYy7EhuSPq5NHk1Uawu3Ms5Dl8QSXLPATkURERDTlMIzNnfy1TrXyGhJMvnjIlzwcsCO56JSkeOgDcfcSyKSq4r08Z5kOWKS8D8KzbaCV0OSxC/zEhJGqsyTn/kkLYuNaUg5x4z0LkQ+Ftp7rS4lF3g7gc7dcBzz3pR7IuBa5oYIr42G1jD0w5smbeCdj+SGd4j7RKWVTiiHq3RIUk8JuSj2MqEcx0999qa6QcpxNmCz53WalIZ1lIkekk/okFBEREVEWMYzNFX1ZeH60YMs/TK+WscKbupXWdJsno0lnmTS8qXpSz5xAos5dvVvzbjID2VJv6oNPkcMWwcmsd0OP5K892eGPMFO/XixSjXwoxPXccX6CvJC5ax3qnrhJWYKgIest3d2amAOXc0u53j15MxqZRhA9nkAxdc3sThVmNaGoidSBU7wExcSkc1IvnWBQiMsw8WmpR944DSkGaBm1PmwuOSnWH0Pk5/tQy2tY7DSBiIiIaBIxjM2VdC4LH1cLM1mf/GHRhOlG2vk7eCgm37+9KWXIokOQbB68Xv8VfYlm/cg7J7H1iw6WUh18jrdW7kTrK/bF6lFo/GZTymE8ngZkzFOPiSrE9VyYqU5wjC+4TrVsWbFNyK2NKYcwvBuQLW7t5FMu5x7ru0xvx1J9t5bYlchYyu/WfJ1gzR4rZctYvUzfgolwP0vPA0lbNyekulpDqpNVE7laIz4t23DD3Qcm/aqMuHpkS/Y62EweyMtxto4WYhzr3Givn2KZGE/pitT7NC3Ff6KFiIiIig3D2FxJ57JwJ7YImRIpgqPpfjn+hKU4IC9+qUMW4XkY2bDuzjUQTuOI+3RNz8luCSSQqvVi5q389PCTWl8xhfVZurQ4rVaR47hEPV+tj8eUpfVch9fJgsHxtOxL3WI691c/pHviZl2K+q7pim9z6kfeGRt7W+Ug+fec46xGxtOQ6qRMLFWZl8K35TM7Uq/fYg3W3jX+9TUe0tcPtG5OHoKmE3BPJBxOTEs+rsrINulk6/umKcXjVQhG1yNjWWpRm2qZkOM4eZrqqorp2IiBiIiI8o5hbC5J+76kjwsz8wNZIRqSPNo0LS/HF0bqy9rSbelhGBO/LLKQ6ZAFIlVgv8Jt1TQRN9xzEzzmqeNoSRqw5Irfsyn15bDmvchENloFptWZilmPdIStLIadKWsL606WbkW61jTqdW9ire20QlzP4y2vk61PmddhDsdSdGAlJ2kdsm5Oud6YxgMTCu70snHD3bocwchxuJ0aJTlpo+vaJp+2zD9fKRuSPDqVWs6lXn484uFxXSGhr4TQIewISa6ESCf01+Gw/j7J9bTkRwYBa5a2WWnNc+OWjFrHxkPuemRDqukTannItOWuQIoTiHnYLyEiIqJpj2FsLrkHk8mCL3FTRjuVukf6ZK3xpDp4no6kTB3SpNPSw23tKFMPV+z8ZiNSddSk54N7aWeGB+TxcEUFm3KTGkfVKePcOOmtYrW0Oi9TB3g33p1ewOquh1lYTgKB1MutEOmFEAKZhcnJBLyPpK7bZ2xIO4QrKdPTVo+JSmc9D8RSn+DK9nqeKhjMtA5z8t7XWyat53W9rtopg7sqFdy9mPa6M5wOqYOlLwIDdWKHtOB7dzQmfW6qEFwHNplsu1KFSZMWgE+CtMI4xC/vT3ceJrb747sSIo15q75P0j0BNLFpya7Unc2ld7LGLbeA1MOlLeUJt3qU2Ol9p9yovgcMI3vfP3HJlonMWu6m2t7nY7kgIiIiAsPY3NPB19gH6mqnMpZeC8T4QVHj2API+6fvDmU6rV1UeJTsoEc/NlaHMVONG05aq9PoKKPevcw0XvuvIemQ+gBYBzIlZQfUX6McNOvlc5JCpNHoVuqp3q9U61eyOoeJg3wpk7d4TxDGTbjhrofVc24ddf7pzwEpOyNqSBp0ufPdbcWcvZaxerrSC+G2JQ1I9Hu+4e4X0w4+Dc+97vzVl76v/ZdR3k8a67kQ9076ep5qfrknNtJs2TdqjeXh47Iyv/x+In5w+31ptKSPrzuJupypArz4crFt4HMYOawQnWm/Rx2Cj31SqcqtW5qO0erVDueGNXncduWCIW9LY6jU238978be7rek1eIwvas1FBX4jXda9HKVj9aP6XQ2p5fTZOtMLrZZ8eU5+bSlOiGb+M6Hse20E6+jW+F+H15/Z6P7nuJXTIwxfamWCXd/rh7pSL4daGGrWCIiIsoXgang+rvVzipS7aw24aHbJ/dANiHl9MlHVFh025hhqg4n9CXfY+/wtqj3lnn92Rvulkkfl/LmnByE6pqIEasj6TD6gDyTy0Kv1wf3abUcaYJ0nlKLfov7V7xTDH0JW/y5Qh2gOM5LbpA2FiHq8b1PH0S68jWfU9EtWqACtXRrn7pBiVQHcFL9HLhkXOg6dm6tuPokz9yhls+VyFSqz1RKHZKk3xr8wyoUNdJuQTqwnECHqrpjEv0eG4ZeWwU0wr2suR7pGm16r79bn6xJp1Vhi7qp7YR8KT5NarnVtfMMrBncLkgVCCYbV6bLWfrrVIsa+Y6haXPnl37eUKCaatpGM9r0FvZ6vkn9m2R8KrD83u2jH/jrYCJYqufP2OG2vnQ/VYvRXEn13k6ngx61nRiY/5qQK9x5miy4sZ3rsPmOR5AuvQ2T4kUkmw5pXTfmd2s86NJhTf0Yz29BqG8lHmlM3Sp7uGxv8+MdUR1IPs4MvzMz2x4mtAzc6uPboCSfZSbvMb5P8CIya0Hfkva0ALep76DUJ9F0a39P0uUp8+3CjXd3pPcdq/YDIZ4avAIgXsN46HtHf+foWtfJtn8P3Z7+Pn16+80Jen3W29Su+J/mwhHfPfpz0NvbZNvT0yXfb029TLTEr7YZYxlLdCSHJPNLyJX43mdSB+ZEREREOVCcYaw+u356ZwH1aTyzZdT7JiOkTe/ApwnuweOwHd7UgU/LwEFYC5JJ9Co8Un3S58TDt5EHoVI2ZRSAjSXtA5RRnb4Tf8M9a9TETbzjKR0GmLour0hW47JpxF9CrB88OMvOfL4/rQPHbBia3nrkxoMqzLg1rTAjHrTVD/6d6gD71PmWzrKZeag0mvg6l+l8Gy2M1QecUevAxDsDk/fDwqakQYIOICWGz68Hk4Yl2Vo23BAhtjFlmHTa80YJcwplPR9L6rC4ZURwHR/vBSrEaEi+rOcxiE1I/8RB5vS67Mjr4i3iMqRb4+rOmZJrwvDv1vgJA7UsFch3qxW9bkS991yMczS5+kzHs7zm6rsok2mZ+Pb49JP+2ZrH0loUr20u1iDZ6w+Xat82a9OmttVQ+6rZDGO19JaJFrXsN8Gx49vm0U6eYoxpnmot3omIiKioFGeZAum2cqo/5ZaO+jFuuRe/3PO6FJdKN0C3jBLGhvjNvby3PsnwTWkdLA6pRybvOx4OjHyObhWSDal6w87UQ5/WrakexETogzbdKit1D88Np9xOVY+JzOfs9Zqcml529DIkJzjvRqdbI61Pu1WZOGW+pbr08dT5ls6y6ffcql4o/ZZ3o7Gd27JWEiS9kgCptCDU34hSb0vS7YscPEAduMn6ZCMdXDZS1RdONW3ZvAy0sNbz031fhx9JL7mud8OUwW28uum/Cz2I1b5/e2M8dJnQ8jCaHXBiK8cVxGo6UJFItZw2YPh3a7wFcj2STdNkfreaRtUkjXMk9zOd8PZniFsOQG33x7O8Dm1vstdSMdN1J16LOLstJfU8nuh7GuzQTjyVYsgGZLLNysbn705bjkLN9L6D4jVhR67bDWMO7Z60UNsLBrFERESUZ6wZO5l0kOBYKyccfCUOeHSrh2KtE5u83t/4TChok/cPHrSl18HJ1KGXoe+r0DR7QUuTe/nfZLXuzYQ+2H7o09eN6wBUr3eZXkbttq7TLUPV+mqMcQJCn6gZ/wFx/GBVB96pOjUaj6GwvgmZyyzQim/XVDCn1kW9LIb7R5/Phb6eP/TpW7O0Lu1wQ4NCCGIT3OAzSydv4qHIRreEyUS/x9zPMgvTlc1pKhZuIGfpFootmJgmdZZ19YS2+3qe63kfL2uS3km80bWMf92xbp7ga59Ol8oY7/wdHij7PZuQ7f2miZxkyTTsdrfx7rb7NvX53JzWc+LLxKIsnTRomtCJHyIiIqIsYhg72QaDL92SJ8NAIXGg2N+7qCCDrkwkOpFyZPrzIB7WNAFjBE6DQVtGBxZNbsD20GduHXm3le44mtBvdmEq0EGLe9Cj5l+mIZW7bIp4CzV9kqDQ67AlAoj0w5v4QVzyIHYoeNXzIdRX7c7P73/6Znd9TTZP9PRYcmXa8z2xLdD1LIeHRm4rrDQ6w3EvC0+ztVZ8m7U67fVqaNpSBbE7BueXW7vv09VuEPMDtS7qZXGsFtXFsJ4PX5cyDzkGpvX2wgwNBr/DBtefFmSmafB7LN5qMMvThcxD2eHfrdmcpmIxGHiNY9sf/zyzu93Xn8HQieuWtJ83Yrs43pbWal7o186kNWti30SXfhlrnEOBYgvS03RaoJzYb0p3m5Wu4SdZ4u8lldRhd2Ke6JNr+qowvb1wt/Gfvs79Psz08xn5nd2S9vMGP5uBZXTadnRLREREhUaA8svtuKWsAdJe4daIHX7pcPzAolMFFS+pW9OU7WjArQvmXeHOA12Cwq35NVD/S3fAIww1H2I7Mt6J1h1UwGmAMC8YeRmwHqeap7qn41QHBLoeob68O96ZxsjPRFqPTOkde71sBkpXuPMw2bKp52O4b0fGndwUCrdXZrNhxOfsSrGcxOvP7nCHC/U2Ze39x+vkrVEHsfUjpscNUJ2D6ucjKee3XvalXJPR+0lXvNOkBjW+ywbXq+HLQ6jv9CDVncfeDTlZXophPR++jBnGwtOmU9cy1TV9dWvgYlyP9DLhqPeW6v3Bbpq0bWYm2y+2lBtp+H7JqevV4HZoEj/PxDbn1G1ifIJacvY5Jl7XLR2klyGtgPZNhHHtiG1wNj6XxGfvqOkbvi4P//4Zbdp0vwjxDsYmZ7mId0C2Ysxlwv2cjKai3jchIiIiIiIiIiIiIiIiIiIiIiIiIiIiIiIiIiIiIiIiIiIiIiIiIiIiIiIiIiIiIiIiIiIiIiIiIiIiIiIiIiIiIiIiIiIiIiIiIiIiIiIiIiIiIiIiIiIiIiIiIiIiIiIiIiIiIiIiIiIiIiIiIiIiIiIiIiIiIiIiIiIiIiIiIiIiIiIiIiIiIiIiIiIiIiIiIiIiIiIiIiIiIiIiIiIiIiIiIiIiIiIiIiIiIiIiIiIiIiIiIiIiIiIiIiIiIiIiIiIiIiIiIiIiIiIiIiIiIiIiIiIiIiIiIiIiIiIiIiIiIiIiIiIiIiIiIiIiIiIiIiIiIiIiIiIiIiIiIiIiIiIiIiIiIiIiIiIiIiIiIiIiIiIiIiIiIiIiIiIiIiIiIiIiIiIiIiIiIiIiIiIiIiIiIiIiIiIiIiIiIiIiIiIiIiIiIiIiIiIiIiIiIiIiIiIiIiIiIiIiIiIiIiIiIiIiIiIiIiIiIiIiIiIiIiIiIiIiIiIiIiIiIiIiIiIiIiIiIiIiIiIiIiIiIiIiIiIiIiIiIiIiIpp0AkSUkpRSNLW0+E+2i+qyqsBMKfEWaYuzDUPOl0JUSUd6hYmwkOiQwOum4dkec/pfMgKiwwnP77t6CaJCqEeJiIiIiIiIiGjaYhhLlIQOYX+x92S5aYXPtQ3jcsM0LofEJeohTxpP7pUC2wxD/MIwfb/tCfW9ft05804ylCUiIiIiIiIimp4YxhKN4bHm9gphyIuFY1+jVpQ1KkFdjPGx1G2nFOJnMRl7uKW5f9cnr1kaARERERERERERTSsMY4lG8ZNXjtcFA/iIA3kzhLEMUhqYuKgKdP9gCPFN35k1310thAUiIiIiIiIiIpo2GMYSneLhV4/WB73GRkhcpf6sQ5ZJicMS9tcdf8m/v3dhVQeIiIiIiIiIiGhaYBhLNMwvXu2ohxndIAysU2FsCXJGvq5e4+slnsA33sFAloiIiIiIiIhoWmAYSzRg695jtRLiTkjxURWWpu6ga2Ic9RptpmF+vT/W/q/XnnNOD4iIiIiIiIiIaErLRh1MoqL3WHOzXwWxf6N+fc8kBLGaWvdEne04N/m8Ve8FERERERERERFNeQxjadrbvHOnT4jK66XEn0GiBpNrERzx2cdfO3E5iIiIiIiIiIhoSmMYS9PerPI5S4XEegHMQx6o1z1PGPZN25rb54OIiIiIiIiIiKYshrE0rT3W3F4RjlhXQ8g3I48k8N6wcN7+1cea/SAiIiIiIiIioimJYSxNa46MzBOQH1RpaAnyq8pw7D9duriqHkRERERERERENCUxjKVpa9vO1jKvMC8UhjgfhUAYlzoyumrbtknpQIyIiIiIiIiIiCYZw1iatvpLvDMlxLsKoFWsS0KWGR7vas/irnIQEREREREREdGUwxZ4NG0JOzYDQl6sC7aOh1TPi8YcRK2h+zymQMAnIATG5WjLobd+61/+89q5c991yDDkq4cO/e9hEBERERERERHRlDDOyIiouEkpjSf3n7jadpyH1Z9ejENPv4PXXo+ip9cZvM/jEbj4TX4E/Ok3OrdiFn735HN4+mfP4MSxNudka3unWjX1SLvVhP5v1LL/tb39yVdBRERERERERERFjWEsTUvbDhwIRKyyvwKce5GhThW+Hj1hQWWoaOuIwbL1ihRflRwpMb/WC5+Kd6srTNRUmSOe69gObNuO/6Gecuz1o3h000/w4q9fgG3ZY73kIWHIxlgs+oO2tqZeEBERERERERFRUWKZApqe+ko9wufMk+M4HaGD2INHY+7vhiFQXW7A5xOwHYn+fonOPguGSlo7e2wVxgbd4cKhMDpPdOLowSNoP94O0zQRKPHj2cefxa4/7Ez1kvOlg3/zeILnzZlz5X+UlpoH9u79RQRERERERERERFRUGMbStNQZ6/MEA6VVbuHXDEWi8efo+rB1M0zMqPSgt9+Gx2Ng3iyBtg4bkZiEo8JZy7Jw5MAR7Pj1C3jl96/gYPNBxCJRZE4EIJ1b4Bhn9HU5/6nueBxERERERERERFRUGMbStFRVVYVwNBIQxvgrdXhNNZ5yw20B+8bxGEwDuGhZwC1fcKLTRnnAxu4/7MHWzY+j+ZXmcYawpzDkderfs+fWXmkfaf3lEyAiIiIiIiIioqKRfi9DRFNIZ2cnDMOYUDqqG9UKleWWBQ2UBAyUl5pua1ldrkA6Dg7s3uPWg331hVezE8QOWSYN8YW6uqvfAiIiIiIiIiIiKhoMY2la8pdZOjLtxARELYnWDgflZQZWnOXH8sU+dPXY6Ol3YEUj+ONT/4v9r+5zg9kcON805N/V118zG0REREREREREVBRYpoCmpaDHE43GnKNSjP98hEpz3XIEvX0OggGBmApnw1GJaEzi+L7XcLT5Nchx1KRNU0BNwGWRkLNO/f5VEBERERERERFRwWPLWJqWGurro7aDFoxD3cyhcxi6k65QxEFHd7xFrA5itda9r8GxYsglKVAF4bx99ux31ICIiIiIiIiIiAoeW8bStCSEcH6559BeaXj+KB3nnEyeO2emiTmXlI75uCMd/O7bBzE5jDebKG1Qv2w5/bG15pw5+/39/bP9fr/pM4zuYDQKy+OpcFPiaLQ7EgyWRY8e7Y0CTRaIiIiIiIiIiCinGMbStCUjwXb4racgkFEYm4zjOHi9+SBOHGvDZJBSzrWFWAYs8wG7B3oJawjMmWPUGU7XmVLMujjoj10kDEu9x8CZfp/sgQgfgRTRoN+/F07sQF1d8BXgyhafNE90R3pOdnX9ugNERERERERERJR1DGNp2rIDJ1sNo+YJOJHr1Z+VyIIDr+7Df9/z3+jt6sVkEAJeCeeMurr5Vf39tU55MHi2YzhvUSHtOx2It8JBlTDEwNBuCYWgCmJr40/Gm/UPQw0kpThmCXtnSbD0uWDwqt/ZdmR7W1vTMRARERERERERUdYIEE1jjzUfP1OtBF9Tt6swQdFIFP/zlQfx2yeeg2VN6lX/TWr6fygllqjfV6u1+gJMgBrPMTWOH5q28+3DbU/sABERERERERERZQVbxtK0Vruk9vUTe47/CIa4UP05oY6wDry6H/tf3TfZQay20pE4SwjMUL8HMEFqPLOllB9wDLNZ/ckwloiIiIiIiIgoSwwQTWMXCREzPEaTBJ7CBO3ftR+dJ7qQB5UqQJ2LLASxQ0S/dJwjICIiIiIiIiKirGEYS9Peb17fdUD9+Ja67cIEHH3jKML9IRQ70xA4c0Fl17e//L4WEBERERERERFR1jCMpWmvcfVq6+qldVvhyPsgMO5OqxzHcW/F7ow5Fbj/79914ao3zfr64d987xwQEREREREREVFWMIwlGvDus2d/C1LeCch2jEPVzEp4fF4UKyEEFs6twFf/8XIVyFYKQ4iLvIb5zeO//d75srGR2woiIiIiIiIiogliwEI0zLuXzr5PGJ6vSImjyNCZy5egemYVipEOYs+un4Evf+pSnDG7YugBKd8upLHh5DXnvklKKUBEREREREREROPGMJboFFedOetLKoX8sgoi92byvKXnn4U59XNhmMW1Wvl9Jt583hzctv4inFM/c7RBPmA79qcO/O6hWgayRERERERERETjxzCWaBRS9HxDOvgUJH6k/jiSznPKKspwccObEQgGUCxKAh40vPkM3PKnq3Dx8tkwjDE2CVJ+qEyKvzn5u++Wg4iIiIiIiIiIxoVhLNEorlm6NPLus+t+Znt8n5KOdYeE3KISybZUz7vw0lV404XLUAwqy/x4/+ql+OvrV2LZmTNhJm/RWy5h/H9Sev8KREREREREREQ0LrzkmCiFbQcOBHr6fLVev3iTFObbVGR5CSQuVg9Vjjb8wdcO4P5/uN/uOH7SRIHyegx88Iqz8f9dvwJVFRm15D0mpHN9zVtvfApERERERERERJQRhrFEadL1UptaWvxRO1jhxGSJYZpnOIaYK6VVbQjTFHCitpQno1Hrjds/9MmKno7+b6kV7AwUmJKAF++59Ez8zUdWZhrEugTEo2av+NiMK9Z1gYiIiIiIiIiI0sYwlig3jDlzrlwpJR6AFG8SAh4UiHdfuhgb/r+3uqHsOPU4jrzrkL/7zosu+ngMRERERERERESUFtaMJcoN5+jRX+4wHPtTKoh9Sf0dQQHQAezNa86bSBCrlRuGuGlBrOrNICIiIiIiIiKitDGMJcod+0jrr56QwF+r33+mbofUzUEeXf2OxThn0QxMlIScJyQ+dOh3D84EERERERERERGlhWEsUY4dO7b195Yd+RtHYqP685cqynx9zIElYu6/OeAxDVz19npkg4AIqn/eJWzzKhARERERERERUVpYM5ZoEtXUXLXEMPBmA3KZFGLeyEed4+r8yEUq6HyHymN9yLLZs0rxP19+D2pnliJL+qUjf2z4fZ+pueiDR0FEREREREREREkVTKdCRNNBW9vWveqHujV4ampKZg1/rLQ00hkJ+f5NnSJ5O3Jg/uxyeDwmsqhEGOLtTsR6q/r9RyAiIiIiIiIioqQYxhLlRZPV1oZjw+9Rf2POnHcvgJR+5EBtdQm8nuxWJpHAXGHI93a88KPnqy/84EEQEREREREREdGYWDOWqJDI7JcnSPBmt1WsSwBqeuVbrai1GERERERERERElBTDWKIpzjCE2yK2vTsM23aQfeIsAXll+2+/UwEiIiIiIiIiIhoTyxQQTUE+r+l22FVZ5kfNzBLUzijBnJpSBAO5WeUdKS8xpDFX/doNIiIiIiIiIiIaFcNYmlIaHz1cUl4yc340FporHTuUanivxwsBaZn9ct9t11V3Jht2s5Tm3NdOlPSWhr0hy0rZxDTY5zHKPIHYkZdn9a9bJ+xkwz7/vPS+YbaUfvL9f2NYMUvCrQAwPjOrgnjbyrlY/eaFWLGsDjMqAsg1CXGeBbFk5+bN+89dty4KIiIiIiIiIiI6DcNYmjoapRHwdv2pEwt/3IRxAYTRluopUgohJdpRIr7Z+HDHA41jBLLbtklP9ODxBX2OswAhT3kJfEkDR9PjgeONetXwnRXnnjjQKOXxRiFGDXC3HZCB9mh7fQDBeTNqZthtR9tsKeW41s1Z1UF84oZVuOayRQj4Jm/1VsnxDCHE1cHFeEb9yTCWiIiIiIiIiGgUDGNpyvjim3tnGgI3S4iV7h0CdamfJfVwtSr9vCkQMP+g7vj1aEN11neWlVpirvQYFfEmq9KfbKy2FVPjVUOacoZlxyIXbj/Spe7uH21YJ9o+UyIy3xBmYEbtzNdPHD9hSXt8Yez117wJH7hiKfJBSmdlacTvBxERERERERERjYodeNGUYXhjUSnFdinH0zJTHPMYODHWo2b7vqglrX6hEkdkMk1CxAI+b0/5qrljTpOBSMQWwn38jKXz9wthxDBO7/yThcgfcZ4R7WMnXkREREREREREY2DLWJoy/u6KGV1f2dr+ZQnPXsfBggyeehKOfLy3pGLvWAO8f9Wq0La2tubu1khPqd/jQ5oiptMn7Npj1whhjTVM21lzO8qO9b7qdHXPqKoORACnV91djnEI+vO3SguBMrvEc7b6dS+IiIiIiIiIiOg0DGNpSvnUVTPfaHz08DeCM+aa6T4nFEMMTyHa2CjGbvUqhFwN9DY2yv2XbUi/RfkfNm50Ghsbk7amXSeErhF7ArPL2l9//1v2b/7PR19XLzgH43CiI4S5tWXIF0OKVerHz0FERERERERERKdhGEtTTuP75/UjR9zAthEZlSpIh1BhL9wCtnDmzHn3Zkj5JxiHHz2xB+edNUuPD/kgHWcGiIiIiIiIiIhoVKwZS1RgHKf/YfUjjHHY+swBvNLcBiIiIiIiIiIiKjwMY4kKzPHjTx8A5O8xDqFoDP/yjd/i5dfaYDtZb8BLREREREREREQTwDCWqAA5Ev+tflgYhz/ub8e9//0HPPvCIbSd7IfjSEwWAXEIREREREREREQ0qrQ7OSKiyVNRsahdrZ7vUL/OwzgcP9GPHX9sxevHenDoeA+klKiuCMDjyd35F/Ua+z0e7+fv+uZm1kkgIiIiIiIiIhoFO/AiKkCm2dfmWBX/40isFAJeZMhR4euR1l5124uSoAfv+pOF+NuPrkLAn6tVXnYbUvyws8thy1giIiIiIiIiojGwTAFRATp06LkwjOgTQsgnMEH9IQuhiI0cVSvoBsTDpmn8n1JhfPXMK9Z1gYiIiIiIiIiIRsWWsUSFSR45su21uror/8cQuFj9XYMJWHbmTFSW+jBhEp1SyAMCYrsN+axhWS/GIs6hzpPBnnPXrYuCiIiIiIiIiIjGxDCWqIAZhu9ROLHFEPiU+nMGMiQA5/yz63DJirlGSTC9agcS+KAUODK8+zDTb3Sg3H9k1tnv7xVCTF6PYEREREREREREUwjDWKICdvToz/rnz7/qPyxLVgmIP0M8kBXpPFdKxLwese997zzTPrt+xrJ0n2dI3GpHozfNvuxjB0BERERERERERFnDmrFEBe7Qoa0nPR7xZZWk3q0C1ldUppqqHECvGm63MPBDRxi3vbdh8f+YpuhHmhyBP/H4/J9p/f3m2SAiIiIiIiIioqxJq6UcEeXfsmXLfB0nzlgtDVyiItNlAmKojqxATP3bppLUE4A8IIWzx7ZjL7S1NR078dvvX+tI3KMeX5Lua6kwt00I/CfKjS/XnruuF0RERERERERENGEsU0BUJHbv3h1V/25dsuTqpt5esUQOC2MNIWJCRNt6+jwnuru3nhz+PAnjkAGn1ckgjBUGZsKRH5TdsWfUn1tBREREREREREQTxpaxNOm+9LOD1RHvjPR6k6IJWyXeqLywbPddXmFdi8zWeUulvD8NmObfV1z0oT+CiIiIiIiIiIgmhGEsTYov/SJUbxixKyGdqwSErkVqgiaFUGv5hb7XznlT4PUKD6yM1nkhRKf68S0H9j11b7nxOIiIiIiIiIiIaNwYxlJOffGxnhoB+TFDODcZhlggJUpVOOhRP7nsTaJF3mO4OLgbJSKCTEXg6WuOLPivnf1nfP6T18xpAxERERERERERjQsDMcqZO3/SNxd++2sqjF0DyqtKoxcNJTtQbfZgPE7YFXghfNZv34jNu+GzVwdbkCONjY3GBdfeVJHJc/xnVDi//3//r1c910k6oJRi2zhaZD8FOI1COMlHLUVThuN+Sj1hQwNsIYQspnG3bdki165d66QaNxERERERERGdjmEs5czdW3v+QUrnC6CCsLrkBZzhbVUrfXoZ2sjGywIt1hy8Gl1435k1nf/s83qNzpNRs7LCEFYsZhpGqYhFwj4jKjrf8Y7zOzBOjze3XQjh/G0mz3EchD0GfhmyjCevPadmzLR58/P7KisqS+bDsdPuuFBGpbR8wfays2YeXy2ENeowKtD81c7W2pg3WqcCyrS3qU7MjJkBccL3xqsnV69ePea4tx7qrkZ3/xx40p9uWLYl/P62ZON+/nnp7cD+Of1lvip/htNtoOTYVcsrOhjIEhEREREREWUm/YN7ogx88cfdM1Vssx5UME46lZgleiGEORjHuoGrSASv8Zg28Xv8cSN+n8rqKj026szQX5jSZ1kR21dW4vVaFryGML2OdLwer6fM8dg/V4P/J8bh0dcOz4Lh/Dsc/EkmzzPUpDpSvNcjI+9qbGzsG62F7PNSetv2HDlPSFEFkf5mT/jV+GHX9ew5ElHBaPto4eOT2/dXOBXBsw14M2rRa/r0XLarrTPO2Kn+7BptGD1us9J/lpq7szLaXHs9etxVycZ9tLy91o/SpQGBIDJgBE2VUMdKf3rkyC71Zz+IiIiIiIiIKG0MYyknPKXO5VKKJaCCoGPWqKcM7Z65sI34ai/de8VA7iqG/k6iwmOXSQefToS1wh3PQIyrAtuBz3xcYawv5lVBqVwwvvb6slbd/GM92v7ycZ8nYAaS1zEYnUeN15K2b6zHnapSPyw1mIGMOTB8fqvGm2zc0na8YhzzJNW4fdLyGR7DazuZzRVh28KE7bfbLT2/GcYSERERERERZWAc8QFRagLGNaCCUemLIuAXiJhBWMLr3mzhgaNiNQf6ZiAbfaqZhnnO1mdfqsU4+Nv6DknIHyJzUenInwiP59hYdWOvPL8uFIk6h5EhIaVjCtHurSntHeuS/EjQ7pWm3amHRQYcIWIey2hva+/qG2sYnxnq9hj+dpVy28iArYZPOW6/v0MFsR1qnmdWasAjIsLja+3/Y08fiIiIiIiIiCgjbBlLOaHSnbNABcFvWqgJ9rs/J4FhCnmd+vkNZGj16kXhx5pf/yqk98VMnmcKw3Ig9/RE2rvGGkYFqc7m37zRUhbwZ9SDmT8opXGipy94qGXMFqDvnzcv9Ou2tubIyfDxiChJO9GOqSS0vbOz9yOXLAmPNczqRYvC26R83Xewv6M3Fk67oy1b9stjneGeZON+qr6q+y2Hupudk62HUTID6fJEHaeqfFbn5etqoiAiIiIiIiKijLADL8qJOx/v+KmA8V5QXunGnHOCfVhQ1gOPGM9F+pkLR2LPvustF7wdREREREREREQ0AssUUE4YwnwalHelnhhmBUKTFsRqPq/nzJ/88tcXgYiIiIiIiIiIRmAYSzlhl3h+oH6wpmQeBUwL80p6Ue6d5KvJBaq9Pt9fP//8814QEREREREREdEghrGUE3/3jpLXBfAAKC90eYKZgRBm+MOYbEKXqfWa73i9M/ouEBERERERERHRIIaxlDvS/KYK5vaAJl2ZJ4a6YD8MFcpONiEEfB7vfEOKa372s2eqQURERERERERELoaxlDN+efQ1KcSnpJQ/hMBx0KTQAezckl4ETQv5Yhgi4DHE5XbA/BMQEREREREREZFLgCiHGqU0qp7smB+zzbdLyLdDiovVQlcvhZyp21BCwgbk5F9LP4XVloS8i8s7fWYeWsUmOI6D3t5wJBKJfkvakXuuu3p1C4iIiIiIiIiIpjmGsTQpGrdJj/fkiRp/MFAtTafccpygvt9UCa36N39NOKeYurLQogUlnd/2m7YPeRYOR9DTHToAB3f6ZM2ma65ZGgERERERERER0TTmAdEkaFwtdOB6dOBGOfKbF3a+QwrDiwJgGAaEx5gPy3lvv9n+nLrrZRARERERERERTWNsGUs0RTz78p5LYVn/rdbqhSgAtm2jpyeEaDSmW8R+2QjLr1x77dt7QJNq74/vrnXgmemY0UPnXHsH5z8RERERERFRHrFlLNEU8Nhvmyukbf2lEJiDAmGaJvx+r8qHbb9jOx8xS72/Unc/gyyRUootu+CdWwd/n41goAL+/i6YPg9mWAYCNtApI+jzWoj1laPf7Ef0hbkINwrhYJJ99THpb8dJv983w2tGTwYFTL/p9VY44XAgFvR1ORFPX5nfDvd3d1rRlfP6UI/oeKdzW2OjZ/6bZ5R4Qp5ltrDWQ8gPGlLMElbgafXwZUmfK6UndPJkiXXC6wsETV+st8trGGYlhKiQhn1SmrLPghmeYfqj/f5w1FdXF1ktBMuMEBEREREREaWJLWOJity2bdLjr9z9MUeIL6gVumDCWC0Ws9DXp1vH6rxOPGIb9qc+dMU79mMCNr8hg2U+zNXBs7q9SUisgIGz1M+L1MOVGLZdk0BU/bVHPfaqGuYVOHhJ/f6G3Y9je2I4+cmlImd1bBs3S5+/vHMuYNSYEMsdKVcYBs5VKfISNYkL1HQZwwaPwZGvCSF2wzB2O7BekhIHfF7/iW4j2N64WqTVyd22BxoD8ytmrDANfMiR4jo1Bxbr+1VwHTOE+NczP/DJvzv1OY8eliX+0MmZjpCzIZ3lsJ3zhWG8CXCWqemcpwYxhw2up2OvmofNMMzdjrBfEI7RYkbME8+2vXSkcfVqBrNERERERERESTCMJSpyv3t131l2JPoV6cir1RptooA4jkR/f9i9KTqo+7Lfrv3CeDrzckPDgApebbxT/XmJCmJ1+FqLzL2q5tPvHQu/liaeCezEvtWrs9e688tPnKw0bM/5EM6fqLz17SpUvUTFoRlOpw5fpQ6tfy9t43fw4amq6rK9H79IxMZ6xs7N953hNeSHTNO8UaXQq4Y/psLYpw0f/uLM993SnLhv287WsmiZPN+J4m1qXqrplBerMHgcYb44ICF/IwzxK/W6z7x7Se1eEBEREREREdGoGMYSFbHnn3++JGIE/koK47NqZZ6FAhSNxtDbG9LlCnQo2GY44q/XXPO2H2YyjmdOyjPCNtZJ4CPqzxXIAjW/utT4nlbh7rfUuJ98/zzRjwlqfPTwrFJv+cek4dwMaZytYtCJd6YmZZ+a2N9KB/9xxzVVp823nZu/VlYasFdZlvwLAfF+dVfF8MdV0Npi2fITxhHxq6Wf/KQbgm/de6zWcXA9hPGnAvI8dZcfE6fGLbcCxned9q7Hr3nL0m4QERERERER0QgMYylnHm8+fKEJ7xKMkwXZ1RNp27bu3HOjoFH9budrF1hR619V4vZOFCjdOra3tx/h8ODHuF0Fi3/7gavf9lw6z3/sqFzm8+IONZqr1J91yC6p/ttlGvhKpAMPXTOBsgX/8njbHA/8Gw2J90l9yX+2SbkPhvHF268sf0AIIfVdr/3wXxebwnOzFLhchaoXqk26b/hT1Aa+XwW0X4ya/V9NdN71WHP7fIHYJwyIj6mRzEUWqfE5asqOS0P+uwH851VLZreCiIiIiIiIiAYxjKWcePy1Y5fDFPdDinKMk4TTYwh8z3dm3Z3sJOh0jz3224qKOeWfUL/+gwrcSlHA+vtD6OuLqjzR7ZNK1yx4Whji02uueOsryZ639aQ8V9j4nPr1feoWRO4cFgL/csUs8XWMw4Yftc8vLfX8i/p1nboFkCsS+9S/99b3VPzHcuP/ne83xR1qpl6lNuQVKgg1Th9ePGZKfGrRh/72j/rPRw8fLgmEzDsdKW5Sf4573UzDcfXi346YZV+9dnHZcRARERERERGRywBRLrghEZapQGbBeG8qYFTPNz4S2XfiHaDTVM2vXChgXFfoQazm8/lgDlWz1WHlldKRn//hL3+7dKznbO2Uiwwbn1XLkb70PpdBrDbPkfiXX7bJ92f4PDRu7ppRVur5ovr1w8hlEKsJnGkI++/N4B/+wydwr5o316p7q0YNYiF2SWl/tc+pG+wwzRf2flFKsR65DWK1OhUE3+K1e9ZvPXas4JdPIiIiIiIiosnCMJZyQgU+f0AWSCm7HWk0g0Z46aWXSuHgPVI6K1EETNOA1+uBEEON8aXEFR44t/x469bTOrd6vEvOMGL4mBRYowLI3AacA9SUVat/vvSLE/LiTJ5XWuZ8TL0ZXSYiG3VXkzJgY571xtzF9u4b1Z9vVXNx1Hmj5m2vYeLHvojv9+euW+fWh9h6oO16FYD/mQpuyzAZBEoNGP9gdHku2bxZFlTHckRERERERET5wjIFlDO/3Hv8M7Z0VptCZNyRjy3Fcj0KW5rffO9Zs14FjfDM73acZfh9P4XEWSgSkUgM3d39iVIFw8gvhWF//YarLnvD/UtKY2srrjMENqkt1OQEh0NsdXul08KV6+aItmQDNjZu8wTfvHKNMMWd6nNYjBzzyijOiu3EEutVmBi7aofKuyMO5BOxfvzfZR+5xT2R8cSetvfYwv62ejTbNXdTUuHvKx5Hrrni7Nn7QURERERERDTNeUCUI1cuqbtL/bgLlHXC6/3bYgpiNd0y1jQFrNNyRPHZADz21q0v/b/nnnv4xMOHUV3qxy3ApAexmm7BubjSA12LtzHZgBWrzquzTfFBmeMgVsBBiezDUhXELrb2pH6ClEfh2P+57CP/1w1idZ1Yu9/+lBrTLOSBOuN3nmMaN6tfPwciIiIiIiKiaY5lCoiKzLMv7F6oIq5rUWQMQyAQ8I318D/2o/dL515y5VmVXpwN9xL8/FDhYbm6Xf7oYZk0vIz5PMsk8GbkkG4NW2Mfw7nR7Vhk7U3nKTEHxk7L8P0mcYev13yrCu7PRzxozgsJef22AwcmpdwEERERERERUSFjy1iiIqOCrY8LIRagCPn9PoRCEdi2M9rDf6Y2SNWxns52o7Iqj8GhymMl5viD0LVjfzHaMI0PqGBRGirglDlpFWtKG2WyC7PtQ5hrv45Kp8NtIZuGiCGc37zpulvah0aGBgkRFBL5I7HEdsrPU79lpZY0ERERERERUbFiGEtURJ594dVLhJDX5jNXmwjdkZfP70WoPzLq4ypovi5y9PUOr1DDlleO6PBrMqn5Wyst6M7RRg1jg3UVs1Riey6yzCNjmOUcwyy7FTOdVpQ7nfAhmtE4HGdopm3e2VomHXmxMITffVd5FJXWlWAYS0RERERERNMcw1iiYiKc9VIYZ0IWaxyrgsyAH9FIbKzWsXBCfdWxQwfgVM+CZ2YNDF8erm4XKFGR5pu2Sll6lRB9pz4sDVSqz+D8iYbFBhz4EYLHsVBtn8B8p8UNYAMyBNPtSyxjfjVJ6/f++Kv1MMSevmNPR0/MWXmm5S01pchvf42GI94BIiIiIiIiommOYSxRkXh6+86rVAT7PiGlH0XMbR3r9SJkj946VgfNTjgEefwInN5ueOrmwVNeqQLSyQsT1SsZajJmizbMVX82n/q44XirhJBLxhuJexFFKXpQgl6VnoYwz34D1VY7PDLq1kiYAK+6LVW3M9RyEi3pPioX9J/wn5izAj0VC1SInMdNvsCZICIiIiIiIprmGMYSFQnTEB+AMGYUc6tYTbcmDQR9iEajsJ2x34t0bNg9XbD7emHX1MFXOxfC68NkUYHsTDV1c3BKGPvVx6S/3+iaZ0BUIENBFb5WoAtl6IYhhlq+ho0ADNgTDWKH86vFxK/HJ6woKk62oL+kBpavDHkj+H1DRERERERExINjyoknTspK28YnVaB1rcredK/021GADIESx8EMaeO7wsQPr6wRR1CAnn1p7zuFjF0qi7xVbIJuHev1eWGH06iHqkJZ6/gR2CdPwDtjFsxZs91QVhgGcqxKvcSsU++0jO5SYcgFcMZuqRsPVaXb6ZYHlhvClotu9bN/1OF7zEpEhRdBaSFb1BRY0jARCc7ydNSeDdsbBBERERERERHlF8NYygmVn92morIN7h/xxn4LUYASDTNVEHsuVD64rVV+Y3Wt6EUB2XbgQEB2hC9X0zcPU4ShUk6fCmOjUQuO46T1HBmLIqpCWaOzA0bVDHgrqyH8AbUV80CIHASzEuXq35mn3h2Cx++xo3MxShara8CaiMGrbgEVvLo30a/uS/4eHTX9neYMBJ3DmOA096qTH+1SokedaXjt5Ozzl3RXLbrAMb0gIiIiIiIiovxjGEs5oQKh81BcV9OXSBuLI/1uAFdQYaznZHi5SvkuhZTlmEK8XtO9RSLphbEJTiQE5/hh2J0nYZaVw9C3YCkMbwDCY2attqwU7qX+pzUn9XujPmmZlVJKtwWsDl91Z1s6gA2qqNanbn4RVvdl1sq121ONmtgxtVFOr+Mu/epR+BEVPnik/Uc/Qq8K6exQsfRur/D+sXXm8vbOmUvvUzPkAhARERERERFRQWAYSzlhWbjb40GpyqsuUOFQQOWyhXj5f6marvnq53GV3z2vpnNLx0K0ooA0Nzf7W/vtt8GRZ2OKSbSOjcXstFvHDidVKGupG7pOwvAHYQSCKpytgPD53TIGhq4va5oYL7cTL4ERI3j0+edLTra9viRsVCzQQ/hUHOrRNxGDV+qf4y8zEDX86PFUoto6edpjtpqMiFBRr7pFRABh9TMsSgZ/ehzrpwtj++5524c+MLj8PvzigSoVTxuT1+0ZEREREREREaXCMJZy4prZ4rdbT8pPqxSpXhoI2g7aUGBUFug1LMxxDHTAiz9WV6DlCiHSa5Y4Sdq6IwukMC5TYfFMTDG6Iy+fz4NIxEA0mnkYO0gl/47VA6evB3Z3B4THC2F6VCjrc8sYGG4pAxXO6mDWvQ2UNdC/u6Vd1WurswZS/3RDYfW7Gqe6eZy+7jf/aOtzf2vocgWOPcNpj9SWG9E5JTKyzBCO2yJ26A1hwjo9s1Bpd6oUOD4/dAh70qjBG55FKogtRVT4ERM+ROCHpX7KxIsK0fqH0IweEBEREREREVFBYxhLOXPVDLFT/dgJGhcppXh2x6tnqV8vQlaivsKjO/Ly+X2wVFrv2BMIZAfIWMy9xYl4J19u+Crc9N0tYeC2FTUGqxnocgMDvw3UN3bc/6XjeGHHrjHgXKHiWb8whF897DXUQIaIIRfCRgD9RinK7B70q/D1dfNMHPLUo1dUunVlM2HW+qIihFiRlQshIiIiIiIimtIYxhIVqKZdu+r8wrxGhYXzMWUJBHweWFET4SyEsSOpCNWx3d7kxplH6vSzQv8iJikLt4UH3WYVLOnFq94VOGHMhqXuk+N4/ffNnRvauq8tAqaxRERERERERAUjB12QE1E2BMJioYrRLscUX091+YBAMABzAvVdpwoduh73zMV2/9tx1FyAmPCOK4jVhBC6qe8bKpLuBxEREREREREVBIaxRAVId9zleOTbIKdex12j8Xo98Po8U7QYQ2Z0hipEvHbtRDnSPKpGwzCWiIiIiIiIqEAwjCUqQG2RSCkcXIlpQtdvDfp9MA1uknSnYEH0wgMLE+bEWtTc7UIhkOpNEREREREREU1zTD6IClHMPEdCvBnTiG4Z6/P5QIBfROFHGBMlvYHdQohuFAKBF0FEREREREQ0zbEDL8qZx5qPXmY45nnSECphc1qRI0LIoO1Iy3Kc31Qc3bNv9erVWWhSmF9C4AMCohrTTEmJD9FoFHbWO/MqLh5EEUQfQiiBg/HX0q07ue/IicozmiFxngpD87q9F1I0gYiIiIiIiGiaYxhLObF137H3Skd8QRhyoYD0q7tOIkccKXymEI4wjF+HZ5/zaXVXC4rYiy++WNUv5RrkiCMlDFGYxVl1J17+gA/9fRNvFVrM1DqDoOiHT0YRVrHseF100UWxXzQff0oIcTUgy5FHwhaPg4iIiIiIiGiaYxhLOeHY+CuV910wrAuieciRRKwohHyv4TWfevSw/Pb754mi7bSoH/63qfBskZQT78BpNNK21ZpfuKt+UIWx0UgMlmVjOvO5MWw/dMECZyIVZUzrV7A9um5s/sJYIZ658pxZR0FEREREREQ0zbFmLOWENMQ2TDJDGG84Uj5fzEFsnLFGBbE5WTd1wGtZhV3FQbeODQRYO9ZQEWxALcq6ZMFE/O6/v9mszlg8KSHzt15I5791oQIQERERERERTXNsGUs5cc2Suq/8Yt/xA8KWlxrCzHlv7o5w+hwj8JOrF1e8hiL29PMvXSjhvCdXRQR0GhaLxeAPBFDIdBgbjdmIRiYWRBa7IHoRQLmKY8f/eTU2Njq/+dCff6rb71us/rwUk0iF/xaE+EbA4/8hiIiIKO/Ud3NiN1MKEb/A7NSLsXQ1K3WfvndgWP1DDjwmZGIc+vfh44xXwXIfH3iSfly6P/VrycHLvtzxieGvN3DSVr+yGl/ieSNfb+jvxHPiw4884SvF0LgSb1kO27UePu74e0+8xrDpHzbtGJh2uAOMHNdp82zw52ivN/K1h+ZN4jMY+DzkwERg5Hse/rm504H4BEsxMGhiOoe9LhKjQ+K9jJz38WlIfI6JcQ3Nj/jjifHHJyW+bIjEBzHsfSaqoCWm7dT5Hn/uiOkZscyMnP7h81YknicHlkMxNE+GxiuGyrCJgb9HLJ8YnCHxWRGf30Pvceh1Rsw4DH+tgWkW8fXDnQ0YuQy6ww1MD4Yvy8PXp2HPTcwzfceIeY3TX3/Em8ew9QpDH8fQsjvycxyaL0Ofhyy09Z9oWinMwpFE09Svt+/8G2EYX1K/liEHHMdBT3cXKqsKv2+wcDiKvt4QbGd6d+bVIytxArNhwTv2QI64/Whv19fuXbcgNNYgjze3XQjhfE/tS52NSaD2t6LqC+YJU+KTV5w9ez+IiIgo7waCE7Fu3TqxZcsWGU9rNorGRv3ohmFDbnT/bmzc6P61du0uNfxyqYfbtSv+u3pc3TaqkGWDO474cMvE2rX651p3B27jxvi49W3Dhg0Dgd7GwfHpcajXGBzGnQp3MjbIdeu2uFeKbd681klMox5H4rX06+rxqdcYnOpdu5ap8e5W72qD+x7Wrdslli9fLvX9iXHp8ephTp83G6SeXv3+Nm/e7CSmXb+nLVv0+4m/1/gwy9R44+OIj3sLli/frOeHO3/0aw49NvS68Z/rDP144r0k5l/i/eufevpHe1+J+RR/f24Aq8a9xVi3buT7iQ+3Qa5du8XQ0zl8muKvm3jP7qck4i+1Qb3OFvXe1+p7pVo+3PHG3/9uOWyeQ78XPd7ENCfmS3x+7Rp4z0Pz8NTPLvF34rOIz4P49MTHvdadl4nxb968TOhpSfydsGyZXt7Wuq+TeG8YWO7i419nxJfb+HtLvJZ6v2LgvTqJ95NYzoZ/HsM/54F5ivh0xZfbxLISf54eT/zzjj9naP0Zvn7p5Tvx2eppHD6PTl+uEuOK/52Y3sT0Db/pebRly9DwA6+p55keVn2O69T6tBZ6/VSfLfR8Gbns5XP9b8RgistwlqYJhrFEBeI3v/lNUAaqvqHWyhuQo1brOozt7OhAVXU1DKOwq5TYtoO+vrAKZSOYzqLw4bicjwiC+hz+6AOlEcZqW/cevclxxL+ovaCc1XB2Cdhw5PNSGp/+3Vk1v2kUYnon6kRERPnlBrA67EiEaImgRwcnHR0dxpNPPumosE6HS1L/VA85OujSoU3ib8RL3DmJYC/+uB7LlhEvNjA8ThmHGwgODbVWhUe75UBYKtRwcvfu3e7j+nf9HBXoIHHfwHTJxDQMjGRweuLvxR1+RIijX1+PI/G+Bl4nMR53vHpa4mFqfPyJYU55/xiaxg3qfW0RiWn893/fLWpqlsn4e4+HiMuW7VKvO/S84dM0fHrU56B+7h6cLyqoc7Zsic9X/dnEp8Md17D5t9YN3PT98WmPfwYqMMbAuJyBkFCHkYPj1tOaeP3h81QPqx/bsmXL8M9wcB4Nn2cj598GRwea+rUTzx94Cej3Hp+3ifcxcplKDJ9YjvQ0qffjfhbD53liOhPTnpgvo8xLeeTIHPPyy6udofd4mfrtqcHP7ZRlaPD++OvGxx1fRnbJoc9u6Pehz2iDk5ivQ+97aLoT03vqPFPP08OMWB9OWaYN/XpPPnm5od9HfJqXyUR42ta2XPz1X8fXjaHnuycA3Pdz2WWX4amnRr7fYZ/n4Do8fNlTYb1a/y/Pw/rvhvXu8jk0Le781OH0YKg+rFUv0ZTDMJaoQDz34s632RBfExAXIEfiYexJVFRWwVPAnXglRCIx9Pb2u8HsdHZS1uAkalQYO0aAnmYY+1hzsx9G+UcMx7gdkOcgB9QeU0j9s11Yzpe7ndlPrDtXTO9aE0RERHmQuHQ40WIw4dZbb60vKSn5JxVyXKv+rAIRUf51qm3Wo/39/f98332VB/QJjWGB7PAyFAxnacpgB15EBUIa5iUqiK1Fjukvs1isOPIxr9cDn883vAbUtFQiemEihom6ZunSSG/I2Cyl88/qz+fU6bgsNzsW3er89S+EFH/vPz57K4NYIiKivHDrUcYvEW4cuMR5l7jjjr9fX1paul09dhMYxBJR4ahS26WPqe3T3jvuiK3XLWr1nYkAdiCQZRBLUwrDWKICsO3FA1XSdlarc305LuYa/w6zLQvFwDAEgkEvPJ7pvanyI4wg+pEN686t7T3mDT1se+RtDsR/qN2bo6eX7h8PscMQ4h7Tlo3vPrv2mdWrRXEsZERERFNHohyBe/I93rKs0a1r+c1vfrPe4xHfBkNYIipgajv1lSuvvLI+0apfnVAyEjnssDyWV3hT0Sv865SJpgED4WUqeVysvmECyDH9JWbZNoqFLqfg8/th22G3zMJ0pM4Fo1z0oEdmJ6u/edGisFoOfv/EayfesIX1XdNjvtmx5Wq1dFysXu2MdMahFyM1YS2GxLPqtPXTPo/xm06Yx65bUtMJIiIimjQDl/AmelV3byrAGKhpuUu0tbWJYLDkn0BEVPiqgsHghqYm/FlDQ4Peljkb4r36DWzmpJjuV03S1MAwlnLmzl/2XSQs+3xpTp0zV46AbcLe8Zkrq3cgi7wQF6svlhmYJI4KY211M00TxSAY9LmteSORKKbrBSol6IUfIbcjr2wYKIh/RN8OHJCvvBY49JCIGKUwvIscG+cB9ptUBrxIHdLNUwOXquFOqv2ewyoP36ee+ppjmju8MRxxSsNh//z53asFW8ISERHly7CaigO/b1Q/G+Xq1Q1GT89ZwjDE+0FEVAQMw3if/lnz1zUSTY0YSF/1sYs4pYYsUdFiGEs58eXHO/+PcKzP6UIYU6kPRNN9Lwbu3Nr12TuuqvwusuC3r7xSZ1vyner7Jef1YocrpjDWELpcgR/RmAU5TTvzEnBQgQ60IYBsX5mzaJEIqx/6dlLd3lC3p0FERERF4dRmYiqIFY2NwLp1a42zzqoWc+fO1Y+zPAERFYuqmhoYbbuXO41olLvWbhZbtqzT9w926oX4ARHryFLRYs1Yygm1gXwnprb3IksceM5UifV8TCK3VEFs4h1CTSbdmVcw4Md0Fm8dyz6xiIiI6DRDocTaXaJx1y4VVKyF33+u0d7eziZkRFRUqquPyLOOHBFH/vIvTbUpAxpH9HLBEJaKHsNYypXXoGtKTkHSQcyUxqvIEmk7i9W8qsMkcsPYIunEa7hAwAdPkbTmzQWPsBBEH4iIiIh07cRhf4p45zaNonH5crnWvWsLfvWrZ2QkEpm+O09EVJTmzp1rdnR0uNu4tn/frQthD7840BjoqJAnmqhosUwB5YRtiu95pFMmIWqnUmeH6p1Iw4OjRtT+DrJg586dvo4YlhgSMyd7NunOsPTNMIrnnIxpGgiW+NHb0z8tT4fqjryC6EUPKmBz801ERDStDe/MJtGJl75/1661Yvny5eLIkSNi4UK/iEZ7pmeNJyIqWi0tLYO/19Q0Sh3GisZGoWth602evp91Y6mY8WiecuLvL6/Y0/jAgX8M1lXMQpY6HCoEUbtfWqGZbY3rRFauFW/vs+d5fJ7lKmULYJJJ6bh1Y4spjNV8Pi+86haNFleZhWzQ+x1+EUZAhtCHchAREdH0NjyIbdQtx/S1vFgudu3apXbwlqvff4e+vnOYWBBRUXnttT5RVdWrt2VYt65RqLNM2ILlciB/1Zs8nmSiosYwlnKm8eZFukOgQ6Ax+f2BeTbsMyevmefQvrjecXdUGAuvF8VEh8fBoA+WZbste6cbEzG3dmxI/euAVx0SERFNZyqAHdGJTWPjWtHQ0ISzzjpL/vrXu0RtbZ2YNetETs+8Hz12HGVlZSgvKwURUTZEo9Vq29aLhQsXuq38t7jbuV0jSrPofwZORrGGLBUd1owlyiPbidVBisWYJIYx9P3lOLpubPG1LtVnQ3VnXn7/9DyXZKj9kIAIwceOvIiIiKY7d8du48aNA+UJdqkgtk3dGozt27e7A0Rq+tRjuemaQIewn7jtDnzghvW48n0fwrcf/C6IiLJh8WKPUVZ2jlFXVyf27NkjG9rahO7Ia+3atQMHtI1s8U9FjS1jifLkieefrxSGOF+dzavApBGDl7Ppk4u2rhurfjeKrN6Obh3r96s4MmbBtqZf61ivCmL9CCHsVrfI7me3bds2T2j+0tmG4zlH/blIeMy5ajkpNyDapLCPQZj7ov2y+drz6o6DiIiI8sXdAYiXJoDULWT15bzakSNH1I7eKrz5zXONEyeOiDAO5mRH7wt3/qsbyN75+X/Cnr378K1N38HKC87DhSvOBxHRRB1S//lbStHT0yPKy8sltmyBbiGrA9ktWxrdg8CBY1vB1rFUbBjGEuVJCSpn2XbsQpUrTm4SqoNXGf+ucmxHhZkWjCIrVaDp1rHBgB99feGBcHn6MGGhVHQjJEtULDv+csPPP/+8t71qfrUVQ53XNN7pGGJ11HEuMoB5iesmpO7kLf4bhDTcZcevXvIXzccPGY5sUnc9FYsZT5UFvW1P1Vd1N7J+ExERUU4lOu0aqE6ggtiNbr1YFVC4j+tWsbphbHt5FDPLfChvQ068sONl3PqJj+PSt1/i3h7b+qR7H8NYIpqotrY2tf2qFr2Iytratxqh0Ct2Q0OD3vDpDgod3UmhHk5t+/Sxh2AgS8WGYSxRnkgjXG3AWIHJzmIhBguL6Q689M1bhGGsPgjRnXnFojFEohamGz8i8IkoYtKvY9KMnqt3Vn51oLW2zRHvFtL5kOkRVzmQXh20yjRHpQabLw3xUfXrR71e2RuORb73lv3HHv3xq4d++4E3zW8HERER5YQOHOLBw9B9uqWYCi+EbkGm/7766lqjufm4nHnJclFT2ZeT0nQ6dP25CmD1zz379rutZM9aMmnVt4hoCps3b7axf/8xW/0qDh06LisrB1rHIl6SRf9Ugay7LQRREeKCSznzxMFji52IM18Ypp3O8DJmh+1z5uy8RogIpjh9Kbi3ska9VeMRTPJ62HHypApgh8LLktJSlJQUb4cL4XAEPT26dez0a5DZhWq0y9mwHc/tR3u7vnbvugWhVM/ZuVP6jgaPn2054uMqll+nFr8aZI1sU2cZ/tMr5APvWlq3D0RERJQLA/uOidPrQiTqKO7fv98IhUIiGl0oamrKjJZoSLzznErPpk2bupBlzXv34Y7Pfd4NYbX3XHU5/vHvPgUiool6//vXVx622+yTPT1OoK3KqaxsdQ/2Fi9ePHjQp8NY/bOxsTGxMWTLWCoabBlLOfHEvmPn2RGxAcI8W52sSquXKOkx+7H32E8379z5tXXnntuLKSw6Y4bfL81V+TiTd2p5WF2mwLFtGKaJYqRbx/r9FiKRKKZZtQIE0A8v9LmL9Bq8bJPS8/reE5cYjrhDrXENamkIIqtUsCvk31rCqP3ZniP3vvesua+CiIiIsm1gj8etPYXNmzeLLbqW4pYtYtWqVer+5aipgTFzZkj4e4PG8ePRnOxvLl1yJh785tfcULa8rNT9m4goG06eBM4+o1Ic6qlE1dJeHDy4WASD+6U+4aQDWbW9kyqMxYYNG9ya2WAQS0WGYSzlhGXjL9Tu4Qfjf6W3XXQLwAhzcWVg1h+ef14+c9FF6YW4xajcNP1OTJ5XCE3T3VIFUtcFLc4wVnfmFdCdeUWtadc61udWjA3BNtPblPc3t51rCqmCWFwhIHK1/a+Q0v6QCSP8891HvvKeZXMPgoiIiLImUTNW18wXYqPYvdvd2RYNDQ3o6TkLy5d36HqL6r6z1K7mHsyfX5+zXc5jx467N8yuQ09vnxvKEhFNVHCO1ygv98v583vMtrY6ieV9EvtXobx8j9Qnn/TVAMPqxQ5dJsC6sVQkGMZSThiGCI6rlaKUc6Rt+For9+aktlWhcKKegIpBLzytmeokEGLkrNVhrKPSc3iKr25sgs/vhT/qRTgcnRadeUkVnUekX8WwpYggvcatTzcfrekX8kuQ4kpdsRg5JarVftBHPT4z/PjON7787nMXnAQRERFlTTyIFfry3BH3h0Idore3193BPHoUCMyrEJ2dncg2XZrgC3f+q9th13B/sf6j+PObPgIioglR260TM2bg8P6Q4/PFS7NsV/81oBy6I69EJ166RMHAdpD1Y6moTOnAi/JH7RzerU5RPaZSI12cVN96k90kZFRtPNsciXtOdHb95pqlS6d23VhpnylgzEcenBrG6p15HcgWe4hZWhKA11ucrXvTZcOLblmN43IejmM+TqIWYRXGxmx/yueGhHmLCmIvz30QmyCq1SK13vAH1v/kj38sBxEREWVNovcunUEkOrPR9GW8+mckEhG6TAFyQAexn7jtDrcl7NfuvRPPbfsFfvzQJjeE/dam7+DbD34XREQT4fF4ZXdPjywvD7rHLrWlpcayxYvdbVpNTY1MbPfWrl1rDBzHCiGYxVLxYMtYyokrz6xt/vGrhz7ml0aZ/tvnJE/6ooYQHp90Yv2lvR99y9JuTHHqe+LNEDIvyaEYJYqzrNhgC4tiZZgGAkG/W65gKrHVYhIRQfTLMvSgErqghHRv6X9Wv9x3/K8cR/4fTP42v8aRzj97ZeV29ftTICIiognTl+E2NjYaOojVLcJ27VqryxKInp4eoTvv0sPMn/8WdAVOoOJETHSGUp+0zcS3H/yO+/POz38Oc2bXub/rn7pVbFlZGe7/2jew7oNrWLKAiMbN7/ca1ShDGzrsmTOrhX38DSfYukD2oNotv6ID2USL2KGyLSxRQMWDYSzlzAfeNL9d/WgHnUZ9S1yer9hztMA1FrNhO45bf7WY6dqxVjDW2R+K6M68Aurd+tTbLYo3pcNVfXOkBzG1aQ6pnY8QShBWb0Pfl/y5tlVZM3/UnY8fH+qeafeHPqM+95q81LUXKFVB+cfBMJaIiChbRKL3cJVFiLVrhz+0HHV1y0VTU5OceW6ZDHi9cmF1SVZ3O1/Y8Qo+rMLWRBA73HvffQX+S4W1jz3+BD78oTXIBt0S99TXGu2+4XTr3EIKhPX0Pv3r58Y1T36u5qV+rxeuOB/jccfn/hn/eMenGI5TUenqAjrNY44XfrS3d0j/2XUidLBDxFv/l7snoNaqjd/mzZsdfXzLIJaKDcsUEE0yddbOo74uLkaeGKM0jZVShbEDrWOLXWlp6aESv+8f1HHK/erIY5vKH19Tt1YJGUaB0HNZt3C1VOgalX6EZQm6ZZWayLk4hHp1W6TOYtSiXwWyThrnzKQBXZN11CbBwXD/FWr/ZIY+aYx8McS1T+w7WQkiIiKasKHOaqTbMlaHEvqvVatWYffuXeq3FsyZExEzo9WiIhYTOtTIpt7eXhUO1o76WJkK/OIhafb2KU+tTauDzb9TAWMys+tq3eksJGXjDEPLy8qSBs+pXPq2SyY9iP3ADetBNBGV6sihIlY+dPzSov/ZhVBosXsVgP5ry5YtcuPGjYlhWKOAigpbxhJNst+9un+R+qqYiTwRYvRzMLFoDD5/oPi/xQwsLa2qvBj+yh85Vuz3sd7OeTIcngnLqnUcuUAdv8yFkHPU+1QBpcjudXtjcNxWr6YbvlrSA1v/hA9qjiM6cHMmsDn2wWi9owF24yiPCWlcoQ6ISpBPUpaEZfRS9dtPQURERBPidhc+rAOvtWtrpA5kt2/fjmXLlqOlpQV9feVGX/lx1JbVi1pvdkPJHz30YNJw78Fvfg3ZdM1Vl+NFFcYmWobqYFa3etV0MPuDHz2C5r37cdaSxfizmz7qTtux461uyQTtqV8/h8e2PuH+/hc3fSTesveUFqp6PN968Ls4pn7q12vetx+3fuLjbl1cXZZBj//St1/itggeTo+7t6/PnabEc9/z7ivcx+772jfcELW3p9d9boJutavD4qeffc79W79OImzV7yURPCfulxhqCZwYpx5Gh7S6Tu+pz9X3r1Tzqqy0FJep19XvRUv1XhLTpsehxzl8HJnMH92St0cF4Z9XIfpfDEyfHu+evftGvC/93M0D06w/W3b8RsPpc0jlOIlYxRwRPdwq/P42GV24UPgOQqptnWxoaND1YvVVAg6IihBbxhJNslg4ehHySNdWHU0sFlOpYfF/l6mQ1S8hP2IK6+tGwP8578yaa33zFizx1S/q8s+b+3vvzJk/MH2BO9Wc2KgGvh/C+I46oHlcHdP8Ae45V5FR+xFdWsAeCFp1uKo71HLru8pKdMkZ6JA1OCnrcELd2uQctGEuWjHPbfnajSo1fMmEglg13W22tLpGuzTn0ecPz1Ix8DL1qxd5ZgLvBBEREWWNCiHcc+iJlrFaNNorVBYLr9cnZ1RWChV4ya4sN42d7FaWl739rfj51icH/9YBXiKY1R2J6ZafuiOxuro6bP7hw+79OuDTLWObVQCoa9jqy/R1CKgDxad//ZvTXkO3tH2PChn1eNyA94ePuPf/QI1PB5L6/j3N+9zQcTg9/m9v+o4bOv7jHf8XL770shtGxp/7iNtAeN2HrnODRx0CJ6ZNh5p3fv6f1Gte4bb81fTzdHCr79fTmugkTb+GnqbEOBPD6Pd9x+c+7w6jn/vCiy+771OHmnqamgfCT10e4dT3cvTo8dPey/fVuHvUuL+sxn3qOPS0JOaPfr3E/Hns8V+eNk4dRutA+HNqfujQVc9zvcOa+AwS70t/DvqkgjtO9brDWz8TYXC7dcL9t2XYQzqIHUYktoVqeWLrWCoabBlLNMlMU1wonfyVAzDHCGMdx0bMtuA389KvWFYZ0vF6YpH5tmHOH94SWARKWo1AyUFRPWOf4zjPOX2hTeGjLSek6S/zwK4U0qw2hFEWNexyw4FXzRK/xwOvLYRPJa4+05Rey3IQMUtn9zoVax2YlXJYh1rxm+GWINABbeJ3mcP2xkLgZTVpo3Z656nynK32cStQAAyBd4CIiIiyJl43Nh5C6Bqxy5atNfbu3SUbGmrVfUGjtQ2Y64mKroIp1DQ++vJ+HTzqsE63dp2tQlcd8iUCSn1/Ish7TIW2f77+o4PP/fnjT6oA8C/dAFnfdMtNHTIOp5+rx5kIeHVHZDrw1fR9OixNdFA2WrmA4fVz//ymj+K+f/uGG0jq6R6rRuylKmCO/7wkHlYOTLsOKzU9vh8/tGnUeZF4f/q5T6lAUwe7iecm3qcOUxPzJ0G/l/u+9p/uuPV0nfpennn2uRHj+PAHrx0IkV/G0jMXD86f69VzE/Nn6ZIzk47THa+axn+7967B8erPUgexuiWznm4dEo/1XJq+ampmGq/3HHFCoTKn0qdPa/RifqhOtKJPqu2dG8jqMgWJsi0DdbQZxlLRYBhLNNmkPA95NFoHXgm6VIHfNylX7uecqYJlfbM8vqE7pdQFzmqlEBeqOfF2s6z0gtJzzvlG96LZ29cIYQ9//rZt2zwtahs5Nxo126xKs6q8xIz293j7Qv3oDSxd3C98FzvCvAB5ps7/vmZZ1qjXHxqOXAhhlOel467TiLyV5iAiIppKdPggTtmhU8GE6OnZL5csWWhEIp2ivLxLIlqphulAaalZ9AGFDh51sKovBHrPuy8f8djwjq1G6+RKB4rJuOUMxphDeny67IIOD3WLTt36NVlHWsMD0PKBMgmjv+ZQ6+JEbVt93/D7U3VS5j63r88tCaCf1zOsRu5o9XL1dOtWqLrkw1jvZfjrJ+abnj/6dUa87sD40xnnqfO/t6/XDWV1kKtb4ern6pbJt6ggeLydlNHU09bW7lQHqqEOZNATDYl6P+ShQ8dlZWWrTLSM1WUKBjaFbhDLTryomDCMJZpEv21urrB7Y0uQRwJub5OjdtYVjUQgS0uTBrbFwpAOvHYMtulRgeUprYGlNNVbnC8hbxC2saR6/4m7HmuWT16zVEQSg6xevVp3iDVqp1hf+OkJr89rvqR+zXsYK6R4sbok1j76g8YC9T7Lp0C/bERERHSaRrF27S610xavGZu4t6qqyunsLIOnPGB0OMCswrhIZkJ0SPftgRakiValOqjUt0S9Ul0ztVztxw4P9HRw+/k77x0MNRPjGE630NTj0JfeJ8aT8K1N30GfCiJ1jVrdcnS0kFMPv1SNQ9OtRHWL0vHQLUb19OmWtjpY1S1yT20d2+vWaP1uvHWpmh493Yn3q19blwbQz9UtTt/xtktGPHf4e9Hv+dT3omvB6teM14LtxYsvvYKVF5znDuu+zxTz59Rxui1qVeCqH/vCnV/BX9z0UXe8e/YecEsWDH+unn+ntuSl6W3x4nrjSKjViUXKBXpCOHTokDqiWeo+pjvwKi8vP+0IJ1FLm6gYMIylnHm8+di9Kg16rzpP5ZEGokLKKCZIbXFLxECyJoX8vu2L3PXehQs7UCScvsg5ap6U5/UKCvUFZRgGbNs+7SFdqsCyYrrOGIqfhGFFYZreka1jh9HX8Kll6u227bzJZ7T/pbrrkXTGXDNnZmtXe98OSPtjyCchDwvH2tX2VE3/aA+rdWQxHJTxgh0iIqKpY6hVbKPcskV34LXL/Vv3Mu7zQZaVwezsBGZUhoVH7SX39fVPidOyiZByOF07VV+qr4M9HUomOs9K0GHgnZ//nFsPVdMlC/acUitV06079TB6PHocc+pq3ft1aQJdj1Xfr8PNRBB86nTpIFGHj3r8iXB0eAdZOgy+bKATLx16lg1rNZsIbxPT/v0fPuwOn+gITY8v0cpW36+n42dqmnTr0uHD6PEknnvLQLmD4eNP9V5OfX09nYmAVLd4TTw3nfmjA91ER2C6rIGe1sR49bw+9bmjfXY0vTUfb5VG7xFHV4xdOHOxCl/ni0OH4pf7JYJYXaYA8YsFEk/T20I2Q6GiwEN0yolfNB//ilq4/i9ySI0/LAU2/fY7X/9EsfSi+OyLO1XgZ+g9kCrkieM46O7uhhUbPRsPBIIoKy/HVGGpMDYcKFXBZIpauEItT9Je0/PinCfXrRN2qvF+6RcdDaYwvq5+PQf5s8WWzmc+e3V1y6kPPNbc7DdR8W21N1IYXdMKtLx7Sd0iEBER0YQMtP5KBLJu61jdMra1tcbQHXitXFlm7N8fUuFF0EBVzFMthLl58+YTmEYSl8znug6pDhL1a0xWkPiBG9aPWks2G5769XNu/dlEnVvdmvXSMQJoolx7741/NdPu6LaPHGmzPR6f7J4RtT2HgtLnK5O1tW1OTU1NIpAdzAEGSriAqBgYIMoBtQ1cjBxTW9+A2t7OffNH/rYMRULA8yY1c4LIM0OMvepHYzE3sJ0qPLYFrxWDSHWtvkRAwPxy4LxDb0cabAcH1I/fqlsMeaCW/T7DMP63VFYdHe3xSK8nqD7FqVEAmIiIiAaJMdKGYHC/u7Ojglk5c2a18PkCsqe3d9q1Ervva99AT08vO4TK0KoV57utWe/43D+7YbY+2GIQS/nyxqFD6PH2yuolFcLr9cn6gfv1dk6XKRhWmmX49pBJLBUNlimgnBCw7pbwzJCQ8wVStzLMlMrVSgyBVyCMr1+9ZGY3isDzzz/vjcA5S027L5/fEnr/3TDHDmOlY6tANoqAP4CpQcIbC8MyPJBm8k2eWlaX+72+f9q6t339VUtmvpFs2H98T/XBLz/e8YiQ4lI1T3N+8mEkYavXfNJyos98+pqhOrdEREQ09SUuyR2rBVhNTY04dCjslJcHjAVl80V/f9+0CmRvHXaJfq7pS+0nU65axWq68647v/BPgx1ulQ/rzItoslWiAnV1pcaelhYriDJEIhGBpUEZOrhY7N69xVm7dm1iuyYTtWLZgRcVE4axlBNXLZn3m5/tfv0Tpt9/lnSkhSyTQpRLODvevWTOLhQJJxCYiRhmiQI4Y2cYY0+C/jKLRSLw+/xTpgC6oQJmrxVFJEUYq04eeNU/fwJYN6s//xmpmFVNwup+QP12q7rNxGSRcg8M8a3wczNeBREREU0rif2zxsZG0dg48rG9ew/K+fNrVSBRI6KVYdG+v0MuXlwNonQxhKVCUDI7KLx96kRSK+CrbJdH/X6pj+R0y9hVq1aJ5cuXY6BUoUiEsOzAi4oJw1jKmfcuO2On+rET5LJtY65boqAAurbXHXglE7OsKdSRlwrCjXi9WCEdSJH8vatPR39Gq7fuPfYfVy2Z3Zps2L+7QnTd+ZO2/xI+b6X6bP9G3TUJzYnFASGceytmVvzvZxrF1KknQURERBnRQay+7RrWNGHJkoUqiQhBt4rti3QJj8fLlmJEVHQ8/SHZUQHoMgVOWxvq1X2Hhj2+a9cuuXbtWh3KShXKMoilosOasUSTxLKceVI6ee8ZS39FGUbyzqykIxGJRFGs+vvDeOEPr+J/HvgZ7r3rO9h3tBtRXyBlEKsJvV0UYoGaBxcjDXdcW3Okvyf6FUPg68i9PhUtf7EvWvndj18k+kFERETTzrCew3Fqy9ghx+H1+2V5eZnoLoqCXkREQ44c6R/c0EWjM92UdSmWIBRa7P6eqBnbOLAR3LhxI5NYKioMY4kmiTCMOoH8d96le1dL1TJWhcawrRhsO+vlfnPm8OEOPPvrPfjWN7fhSxv+C//1Hz/Gr37xHH7/7Mt4veUYYnb6jUiFkDMgzHPTHb5xXe0xeHz3qyd+A7kjYYpPqpPEP2x8P4NYIiKiaU4FFY1uWLF8+XKhO7TZvn27+4CuGdvTU+mgDbojK1lSEmRIQURFZe7c2QIdQEe3X8ZmVosWdd/Bg8dOa+mfCGPVT14FQEWFZQqIJokhxQJHyJJC2Bt2a8bqyziSlEzQQWwsFoNpmihE3d0h7Np5GLt2HcLhN06iPxRFLGoj1B9C2+G9I95b8649OO8t58HjSXOTJ0U1hFz21eZm/yeXLk2rg6xPvyt48IuP9XzOA3lEneb6hLqrFtnzgoqS/ynsaf9V43WLwiAiIqJpS1+KK6V0uyHQu3P6cl1996pVq1Cr9j4OHQLKy7uMQGC+ejRm9KszuSAiKiLd3d2Ilqo0Fha87WWyvlxt26K9wucrG7E9S5Qo0FimgIoJw1iiSaC+JAxpOAuEFGUoCAIeFbJa1th9qzmOg2gkDJ/Pl7Ilba7YjlQBq4WQClodW6KlpQ0vvvg6ml87ip6e0TPJWDR0Wsi887ev4D0feS+CpZk0TDbmniUqF6hf9qb7jL+/prxN/fjnu37V+V1Y4gYhsUaFqOpISJapgNevZ3sao+lX0x9RexMh6TgvGIb5aMzpe+Tvr5nTBiIiIiIkQodGsXbtLjd9KC8vl7p1rP7d72+Tx475UF4PeKuqgFAfiIiKSUVFBewKIHAkIkpnhsWeqAqvlqoHDsa3d3qYLVu2uPVidYmCDRs28KQTFRWGsZRTjz5/uATTmKey375m6dLINR/6UG00JmaIeMnWgmAI3eLVSjpMonWs3+/HZOnri7itXvvVz/b2PjQ3H8Oe147hZHuvmp7UpQaioZ7T7jv2xlF0n+xC1cwqpE3a1TCNOcggjE34zLuq9qkfX2jc1npfSchzgYR5sSFwofr4F0FC7T3IgApoA1LAkFLYwoBKkKHCV9mhwtddDpzn1X2/XdRdtX/dOlE8tSKIiIgo5xId1cQ78FouE4Gs1tyszgLPB2bPVvtE3T2yx9Mh/WY1iIiKiWXFhOiI/65ONDnqgBTzQ3WiFX2DoavuwEv90IGso8JYNoulosIwlnJi8xtvBCsi/sukg7MwbalIzShv++lrJ57u7z821wOnslDKNOsdeMNU0xJLPpwOP9UXods6NleXffT1RdHV2Y/W1m5EwjEcPHgCr7/ejkNvnEQ0amU8vlh09HKqu7fvxhlLFyJ9ospwjFmYgMbVtb3qx7MDN2z4TntFSZWcB5izpemp9gh4Y47st23rpNc0jvQHXnyjcfXqzN80ERERTRuJfbJTO++Kd2zTi0gkIny+BTjpOy5rK1UQyw68iKjIeDxe2du7z+no8MpgcKao9/fKQ4eOS5+vTIezYvHixYOtdHTZFpYooGLDMJZyojoUvNo25N8LIbNZN7PIGPA46JTCXmCavjbDsSukLJyrJ4y0asHqMgFRWD4/vF4vskEHvMeOduHIkQ60t/ei42Qf2tp63A64envCmOg8smKjly948ZkX8O7rr0a61GRUSMPJalOSjR+dqQ+H9O1VEBEREY3TQOtYt1YssBZnnXWW6OnZLqPRWuH3++Xu3XudGcvKjY4OYFZhlv8nIhpTX19I1tQsNb3ePuvkyYBoUSeaWnwH5TL30aA6fmwTNTU1gweOiSsGiIoFw1jKCVvId6st4jQOYuPUt0OV+lK4WH01vK6+IMpRIPQXlZlmHVjL0qUKom7nV+P9guvs7Mf+fa04sL/VrfXa2dGPthM9botYx8leQO3YMUhn9Kv697+6D6G+UNp1Y9VbDagPsEBq/BIRERHFJYLY+I9Gdc8u7NmzZyCYjVuxYqZ4XZ1QB9NYIipCth0TRyMdtqfCK7w9+505NYtFS2srgsHg4MGjrhkL99BWJO5zyxaAqAgwjKWcsKWz1RTi3Zj2hO5J4TnDsUvVH6UoIMJMt2SC1Je7wev1pd06NhyOYW/zcezeeRjHW7vQ2xtBn7p1dfWnVfd1vGKR/jEfs2IW9r3SjHPfcj7SImE4cHj0QkRERAVl4OS4iGcOG7F8+XLR1NSExYsXiy1bdsmVK5cboVAIOKYO9ubVyYqyAIiIikoFMKeuzmhrPum2tPG3tckl0YUihDIVyO53A1ddM3YgkB28upKtY6lYMIylnBCi9mdes/0N27FXYpqy1FeCiImDnbZ4tlTKz6oviJJC+nIwdOtY03Q76UrFtixEVSBrejzu80bz+sF27HzlDTy/vUWFohZCKpCNRmPquRKTVZ4hFk3eW/DLv3s5/TCWiIiIqAAlLscVYqPQnXft2uWmsm4osWTJ1UabCi16esqENaNSlJdFRXd3FERERaUb6LX75MyZs3D48GG0IB5eJYLY0TCIpWLCMJZy4pqlIqJ2FJ//6RHsxDQ2t3N77OqLLor95uVXK2CL9K6PnzQioy+scDgEfyAAwxPfbHR3h/DaH49i+/MtOHqkAzHLQSgUVaGthXzVxrWi4aSPP/PY07jxlo8iHcIQlppD7EyLiIiICk6iVMGWLY1oaGhyL3datWqV2hc7qHbCasWcOXOxv7cDUP/3hft52S4RFZWSkqDo8bbJI3vbZDA4B7pzQixVP1qB7du3621a4ubSx7WsG0vFhGEs5YzaEOrr0fsxze3cudPXGUO1+lrwo4DoFq5uJ17WWHmjgOM4iMVsRKNqGGlgz2t78cL2Q3jttaNuLdlCor98bSuSdJhwfxjHDh3D7PmzkXJ8QAiO3QsiIiKiAjLUcVejmzo0NTXJhoYGsX07sGTJQhEMQh49egS15UGVxXZgVqnJdIKIio4Vi4klSxaLcDgm2qO98B0skyEcFGp7524Da2pqsHnzZrcGXvxqAW7qqHgwjCXKsbawt8LnsUsLrpT4qF9YAv39UfR0hxAK2wj1x7B//wn88Y/H0d0VzluL13RY0X43PE6lecdraYWx6s122xBtyJJHD8sS2fNGVakMlsHvBCKWDBrCMoRj2sL0q5jYCsOQPRWiv2v1okVhEBEREaWgyxRs2eIGsm7L2K4uoKyszLDtgDgUfQO1ZfUCoT4QERWTSMRyqudUY2/bfhns6ZEoL8du7MKqYFD29PSI8vJyqUuziHhvhomDVF4FQEWDYSxRjpU6qIhJlKDAiIGasZGIjZPtvWg70QvpCBw61Ik3Dnbg6PEu9TeKhtt5Vxph8c4/7MQ73ntZyuHUuDr9pjyOcdompSe09+Rsw7EXSUMuNPpPnOmY/iUxac8XNmabQswQ8HqkIcISsRMBiMPScg5GjJK9j712fJ9hWK+HPCX7X3qwqruxURTRJ0FERES5lLgUV8pGqc+rD+vExj3LrmvG+nwL4PH5pKe3T4LdkRJRkbFLY4OthmKxZWJOTVh4DgUFgq1SB7H6/sS2jy1iqRgxjCXKsZg3ViGlKC20Lwk9PW1t/XjmqWYcOdyJI0e73XqvxcqKhdS/qTPLvbv2ItQfRrAkRc/CBtqEz3sEGfrNG28EeyO+C8N7W//EAFap8SwzBM6W0gnG+z4eWg5k4l+JuRLyfAhD58mOYeAEhOe1oB3edclHT7z4+Edb//e3Z9bsbxQMZYmIiKY7MbBTGf+3Ud12QZcp6Onpgc93UEYilUZPz245e+Yy0d5xFMFgmK3FiKiozNY1YztCqK5YLMI9rY6/rVdtx4IIhRaL7du3SBXEutu1xsZG/UOon9zOUVFhGEuUa9KoMAwRLMRL/Ds7Q3j5pSPo7S3+q+J1513pzGI7ZuHo60ex+JxFyQaLwBGvt3cdy6hMwbYDMtDZd/zjhkfcKCB1ifkqfX8mH73QMTBQqwLaWvXrOyTsViGM69+8p+1udf8vQERERIR4C9mNGwWamhoGz/RGowuF318ny8uPGNHKsKh2qmGa3Ww2RkRF5dixkJw/HzjStl/On+kTe6Lx8CoY3K9rZGP58uVi165dciCMZRBLRYdhLOXM5s2bzcrzLz0j3eFNaXX/+gfzOqbaJdkSslQ6sqQQL58oLfGjqqqk6MNY24rCcXSr3tTfw7FoDC2v7ksaxqpjm25hGi+vO/fcKNKkTsYaUav1i4bHuFGNoA5ZI2rVwVatCvTnPNZ8fMY1S+u+CyIiIpq2EmUK4vuWjbpurGxraxvY0WxGJFImIpFKx18Js6enV3q9HgYVRFRcKoAO/bNV3ebXoR5v4NDAQ7pGtu64EMMO/hINn1iygIoFw1jKicd3ti6B1/62FGJJus+x4HXe8pETX9n6V8e+edXs2VOmpwEHssQUpq8QT9iVlgVQqcLYQ4dOopjpEgUyzQK3/b39eOW3L+Od110+5jDqO/y4+ucFpGmnlL5De9vuVJ/1X4qc1QeW5xhCfukXzcfF1UvrvgMiIiKalobChkb3ly1btugyBQP3LYXf3yZ7esqMvq6orC2vFLpl7PGufhARFY1uuIFsm0pjg+1lsr1chVf6ukMVzq5atUosXrzYrZO9fPlyt3VsvI42zztR8WAYSzkh/PiChHEpMubca/aL/1Ub1J3qNiVayJqGJwjHCaAAT9KVl+uWsUEUOysWyagWQG93rwpl+1BSVjraw3pEh969eNbvkabD+058QQr5cSFFbmemFAsExBe37m2NXbWk9gfJBl2wor6vfW8ri8QRERFNcWvXrtWddo247/jxdrlk8UqjrLRfnNjbL+sqC64vWSKi5DqAs6qXiHDYQb3681AzEPItFrW1bY6+GqCpqcnRJ6MS2CqWiokBohxwpNMqIdO+xFsbuLCgNWyYsQ0bNkyZDEnALlXfC34UoNJSPyqrSov+i8uO6jILGYSxXX043DJG31xCdELIHyMNjzVL/y9eO3abhPOnQmKSUm25QN3+Yeue41dsk3LME2oXCRFzBHQzGOaxREREU4vULcDipRKhg1gx1DI27pJL5putbbvRe6hP1tT4eMxHREWloqIC1dXql5nAnDlAJBJxD1iXL48/XlNTozvxindj2OheJeC2lAVRkWDLWMoJ34yKO+3O3nK1n3hO2k+SdkwY5rdnn5i5V9SLKRMgObYsEYYO6grvu0GHsDqQ9Qe8CIcyys4Lhj4Yse1oRpel6FaxbzQfxNJzl576kK3G8/OeQCxlGQBdI9bA8XdLQ3xCffXPxiRSb/U8AfG3kd3HdKK8a6zhhBQH1dD6Ip9KEBER0VQxEEDEb7t21cimpqbBHU0VUoj9+0PO8sXLjA60ob+bNWOJqLiUlMRErLRUqBQWR4+qfGHxfKCqF/v375fl5eUYaBHr1o3dsGGDDmTds1RsHUvFgmEs5cS7ZpUcbpTyz9+899jMdJ9jlc7ue99chNQGdErtMEoYJQLShwJVWRlUX3a+og1jbSsC6dgZPae3qxeH9h9Sz5MQxtAXtvr6ftxbIj6/bv6CUKpxXHZTW23MMj/owDkTeSANXCa9xtu3SfnaaiGs0YZRJwIOqv2RfnUygGEsERHRFJLYX463CBuqGbt0qdtSVvp8NdjV1obyYK+sQhmIiIpJf39I2j0dUh2oIharFuVtbzgIBhEKLVbbvP3uNk+deMLy5csHt4cinsTy5BMVBYaxlDONQuiar22YxtTJOfM3L78ahCMKdl3TYWxZqR8n23tRjOxYJO3OuxIcx0HXyS63dmx5VXn8ToFnHMP57OXzZ+9JZxyRqHMuDPEW5IuUFeqfBuw9+XP116FRh/HLfbDQqd7cHOSbxBEQERFRNgxejhtvGTtUM7a5GZg/H4hGQ8JTHpXlsUrRF+5nOEFERcWyLNHr88o6zEKPOtRpUfd51PYNPt3vSfngNm2gRWwiiCUqGqwfRJRDTbt2BVVOWIoCVllVgrLygixpmxbLiqhwNbOWsVrniU6cOHbC/V19dz+mNoaffc+Zs19J57nbpAwI01imnrkI+SREQ1Q4dWM9HIT/jwZEFwqCeAZEREQ0YcNLM+3atcsNIJqamoYFrvXw+drljMpKYZWVitLSEoYURFRUKirmYob6ubd7v/R6fXJOTY3w+cpkMLj/lJNLjYn+T3jSiYoKw1iiHPJ3wycgC7r72iodxpZNUt9TWaYPRpxYOOOWsZpuGdt66LgFgUdUpPtPVy6pezbd5/a3tFWpl16hpiCvLZ7Vbsds2Na5jx4+POoytnpRdaeaM9sR78grr2wpfwUiIiKasKEGYI2DIWtDQ8OwwLUF0WjU/bunt48BBREVnWPHWmUsFhvYrh3F0bY2GY32xrdrPT2D27tER4bQ3WVk0okIUZ4xjCXKIY8HPilFQTc79XhMlFcE4fGaKDaOHYNtW26PVpnqPNEhn3z4iQfMsPeWmZ1HXs7kuaZlz1QB8HIUAiFW+bpiY9aElY71pJo/KWvg5pL6dEKt3n62jCUiIsqqRrlly3J3J6ipqWnw3mAwKGfOXOaGFZ6eXvV4N4iIiklFhQ5dvbIWNeqvoYprumbs8DIFGzZscH8fKFUAomLBMJYoh/oc26O+FAq+NnPNrFIE/F4UGysahm2Nr+Mx27LF3pea8advuTZ00UUXxdJ9nu6kUzpOtWEYZ6EAOFKsdLz+6rEeP34k+jikOIw8Ega+fvOiRWEQERHRhOl9keF/t7W1jfi7s7PT8Pk6ZEWkXATn+Hm8R0RFR59CKj+jTMRiETFzZrWoH7g/UaZAl2bZsmWLTNSKZRBLxYYdeFHO6B3FjZtaxt0qdEZdvfzkNSKCIubxmAaENAu9gk1VdSl8frU5KKY+vNQ8te2o2zp23IScL8r9s9T7TrujuaYmtUzPK6lVy3cVCoGBRSJJXeKbVy8Kb20+/g0J+c/qDc/E5GtX4fVPQURERFkx0HO4aGyMlynYtatG6jIFPT097uN+v1++/nrUmHdeRHiiXtl9PK8XyBARZaxC3XSvID09YUfd0D0DKPGVyVDooLvdU9u8RK1stoylosQwlnLi7q3HSu/6+Yl3lcyuOhPjFPP0d3350ZNP/t37Z7yOIuUxTcOW0iz0r4UZ1WUIBoqrZayEA8eKjKte7NA4xBmQ/tnq11fTflJ9VcCJRusL5UNVkzHPFkaVPvkxcHB2mquW1v37L/Yev0A9+peYRGqfqEcY+FLznt7nQERERFkx8J2PxkZ9ee5GtSuwxQ0mhistrXQOHo6KoAfmrAoQERWd6upqWDMgfL6A7N//nIzikKisrHQSZQrWrl0rtmzRleMaWSuWig7DWMoJx/Z+RHg838AE2LYVNbziv+/e2vMPt19V3ooipLJYQ1q2KQs8jZ1ZU45A0KuDvaLphtKxLbWMTKBVLHTDWCxwYNcB6b/17khPid/jryukGWVKZ8727dv19nzMGWJAfk4IY5kj5dsxGYToUDP42zHb/P4nr1la1C3ciYiICkmiZaz+X4cRKpLQpQrcx3y+g+qxWlFe3mX4o5UIeX2yooxpLBEVF12moKKjA61oQ7C9TNasXGk8t2uXvQrxDrwSgayU+qTUBhAVG9YQopwQhnk5Js6n9jbfIqUxH0UqZOsgtvBrxgZVEDtzZhkMs3g2CbYVgx2bYMYnUKGOZxbOn782kO5TSrxlHillPi73H5M0zarWVauSfnhXLZndqg7dPqmO2J5ArukgVjrfdQz739539qy81qslIiKaotwgQnfgNbJm7HK3A69jx9SvNTUoj0XF0aP9k3IKuae3D0ePHR+86b+JiMZjdklQHVDE6Zqx/rY2uSS6UOgOvBLDbNmyRZ+ccq8UYIkCKjYMYyk3DHxL7SK+hgmQuoKpxM/KrNgBFCnTCBjqe8FEEZg3rxoeT/FsEhwnNu7Ou4ZTX9sLLau3LN3hLSNiqA+1oGo6SEhf73OHUn54niU1r9iw7jAgfqrWr/HXd0g2LVKeUNPzba/p3POexXMPgoiIiLJtMHVobNSZa41samoauGcXQqGQ8Hp9gwFsaWnJpKQUf3PbZ/CBG9YP3vTfRETj0dZmOWWlpaL91ZOyvX23uz3b6zsodQdew8oUjHiOrhtLVCxYpoByon9uZVPZ4a6POFLUYJykZXUbXt/ev766vANFyjH7TcMyiyKMnT2nCl6fB5GIhUKn68TqVrETqRc7NC650JFGufo17U68itVqISz1fl/++avH/97jM1+FdD6m7p6NrJFvCCnvRzj2wLvOXXASRERElCsqYG0UOozVeYSuGas78IpGo27wGotFRSxySIR6YtLrNSYlofjy5//JbRH7gx89gqd//RxbxhLRuNl2TESOd9hL/qTeCB927Bb0wm0ZizKUl7cN26Y16pNSYsOGDZKtY6mYMIylnGg8V+gmi9t1BwOYgLE6JCoWQdsworI4WsbOdVvGFsWkxuvFRrNUhlSIxZB22i1jDdtnO7Y6wjEK58vegAiX1cxPK5lW65St1stdjz772he8M6t+bXqMj0khr4FECcZLog/C+A9hOT8Oi85Xrj33nB4QERFRTiR6DddBrL4l6Mt3fT59cVmbmK1OtR4Lhx1veaXnjGrkZKfl548/gQtXnI85s+vcv/XPn2990g1iE/cREY1PtzqpVCG8IThhhHBxTY148VCv2zIWKB82XCNUDssglooOw1jKqWIPUycqbDumIcyiWM90zVh/oKCuvh+TtG3ErBCywRCyXv0zI93hbekLG6Y8riYCBcOyW4NnI+0JGlgvdWD6U3174uTJSnTE3qV2Y1ZLyIscR54hdK1jCY/as/EKKXWTGhtC2gJCpeAypg4DX1fDPCVj1tPynDlN1wjBTrqIiIgmQSJ0SASxumas7tAmGOyRXV21Ro0KLfbvD8kZi4OGSjNEd3f29+9069f7/i3eV+9frP8o/vymj+ApFcJ+e9N38Bfqd72j8ZgKZomIxqNkdp1AzxH1WzV8vnb5hza/9CA4+LguzxL/rdHdJiZOUhEVC4axRDnklR5pG+qboUgi6YULZ+L40U4UOkcFobaVnexPBZABlU0uWLZsmW/37t0pi9DGqsrC/u7woQL6TCPSRKsuQYBxumLGjC7148f6tllKs+zwyTl2X2SR6THmC1vWQqDUkeKkKUWbDXnIb1t7L3/T/HYQERFR3kjZKNetW2ts2dIkB8oUqCSiGYcO1aiT7EtEFGGEjh51/FVnZLVTgOa9+9wgNhG6fksFsLqVbG9vLz78wTX4cxXO6mHKy9K+8IiIaIT+YyE5f341jhyJiPLyJcbR6Bu23r6FQiuFLlOgT0LFA9lGd/iBQFZM98ZgVDwYxhLlUBQxmI4pUSQn6eYvmIHf/3YfCpk+62nHwvoXZIvKduvb2+d7gdRh7LGDCNfPwGH16jr8zPs2VE3HIceWvciSdULoFraHBm5ERERUYORA4qB/X758udyyZcuIPc2qqirHNDtUGHuGKD8DwtPfn7WdJl0T9o7PfR6Xvu0SN3TV3vPuK9xAVj9269983L1v6ZIz3RsR0XjMnh0UHR1H1ImlM9DdHRD16r5W30p3W6ZPPCU68UoYaBnLIJaKBsNYohwyPaYDJze91ufCwoWzUPCkg1i0H9kkhTwrEommdQ3fxy8SsV/uO3JUCrNNJaFzkGdCylc9wpe1MJaIiIgKng5fdegw0IHXWl2qYOChpQiFQsLn8wkE29DRAcwyS7LSLEB3yPWJ2+5wf//Hv/vU4P26Puznhv1NRDRRbW2WM2dONXa19chgT6vT1XVIbfOCatt2UJaX17qhqzoRNRi+MoilYpPVS1aIaCTdcgEoliIFwLx51Sh0UoWxVpbDWEPgHJ+vwp/u8DF4u9VX/msoAGoJ22nFnMKvLUFERERZMXQ5buNgyBovURAXiURET0+lU1FeLrK5Z6dbvmpfu/dOlJeVgogoV2w7JtS5JFRXlIvFi88w5s+fL/aqIDYYDMqmpiaom1QnotQJqcbEMTdRUWHLWMqZrcdkrVrCFmESGBFEPSU4sLpaFFQo5XGktACnGIqJO4YJs7oK7//T1XBG+T7zej04crAVv2/aCenkr7GvY1mwrJTVBDIjsNzjCfvSHdz0+U4gHNmlfm1Anhnw/C5Q2sMwloiIaBqJ71s2Yu3aXe5Opr5kNxHI+v1+6fN1mXv3Q87N4tHeWUsW48cPbUK+PP3r57Bn7z63Je6lb3/ruANhHSrr24Urzs/4ebouLssvEOWeaXqlbgKD9hPYHz7stJeXY0l0oUCw1T1Q1VcEbNmyxb2pQDZxsM1QlooGw1jKiSdapS7o8p9qq1iCSSC9bkb3zLZ2+cXVM0XB1LqMqLN0HsMo+DIFjmEg4i+BZfrwlstXYLSTi4ZpoLe7H4GgH0/9/A/IF7dEQbZPfkoR/JNr117x8H/88r/SGdy/94Xu0Nw3vSxM4QiZxysMBPZI2AdWL1oUBhEREU0XgyUKdu3Sl/O2uUGELk+wdOkS9fMVdyCPLyDhhNHd3Y1iliiPcOnb3uIGqDoU1X/f+fnPucHs8OFGC2j1/VriMf38nz/+5Glh7PDnn/qcxPNe2PHyaWGsvn/4dIz1fCLKkK6zMvMM4LA+nO7VVViAVmDVqlVClyjQgezy5cuxYcOGRB3tRAkXooLHMJZyw8A/qM3gRZN2wUD8XNjSmIWXtx2Qm1YvEgURTpkerwPHKfgvBNv0wjbimwPTM3a2WFFViosaluO5J3cgGokhH2LRPuRC1ay6u+7+Rfert19d8VyqYVevXm09/trrr0rH+xKEsRJ5ohb7p6Kh6AkQERHRtJHov6uxsVEOtI7VrcOECijkwYPHUFsL0d7uk+Xzusye4zE5d25dkXQlO7qfP/4E3nPV5fjwh9YM3ldeVjYYgv5865P49qbvYOmZi9Db149/vOP/uvd//stfcYfr6e3Fiy+9gg9/cI07jm8/+F00792HT9x6DF+77y432J1TVwu9Z/WPf/d/8S31+AsvvuQGqXPnzMZTv37ObRF8/9e+4Yas+nV1jdxTX/fWT3xcBbWL8YMfPaKe/zJ0JqSff8snPg4iyozfHzJQXe107Nov589fINqjKoxtVg9Uxq8EGD6s2h4aAx0bMoilosEwlnJChbB6D+Td6pY4HZyrDaMYGLm+sj4qfDj+1G63l/uCYDtex5Thgi9T4LFjsGxbhbICtpqRVsw+bRhhCETDFp59/IW8BbG6xW40kpu+qjqOHZ4phfzhlx9t/fDfvb/216mGD/nsV0osf5OEXKbmTtr1ZrNFLfNtjiF/+r4VCw4jy/S+zEaVyy9safHMiES8XrNGmOUx2xcK2U89WB9tbBRF0ykdERHRFOTmDhs3bhS7dsXLFOiWYtu3A0uW9Lp/+3xBubely6kPdpn9/WVFHVA88+xzbtA53KVvv8T92avCUR2IPvjNr7nhqQ5Kv3Dnv7p1bTUdjr7n3Ve4w33s/3zCDWP//KaPuC1jP6eC14Rr1DC6paxu+fr0M7/Bf3/ra+79+m8dxmo6VNV//8X6j7p/P6ZCYv06OvjVr3vH5z6P//7mv7nlFAaD2R8+DCLKnMfjkSd0y9ja4ffG01hdM1a3itX0FQIYyBoGTlQxkKWiwDCWcmLuLHz5aBuCUuAt+m+1RbSEW/Qli/Tl4QJuCKbG3e1I/NB28KvG1aJgwlhEIiqmK9zgSrdcjqhgtbcnjM6eNoRhoqMrjBNtp1/O5gt48fqeI3jlD83IF9u24Fi5CYJPHj+qf8wyfYF/uevnrR/+zHtqjyUb/rpFizq37m37rpDOcjUf36kWwkncnsqIWv6/bzr4HbJk67FjpXaPVS1sOeOXzUerLjE8cywncIZplMwSTrRM9hrtUZS2XXxj65Ff/GnrcemYJ1UkrRaUeW1XL1EnQrjjQ0RENCkGOvDChg2Nct26tYM1Y1et6hFdXfFhotGQmDmjUsypmmucONFW1N/RZUku9dc1ZFdecP5gOYBEMJpw1kBJgbIU5QISZQb0cxNBrzZWXVn3NdRnkHie/qk+Fff+Wz/xl7jv376BsvJSvOeqK0BEmTtypF+WzPdKHLHQU7nXqff70epbKUMhiL/8y1XYs2cPampq1KZQlyhoHKijzRIFVDwYxlJOnCuE7mHps5jmSj1eJ4JYQX0pRMIW2tt7cOJED/r6Img/0Yf9B47j9ZYT6O/PT4vXdMUiuSlRoLW9flD/8EnIi4QncLP6/UupnnPVkprtv9x38n7HiS4QwjhL7ZSbyL0+dR7iF16/+R+XL5zZigl49PDhEqPLXOzxi7OdXvEmA57zpIFz1B7NIvVeyk0RL1kh9U+p/5cw9X6OI7uFiL0G6f2jlMde2brPfOWx5kM7r1k6v2DqNRMREU1He/celCtXLjci6rRteQ3Q23FIVlb6i7pMwaVvuwSPbX0CtywZah2rSw0sPXOx2/r02PGh8HV4EKuVZVizVYeqTz87VLFqz979ow6nyx/s2bd/xOtKFce6z//1fnztvjsHa9uuXHE+a8cSZaisrESUxiB6EFInm5YYe6Jv2J5or/D5yuT27dv1CSh3uIFasfpqgcHfQVQEGMYS5VCX+i8oShyZ36+EmPp6OrJvf9uMjpO9ZV2dIXHw4Am0tLSrILYbsoi+rnJVL1brPH4UtmXD9JgB6TjvvHeb/Pptq0Vnqud5X+/6X2dB6b+r+XiH+vafj9yKCcjnHTj/dvnC2t2YgMd3t80RIXml9Mp3QhrvE9Kp1m3M06yoUaES2ovVz4uFG9TKnabhf/Jnu4782B8IvHzFmTO6QERERDkxEDqo3xqFrhc73JIlC0VbW5ssL/eZL6nTpvNrqzHLQlGHsbrMwLc2fQd3fO6f3QBW13/V80CXG9BWXnCeW5pgdl2tW9IgVY1W3Vr2vn3/6Y4zUXIgQbeE1cGvHl/ZQNmDhDIVwD629Uk3iNXlDnQNWjdsVa+vpykxPbq1rg509fTo5zCIJcpcb2+/9Nd5RXV1hWhv3+1gIHwNBvfrMFYfwZ5aNxZgEEtFpKi/mIkK3TO/f3mx4TPvUsHVBzGJpMAxIaG70tU1BY6ov/fe+cWf/s2RQx1vtSzHQBGS0sHJ43thR0PIlT//16+jYsZM/WrNtsBfffaqqv9N53mPNTdXAOV/ZgjjDjWhs5E7TztCbrxmyey0pms06uDFePzAiaWwnY+rL4Ab1V11yAYhbDj/f3tvAljHVd/7/87MXXQlXa2WbNlOLDt2FiuEBIedUrsFQmkLodTp/ie8sjwKJUlfX6GvpVGgtIQthKUttH2E1772EbdAWgghgcbsS2LiJLaz2HHkeJMla71XutvMnP/vN8vVaHwlS7KWe+3vx76auTNn/Z0zc2e+c+Z3nINkGP+uLOcfr7t8zbMEAAAAgEUnNIGXEn+JLMiKAKsyGXFT0GmsX59Tw8MJk/iKpNNpjrGYYf7Lv/zdENU4IowGk3YF7gGi+7aw0BqInzKq9dLNm8phxN9r4HYgCC/fo+GCsJKOpCeTfW3x3R1InGw2O+17NF9B4shkX9HtAIC58Su/8tvtdhPZ8cQabQ+O2pnmvDP4SNaRkbEiyIprlt27dzt8HqRbb73VFWHhNg3UEhBjAVhCvvOTRzeaifjtfKDtpKVlhD8POVrvixl0UJNxLGHQkdxY6di3v/3lMf6Rcq5+4Z/cr5V+FVGVzyY2A1ZhkkZP95FjL50rhTf9yfvp4q3Pk9UxTc4H3/va1o/PNa688p+YTL6JlP1n/Ez2Mlp8vqks+8+uu2LtHlogIsTe33fqhdo2/ojL+Fre0kSLDF8B5fg66J+VGfvEdRtXPUkAAAAAWAqUjIyVFRFjd+3apbZu3WoUixuUiLGJRMIU5/cp0zQvblwbOx/EWADAhcNrX/v7q1RbzsqdKDgNDc2O66YgldKJI54Yu2fPnmBelvIoWf+tAQiyoCaAmwIAlpBYPO7oJXhdgn9nbP7zsDKNH3Dqj5ec4jPKcPqbVMvg1c/vzigZpRhi27a3x0uKkqpGhVihWJgg7di0lIz2nwzE2EZFxpW9D+q63h0qP5e4r1+3bvLBfQNfKaXME0TOu/hi4Be0TPd57pzitv5/jtKff90Va8/JNcG9Tx7fbBqxvyZDv5y/JmgJ4A6WYtvt1Jad/NrTJz78K5eufYIAAAAAsGjoso8pJRPXuNd227dvp0wmo4tFb7BNsdis2jr4CelzWb6qGScAAKgtMtRYalYnRgZ1JtNM3W1EMjlFTw/R4cPuOU/JBF78ICqIABEW1BQQYwFYQpyEow3LcBbjp0GT3q9If4dMc6+2jJ9qbQ/YMTuTzucLL9u2zZrtKWAs1pWynFyslsfCF4sToZuPpWFkoD9YNfkGZ01DcayL1+f8uv2OKzv5joe+fe/Bk48ph7oN03y9dvQva4N6uHXmLH5yW4+zoPkDFk3/wyT9g7pY3bGf29AyQufA3ft0wjBP/Q3r8a/gr3FaQridWvjPb8TJyLEt3v+6LV2DBAAAAIBFQc3h2Xomk3PSHSkj1ZU0nnzyJEQKAEBNEYu16Wx8XFMn37hkRsrnsMOHD7vru3fv1jt3Tn/5VNXuuCNwAQIxFiwZd+/bl2hMdtXRBUzJHkslSnljrj8LSjusZIl2a2S0Us8ZhiGuBX6qLOfh488ceO6GG24o0gKwrLEGMhILPt5jcZPaOpopny/SxPgk2ZZDy0mpmCPHkqov7b3E0PGj5XWtndVEhkzINW/fp774KJ+H+PP+7x4Y7MrG7WtNTS9ylLrcILrM0TrN1wvcNwyumB7XjrOPLyD2UMzYa+r4o4s5Cda9B4eaTGPwDu2oX6TlQqkkt9Y7uE7j/6F17+uVmiQAAAAAnDOBz9gwIkyQ+4LKVr1+fadqby+qIqUoVyg4a9d24Z4PAFBTjI+PU9EeIRrgLymiQkeHomxW53KbVGfn4LSbUd89gZwU8eAJ1Az4YQZLwtceG2016vK/a1DpUrqAsaguHjesS5VjVdyv5IfDKZKhbSK7RPFiluKFcSKz7s8nLrr0rpds2bIo75UVFaUMg4/3Bfw8xeIxuubll9Nrfv3lVCrZ9PV/3k379xyi5aRUmCBnBhsuJiMnT7DQbJEZk0HEqsm2nU5aBF65teMkL/7T/7jIw4r1zT3msR/tKrLIvqT+FxTZ73Ic/Zsr8azYIPU29WT/vby6mwAAAABwzkwJseKioJdkagJ5ZXdgYMDdUSgUVCJxEa/lKV1qVBP5SQgUAIAaY5xa+W/d5iaVP+5QcnBQ07EUpZplZGzaPeeRL776b4gq/4PzHagJIMaCJSGWzL+TtPoQXeBog2UwwySjLCRqXi+RYRXIsIsUK01SrJChmJUj05okxdtEoI3F1H8+b8svL5qDL0Wxen5iGFML8FPQsipNV7/0cmpqbXS/v/y6a5ZVjBXPBCVxUWAvrb9YweE8JkZGqKmjQ4zWrEyjjZaIG668ckGjnOfLd/sGuyaLzpu5Y6VWYs5GcVkQj6s/IIixAAAAwKKi9a36tttIyWzi8nXbtm16bKzTSCZzemhoRK+r6zQmKUMNDfV4dxcAUFs0NdGIPUKd6bTK0xj18aa+xBG9jVLiH1ul02nxF6vl/Mef4BwHIRbUDBBjwdJgUA8BcsUv7ehYaYIF2JyKlVh0LbL4Kku74IqySk8XGVl8HHo2feVRWkQUGfX8N7aQ36fCZJFOnxqjDVtKFE/GafDkObkunTcOC9R2qSBuA2ipETF2dKDfFWO5HZKKRMCsbSZKpV9UylxNKzl5m1bX3XvwZAd8xwIAAACLhzdCtpfEb+Lg4KBigcLdXih0qPb2sfLv/sQERsYCAGqLJv43Gs/q8b5M+fy1ubhBUWpA79mzR8ukhXzuk4dR2ndTELhwwfkO1AQQY8GSoA363+TQFXxO3Mr6X3LaPqIMXx2W6PyjgT/T6sq/CNlYMdNfP/JsZ8yabDKtPBm2VH3m3whl0BM7duxY1HfynYSqMyxt0gLIjE3Qw9/Z56rEhmnQjx7YS8uJXcqznr30o2IFEWPHT3t6ofhz5WZakM2qCYNi2x3SKz0kpkk59EJe3ksAAAAAOCemhIfpj1pzuZw6dOiIvuaaHl5P6PFkRscmCSNjAQA1R319SRl5op9l+pz18Yupix8y/Six39ma61HbthF1dHQ4MjJWwobcFABQM0CMBUvCL12y5tvfeGrgPaScizXpabPIG4bKGUqdd2Ks41DK0c60WeqVqXLp008/LzU58FaSB3xzQj1Ci4xhUYp/pUz3qn0BHH3mJI0MynxSmrLjOVpOSizGOssoxo4O9tP5wreeONZuaWcrX6AkaKUxSCYPgxgLAAAAnCP+CDBe3jZNfEilUnrz5k4jm806AwOm2d5epx06SU1NrQQAALXE5GRc23aj2pzuNhxn0Eomk9odGZvYr9PpTi1vA5A7wqlXXLYEkxpiVCyoGSDGgiXjly7r/D4BevrLn1rNz+nq5/rToB31GC06NudvxOkcyI5P0nIjI2LtYn5ZXBQIMnlX/zMH6XyhGIttMTRVxR2Y0urlBAAAAIBFIXBRIJ9du0gms6E9e4i2bj2ic7lOo6vrUhoxLCM12erOSg4AALWEZZVUIpHVmTgpa6BdnUxmtYhX8tBpeshePh+6PmO1r8hCkAU1gUEAgCVD373TNJRexT8JDXONowx70UfGOlp8xtbeK/eWVSTLLtJCR/TOF9sqUWboNJ0vxCi2ha9OGqkK4KujDgIAAADAOeM6SGS8ebt6y9vf/vZtVCxuUB0dHSqbHTFGxjPaamxQc345CwAAqohSqaRi43Hd1UXU7W+Th04ygZesi89YOQfKJF7+aRFCLKgZMDIWgCVktON1aTWabdfiRXdu9GlHnaJFxiRV75CO1ZojHRkV67Agu6x52jYVc5OUSNXTufKg1rHxHzyVstrqGlPx+BqT4tc4RFvI1psNk9bx5UJKK10gR500DOOwJns/N9N+Mqxn7dZ4PnvyZH5nT09poY7oHbI3shibXi4xezZcH7wAAAAAOGfcGWo8NwWuCLF/vzuBF33+83to69acbmh4kR4bO+GOIstkR7SVT0KgAADUFJOTOe04GZ3JWLws6PXr16tjx7J669ZNas+eXQ4Lsf55rZduvZXvoJWqtVtdcIEDMRaAJSSbzcuI2JZ5RHnSUtlFd8rKQmyKF+fkpmC5kZsM2xJ/sYs6l9lZcSfxGj5Nq9ZdTAvlXq2TdGhgfeHQ0JWJ1a2vrCN1LddnMwuvhnuVYPqPbZX/x6ANDjkvkXWlHMtx6JgxXHo4nez87jcPnX7m7meeeebAP/1Thm+45uWvgVO7WGunCf7sAQAAgPOLsJuCwcHd5R96GRl76tQp9zLDKjarVCqrKU8AAFBTZM1JvbohrWKxepXJNBsPDR61+xIDeiv10LZt25Q8gOro6Agm8JIHVBp6LKglMFIJgCVksmClaT5irKL9ttVcoEXGUKpR6dpyU+BYJbJKeVruUZ2OZdHE8AgtBL4GML7Z179RP93/Vr4i+Bsi+06+JPhtTfpSmuPIUC0jmJXq5s7w64r0pxTZn01b9Te//LfffRnNg3sPHkySoeumz7MMAAAAgPOA8sWRuCoQQeLSSy91ZxgXGhsbDRYvnM4OonRjo2posHAtAACoKdY21PN5q5VGRsZ1PD7invPcCbxofznMrl27yudCjIwFtQbEWACWkBhfD2tHz1mMtW16ii+pF/29fId0i1ZURzWEbRfJXmYXBYLj2JQZXpjf2G8+PfA8XVJ/ahrGTXw9cBVvStI5okl1K2W83VHWn997cOCaucaLGzKFskoQAAAAAM43lO8f0fcbS/T000+XRYnBwUGdTtcZw0+N6cxzWQ2fsQCAWkPmHbQaS6q1tckVWbs6OtylTOCVTqfd853nM9ZF9/b2QowFNQXEWACWEEezGKvmMzJWnz5Au2xaXBRp1aJqyE2B66KgVFgZMZYV8YVM4vVfR4Z6+JHsh3j1V/mTpsVEkcGi7C+YRH9231OnXzSXKNnxMaW54QkAAAAA5xXBBF4sxer9+/eXf+s3bdrkrssEXkNDI5rW8AVJupG3jRMAANQS9fUplclm3XOdTOCV5IdMwb7du3e7y56eHuVPYqjEnZt4KiAAagSIsQAsEfvu/myjNvVVStH6ucYxyGzftOlVi3pcbt/em2SRt5GohtwUODYLsQW+2ZiXi9RFytqm7Oj83BQ8cKR/U6Fg/THbeRstISyuXkuG/e5vHuq/kgAAAABwQTLT67iHDx9mseKgOzJWvrc1N6uRkRFqasLIWABAbcH3Vk5raysdyvS5N4R9oX3iM1aW/DBKixgrz6c8l7ELm/QYgJUAYiwAS0TKsLoM0r/GCtqcr4CVcjY2Hh9dVHcCw8PZJkPpeqohHG2TVVr0eczmlrfj0MTo8JzD37fvaJtd0P+Tb4teS0uPuD14JZvnPQ881b+JAAAAAHAhoj3RwXstl8VXd7lnD1EikSiPJBseq9OdnashTgAAao6OjphB/viY554rqjP3d4TPbf45EbMWg9oBYiwAS0D/N/9Pg2Oav84/Cy+bTzx+preloRBfVHcCTlyltTZSVEPI6FSrtOjzmM0JzWJsfjJHxYmJOYV3EvHf4d/9n6PlI6kVvdom/ea7n3mmmQAAAABwoaG813F79a5dPToQJWQCr2JxgxI3BSdPysjYtCqVirx+EoIsAKCmmJzM8XlrhNrb2hStWe1uSyQatTx0EoKHUL29vcHbAmrKhQsA1Q/EWACWgEx29HmGo9/Gz+bmJawqrbbaFF9Ugc2IS3qum4KaQH5DrcIEC7IlWimsYoEmxsfOGu6bT/b/ArfZb/AVQDstI3y9UcePf69vofqXEwAAAAAuOER7ENlh5879Z4wEEzcF7e1FNTyW0ZlMVjc0dGG0GACgxmgiam2l1qZNak1o69atm1QwgVcEPYMHFwCqEoixACwyz9z94WZD0W1a6Y00XxT1WKbzu7SIOFZR3CQ0UK2gHSoWVsZFQYBdLNHk2Oxi7INaxxxDb+M220ArAF9sdJJjvFjcJBAAAAAALjR0oDvs2rXLXXpuCo64IkV/v4yMzStqk8sETOAFAKgtxsfHqbHUoEYOHdYyIWE3ycj/rEqlDrvnuOCNABkZyx93ZCwBUEPECACwaDz8uc/FjVjhzTbRa2ihKOP3Dn31s3dtvv5dR2kRYGFYHh2mauXXyXEsskqTtJKUSjIydnTWMBNPP3dxjOqex4+0Vuw8qjW9pGTQP/Pq3J3cAgAAAKDm8d7G5af/t/W4K4ODg66bAhFkOzuJ4vGEHhgktTZ2StWn02o8VyQAAKgVTHNSZ7OkWzc3qfxxhwodHYpSWZ07IiNjB7W4KRBBVsTYW2+91RFBFpN4gVoCI2MBWERaO3IvtrV6O50TegvZ1ttokTCUmWYhtmYm8LIKOa7+yviLDbBLJcplZh9FElep9UrRFlpZNsfN+IbPPfzwovoZBgAAAEB1I6/jiuYgQkSYzZs3lJ+/d3Z0UCaT0cVi0SEAAKgh3HcUW4naaZX7/eTgoKaDRAcOHNZ8Xiuf5+QU6PuM1RBiQS2BkbEALBLP/McnLybbuIWU3kzn+DPAPyc7D+26877NO2/6IZ0jmnRNuSkoFrK00thWifKTM0/g9bmHdVzrgQ1k6LUr+UaMVlTPD4CvurT9kof56ygBAAAA4EJA+yPAeLWXP/vdjbncJpVI7Oer0E734mRTulEdTnUZlpVTTakEAQBArdCZbDdo5IQzbk3dWR9KHNHbtnnzUgduCrxzoHtOJPiMBbUERsYCsAg88eXPtCs79jb+qfgF/iTpHNFkdJNJ73/yntsvo3OEf6XETUFNjIyVH9FiPkMrjWNZlM/OXI5Nm0bqtUGXsBC74nc2fMlxeZ7yLQQAAACACwIRYr213rLysHv3bvJ8KfZQodDhbv/x4Wd1LBbX7kQ4AABQQ8RiOX00l3MGeL2ry9u2ubhB5XI5tWfPHtdNgR9UXBUY3qSGGmosqBkgxgJwjhz81KeScUO/ytHOb/HVbjMtCrqO/7wwbjX82rNf+EIdLZCdO3eaSqtG/mmqieEQVjFHtl2ilca2bCpMzuy3VmftBv69X0vVgKG7lVVDE7QBAAAA4JzwXBSI8NDrjgyTCby2b9/u7jtwwBsl295eVJs3pVVjYwPECQBAzTExEddXdHSY6VTCOHlyavuBAym9bds2xQ+gNJ/7XJ/ZLMYGI2PhpgDUDBBjAThHjLX6F/lq+CZStIEW9Z111e4ofYNum/g5WiDffepFdZ6bgtp4Z8N1UaBX/jfUcWwq5vOqVKo82UVpotBIju6iKoBvx7aSAzEWAAAAuFDhh+/l9a1biZLJQT00lNBDp4n27XvCacLAWABAzTFG2Wxcx+IZ9+awq1BQ4qZg69ZN7shYfgCl+NxXvsdV8FEAagyIsQAskH1335149iuf3q6Vuo00vZQ/8/XBzDop5fnXZZjX5Q2MUd40Tf1TpK92LOcDB3fdsZ0WQIcz0qgWbbTu0iJPMwu5lXdREGAV8mps8HTlc6Qpbh9UVYyM1VIaM9Emr+eEtzc2NWvCs2EAAADgvCWQHmRkbMCGDRtkhnHV3t6q4smM7u5Oq/HxcQIAgFoimWw3MpmsHhkf1zLSP5lManFTIBN4ycjYwGdsMImhroIBPQDMB4ixACyQRHxwq+PoP2PF9FpaGM8pQ/9fcqx3mpreYGj7baTMT/P2fdNEWUUvMczY+w/++6desu/u3nm5G4g1Tqb4IWGaagCrOEl2KU/Vgm3ZamJsqPI50nFEeK+a0aiKnJZf+ZVbzfC23EiuxP1r5X0+AAAAAGApKE9eEx4Ze/Ag0eDgoM5k8o58z2TiuglDYwEANYb4jHVXBoj6+4n6ZH2LjP7PqXQ6XfYZG4ix4qIAPmNBLQExFoAFcPyrn70o5jjvZBXsF2hh/JdS9Ke5kv0nW379j+7e+Kb3/HjTm275t5+VOt+rHLqFf07+H//6PKN9UZaXP0/KuSFJieb5/MioQqredpyauAIv5Se4og5VC1apSJMj4xVtbcTrxSFRnKoGK3m4bv+0sr5+29qc45Co23hMDAAAAJxfuH4SvdVeEV9VJpNxvycSjVpGxhaLOZUYq9OWVVLHjmFkLACgthCfsel0o6JOvumKJ7z7GX7YlEqlyvc24jM2NDJWwWcsqCXm+1o1ABc8Wvcah75s/T5fAv+WIjXfBxoFh5xvJRzj/d2//p5HojtvuOEGmxffeuKLn3kkkbZeqrTxYpYn13OuA2Qa3y80ddo0D3RMN9TCyFjNImypOEnV9F69VcgbE6NDtft0lS9GjKf6B1i6z3MlUgQAAACA85LgdV0RZIvFrBoclBFlvN58sYqNndZr1tRhtBgAoKYY4391rfVEgzIhYatKNKfU4LFs+WYxOO/demuvFj0WQiyoNTAyFoB5cvDf236DT/d/wELsvERO3zfs5wxKvq+SEBvmije/e+iSX7v5a2p8+EN52/zT0dN1t225/j1fu/K1bx2ezw8Nl7Ger76rfmSsVcqTbRWqYvKuAKtUouzoaE3fvBim+awinSUAAAAAnE/I7OF8jeJ+3A2XXnpp+ZpFRsaWSu1qeOyQO7JscjIGkQIAUFN0drQbmawnvg4NjeiTg4N6/frV7nkueBNAJvBSyntLAD5jQa2BkbEAzIMjX/3Uq0qa/pyV1Y75xNOKnlVa/yMZsf+z+fp3Hp1rvI1v6ZXXzPtpgdgxK0W2Sle7omgXWYy15zXod8kRNwXZ0cGa/lV3rNIRMs0xXp1Xf10SHBojAAAAACwKLMYGPmP5Mm8/Pf300yHXBUQNDc1OsrnDzGTHdDxzBCoFAKCmmOzP6fT6RpU5kiNKraVuepqOHTulm5uJ9uzZozdt2jQtvPgoILhnAzUERsYCMEcOfeXObTapD/IpfivNj8cMW7/bMvOfuuQNf3CMlpMSNbAIXNUjYx3HoVIhyz+dFlUTpULBmRwdqR4ntgugGK87wFcm1eEoTqlHCQAAAACLSG/F5+2Dgw16YmLMKBXyioaHqaura9Gey/9s72P0wds/Qf/4xX8mAABYKtas6VRWqaRaNzepUqlP9cnGLd6+bdu2qWACL+0PidUYGgtqDIixAMyBfXd/oo0PlzdrR19O8+OAodX7RxIjuy9/w3szy+3LhrNLkaJGqmIc10VBqepeLSkVcubwqZM1/fbAr25qPcYn+T5FasWVbkX6xwQAAACARaRX79zpTeC5e/du90IqkTiiC4UJddllzSqezGgrXVLji/hY9uv3PUDf+/4P6emDzxAAACwVk5N5nSsUnJHxcS0TeMVSx7RM4BUgPmNlAi9/RGwwMhaAmgFiLABzoC6WeA1rhdfzVW7LnCJod9Kk+3XM+L1Nb/rD/7j29b2TtMysX39LyjCM1fzTVNWCYrGYI8suUrVhFUux/Ph4gmoYviZxDFL3a9I5WkH42ClR3voaAQAAAOCckQfYwYdop7tt+/btrhBRLG5QLS1ZZ2ysTjcVxFNVK01MnFzUJ94/9/KX0e1/eWvFfSf7T7mCLQAAnAsTEzmdbmxUraUmJRN4Wbn16hA/bMrlNrnnOhkZKz5je3t7I+dEAGoDiLEAzAXb5oPFmYtTU82/DidZBfuMlbPeueX17/4ZrRBNF1GKi72eqhitHbKLk2zZElUh3JTKoJD/tVqkZNBuvjQR57cr53LBoJ9e97x1c/aVDAAAAICZkTet3Flr1G1q164DZ6gPuVxOJRIpPT6e0a3ulmZaLkSM/cvbP0Ff+revEgAALBS7oaRoxFuXCbxkuZkfNh04cFin0+nyeU/EWO986H0AqBUgxgIwB2xl7HUU3ctP207wA7dCdD+LXfIC2ON8efyfLMf+8ehg4n9d9jt/dJhWEMOqb2AZcQ1VMXapQJZVcIdOViMOOcmtW7fGqYb5pU0dTxlaPcAXJxO0Mow5jv4bAgAAAMCiEB4BJm4Kdu3aVd63ZQtRKpXSJ0/ukfd43W0NDdayKRQvuPoq+o03XU//8MV/doVZAABYCObEpLYaS2okPu6e7Lr97Vu3blKZTKZ8TpPRsRgVC2qRmvaHCMBycdmv/+GTz93z6Q8VFX2XtLNBaVrrOJRWhsryeT/Ly5OONp6KK/PgQ9Z/Hb3hHbvmMopWfjTUbUs08vI/d/yvBjun1s7rZ0mX/ywLIsTaVeiiYAqzvr9/Qx3RgWou5NmJm59UJesirdTraJnhzn1PfTx5LwEAAABgUQhmDe/t7VW9vT184bZLXXrppWrPnj3u/tHRUYOoi0SKHZGhseNLM5eriK3vuuW9FfdlsxPuCNnP3nE7AQDAfGloWKPs7LizuWmT6hsuqT7KlsUrPtfp7du3k/iMle9ySoQYC2oNiLFgWfnG4eOXxXSsx9F0CWnVqh2nukZnG6rAp/FTjrb3rW/q2vP8NVOjCS9+wx+e4MWXZP3Je25Px6gp1WyO5/Y9ksvt6O2d0wRJvcd1fWmcri5pupoc5+I/fZJSmpwlEWNfefufNg0++uTlVm5+OqKdz9PEqSHKnhig7PFTZBeWRofUjk1WMUeOveJzS82CbojHHRZjaRGnvlh+rtu46skHnul/n+3QBv7aQ8vHdw3SfzvY3ZIhAAAAACwWrupw6629ev/+uw0ZGPv000/LNnXwoMwbkNTFIqmnxjI67ozQKrOVloJ0YyO97rpXnbG9/5T4jT1FL3j+8wgAABbC+Pg4NaznG/NsQV188Zjel53at23bNveBlIyKFUFWe0qsjJBVyz1hNgALBWIsWBa+cXjwMrLs31WWerVNtJpFzxY+fybIrC6/LsohhxRNmso4fTJz6tB9T5/4PwUnfv8bLu+YJiZd/ob3yvd5CUz/Y59+YW6U/jv/TGw1FLVx3ev5ByO2VC5J4/Wp+KqrLm+brwsAx7JZgC2QNZGjzIlTdPy7e2is7zhpe06Dfeeej2ORVcpXrYsCD11vGFaKzgNefcmax+9/pv8mFmQ/p0hdQksM9+ofc1+/rfWS1XterdTidh4AAADgAscTHW5TO3fuqrC3m9LpCaNpfVwdf66VmpZmYCw1NjbQW2/83WnbMtkJevPb3kVbNl9Cvx/ZBwAAc8U04/roiSMOUTs1N7Sq2LEn9aFEQm9Lpdybx46ODh0aGeveUGN0LKglIMaCJeVzDz8c35he/0rHtj/Ap8nna4NS/KzKKAtwVXa+1J4u2shl7eTlVi7qC5Om8617Dg184A2bOw/RAnjfY7rVidFbOenX84O6i7jqyeX4nXAcx2Q7z1vpNWImf+op3lBPybYWSq/voqO7f0r9P31sUUfJ2laRHBFjq5sG0zQTdJ7w6k2rH7z/8KmbHdv5qFLG5bRUaP0o9/H3O89kfnDt5jVVOTsbAAAAUMP42kMv9fSIGLFTDQ4OujsOHTqi16+XCbwS+tDhQUplYjRumrRcfOnfvuIub//g+wkAABaKTOB1UdNa48T+QXso72hr/Xq1daBD53KkUqnDms95/DBqp7gqkEmK5YToKMzgBWoITOAFloy779bmhnT3zzum+Y98fnwZnyIbXCG2huDzeRcvfi/h6I88cKR/E82TWw/qJifm/AGLsO9khWqzCLG0HIgI6+hzvvIWYTa1qpUufdNrqOslzycjvljPb3TOtgr9llXlrli1qi+V4nXRzcoqcZPqmjt/cn92rrtkzdfiicR/48rtoUVGux/9uKmMt7z2sjXfet3rthQIAAAAAEsB/+z2it9Y98vu3bvd5ebNG1wxYmgooTs7Oqh1UytNTMQWdRhAdiLrjoCtxG/++hvpi3//Wepas5oAAGChmBNxTSNErZs38cOlId3N24rF7Exia+CmgACoFSDGgiUjtW1wExnOR2TCK6px+BnbG62ievfdzzzTPNc4nzqok3mbdihSv8E/D8v8qrvrxHzxjm82wMbXvpLS3etocVD9/Pk3/rncT1WMoVQ965dniLGOYbIaS1mqEmyKj3X09DhzDf+q7vYfmUbiLXzdIu82DnA75OjcGOdrn8OGMv8ybqpXv3pL5yMEAAAAgCXBnzmcRQmZwItIRojJZDbBBF5CIuG9ymuVSqqjI7Go93zf/f6P6Nd+680V94nrgjR/wPIik6ktFBHWZxLXFzMOAPOhoaGkqJUoPp7RxWK7KnR0nCHEem4KessuCjAwFtQSEGPBkiAXiKbt3Mpr19D5glY3pJ3Gl9y9b9+cXls/ZlO3cvTbebWDlhmxv7adRX0nLVZfRxtf/XIyE3FaBE6Wivn/5OUzVMWwFVmMLZ0hxhpkFvnnfoSqBVOPbBdNdh68+pK2x5ObV/92jGLXc0U/zvr997jG+7jvyER1M/pD5iseh28Bx/lS5zkJ78ZT9AFlqOuu27zq/a/atHrhdwMAAAAAOCuB4KC1TOC1X4nvxDNDHaPhsTHe3kKx2OKNjBUfsZ+943b6G/4sJwcPPUPvff8H6F03v5fedct7XUG4FvnZ3sfoO0tQ9r+8/RMLFmTFtcR3v//DecWR9vjkZz5HACwdTSz4Z/XAgOeCJTk46J7HxEVBOp1212UCL3HXEoCRsaCWgM9YsCTc/9SpbmWqN9J5hFJ6nSL9e03U/BB/HZ4t7B8e1EldoBdoU129YhNU2c6iH9+tl22kpo3raOSpPjoHJlnR+1FmNPOjeFz/MukqfoLp6HqDjDPE97hpZEslFi2V2kIrjdbDRtHKLWTm0B1KWbyQO4If3au5zz518nkx07xMkdrqkL6It9dr7TSy0BojbeTYIJPKoTEjZjxDJTpsxeNPTpyaOHTDyy4615G1AAAAAJg7OvCNKD4Te3oOKHFTsG3bNhobcye2UceOEbUVSeXGTjl0ceOiDcAR9wPL7YJARMYP3n6H64dW8pbvIsjKKNwXXH2VK3AG24OlbBdENGxsbHTXH+FwAT/3ipe5I3glrGyXMFs2b6JsNutOPiZir3yXfWs4zSCffg5/Da+HbVBpezi+pP3KV7yU056ge7/5gLtM+2WfKb6MOv0eC6QSV7ZXGm0cjhcmHFfKUKm9grhrKuyTsosdJN2Dhw67ZY+m2xgpTzi9F4TKM5PNADgb9fUldTpTUoM0QBdTI7kjY1NZnTuyic99hykQZAPkXghiLKglMDIWLAm20r/GZ8l6Os/QyviFeDLRerZwZpZSSjnbaYX8iioZ06mWJu+O511G54K8Eq8c9eDp0/+R0Vod5N/McapeOhxttEQ3FuzYpCZ1nKoAFk4P2I49SufI65Qq/PLlax++bsvq//uaLZ1/ljx24L9ZufzbHEu/wy5ZfxB3jP/eaJtvfe1la97+mks6b3/N5Z27fvmStschxAIAAADLi++mwH3ev2vXAfEbG1IgDrp/0+kxYzghI2OHaXIyXtMKxT9+8Z/p5ne9vSzmyVL80opoKnzys593R2mKyCni6tfv+1Y5roxCFUEw7Quywgdv/4QrNsp2EXWFp1m0ldGlwajVT372c/SPd/2zn///nTYaV9ZFpAzCBdvf9/4PlNdl+5f+7avu+tdZgA3Wpc3kk/Vf8Zc8w/GDcO++5U9kVCCd4PrI9ijhfP+Byyf1EU6Gwkv8977/g2e4E5A6is0ESePeb35rWro/80XrL/37V7l8Hy+nK/WWNE/297s2CZD8y3W974HyvqCM0vkqlQOA2ejvz+lYJq47Ojupvb1VBSNjA4I3AgK/2eRN4gU/BaBmwMhYsCQoZbyczke07ioSbaazvF4fS1NCFdVWWiHEX6x2lkaMbd64ns4FpeigSdZPZN1x9FOGktfd1ZVUjSjVopWTPnNH47hh5vqq4+mrfjKukovuv3bHjh0yanbE/wAAAACgSlDeEDAK3CPK6NjBQe9V3kOHEnr9+kGdyTTqNSxgOGlHWdZQTQsUJ/sHzhhVGR4pKkLk7X//GXf9Z6HRr2FkJOfrXvtqVzh865t/x01PhNDbP/gX7uhR4R988TXgpnf/dzcfGdX5lx/+ON387ne42zO+kCtXgTLy9cOchiCjQkWIDEaS/v6Nv+vGf+UrXkbv/fPb6Dd+/Xp31KgImxJG0shksvTn7/0jN7yE+//e9i43nFfmRvplLvOlmzdF7HGKDh58hj77yY+U4wU+fEUUfcHVzyuPln3k0cdcFwSSTsDdLLIGo4xfF0r3aRaYp6UrI3lZXA3S/Y03vWFaOk8fetZdSpgv/+td7rrY+M1chxvedL07AkPykPKJcA5fwmA+NDURpbpWG6m+CWdoaEQP8R3ZFXwbPpD6oeumQHxliyAbiLH+sFiIsaBmwMhYsCQog2p+0q6ZMCh2VjXSsNwHHV20Qmhn6Y7tWH2KzMSc3ObOgLp/z56Pn/bWrcN8P1EVI0znwy9tpiIbWcTYlRcqDWNfPls855GxAAAAAKgNog+DRZQI1jdv3lBe7+eP1bheie/FWmbN6s4z/KGGJ5Ca6+vvkoYIhyKSBoRft4+KhTOJhyKSZvyRqFIGEXHlI6NCt1yy8Yz4jbOIkI2hEbvhcCLwisj83j//AAuqj0+LI3muWbNmWrwgHSnX0wcPl8skXSWcR2CHSvlKfrOlG7ZzMCpZ0oraSeJIWiJeSxrvYyFaBGAA5svJU6cc8RmbSAzpbv5+8OAhyuVy7jlu9+7d4ZGxSmH2LlBjQIwFS4OmJJ2nOFQ8e90KOYMvflZs5Ll2FnfyrjDyO6eMhf/WWcq5P1jfutU5QkoPUhWjtZLz5LQKy4AUg4xjyjAO0wrCLXE8ptXBX922Fq4CAAAAgAsIT3fonSZKRLGKecXCHe+rZo9QZ+c3f/1697X6QJAVMdJzG3DmpFMiGPafmhJuw+sS57Ohiceuef7zyiJhxvXn+i2aD2t9cVImNXv/+/4HveCa53P+a+Yc/1IWNGXkalAvcQtwzfOvKq+/7rWvodv/8i/cCbai+YbjiV/cYF1G3q7tWu2WRz7pdLpczoBXvvylFesdLY+4Mwin+70fTE08Jr5vhUCgDcLJMvDdK3WQeDLSVsTcwLUDAHNBzlrpUkm1tjapdHqz0edv7+npoUwmo7Zv3+6e/3wxVs6BeiFzaACwUsBNAVgaFB3jU2IPnY84xsmzBdFNKcuc1AP8a3ARrQCObcdpibDzebLyBVoQ2vnh/h9/7AfBV755sNasue4n/Ev6Cv7aTVWIqVQ90TY+V+4phbdnYxPP1lupx1msvYb7+8r4Blb64YIuDuDCAwAAALhwmBoA1qt37tzJ1yBTbgqmI9s6qNZHxsooTPEZK64C5CZDRluGX5mXkbMBIgKKyPr/ve3d1MXbZdSmfOQVfBkm+pcf/oQbTkZt/uavv5Hu+MzfeZOBNTTQ66571VQ6oTSF8EhS8T+bbcy65ZDX/d00lTdiWQTQ2eKLOCmjXcVnrJTh5ne9w42fnchSA5chiL/lkk1l36+//+bfjaTl5SvppNONbtig7GITGREr9U83NLjuELZE3ByIeCz1FncCa1avdsXZtDsKtsEtT5CubH8B2zJIV/zySrqNDfXu90BclVG8bttwvxQbSNncunLcwDZij2g5AJgNvs9S1EYUt0gnEindXSQWGIj2799PBw4ckHNfeWSsfLjvKdwTgVoCQ7nBkvCNp099lH+P/5jOP/K2EX+RTFw0W6A/fUK38y/Bp/lHYQetAKXsZBsLsufiS2BG+h/eR0/80z20IJT6y0d/cvv7w5s6O1/zasOgDyhSL6EqhNvxvbHY+KePHfvRGaNP73u6/7d58adcr1W07KiS4zh/mR0q/RMm0QIAAAAuOPz7uF61c+d+Ja4KZLTY2FinsX79al4/baTTKSPWQWb+5KTx4INfHSYAAKgRXvnK325vaBixT1iWnco0Oul01jl27BgLs9foVOqw3rRpkyPhdu3aJe5iRYklz5c2BFlQG8BNAVgStE0PaPl73qF/ZCYmzurjtFSkvKOd7/OvgUUrgdZLdmwPPf4ULZCsU7QeiG6Mx4tPsBB7gqqXxny+o/JbBIbxU74XeliEUVpOtPzTD5kU++5SCbF379OJB4Z18319uuvrJ/SGb5/W6+49qTv+47iu7+3V+O0AAAAAVg4V+I0VIVaW4qpgz549/u4+6upaS8OJMS3TcHZ0tON3GwBQU6xZk1LU2kpDw8O6VGpVfbztUCLhCrGyn0VYN9zOnTvLAwwhxIJaAm4KwJLQeXnng6cPDTzKqy+g8wWts/ys7UuZsbGzzlz/seerif+xT++Om3QD/yJcRsuMo/WS+IzNDY7Q8NN9tEB+kIon9kc3Hj+++1jXmuue5XsKix9oVt05ie92GuuKhYpuH167ufPQ/U8e/wdbmRcbhnEZK6RL5qt3eqGoX5nqXxMb2w/RIvGw1vHT47TBKdK6mKZOMmmtdqjLrKcOvoNrtTVNxOM0Yjp06qXvpmPfeLvuNww6biTo6KtaaRwXPwAAAMDyMDWBV6/q6SG9f/9+tW3bNldwHRvz9pw8eYLa0s0quTZuFMeGHAIAgBqivz+nG9YTXdF2mUokSI8XiTYXN6gcNZIIsr29vYo/jj8qVk6KeOsb1BQQY8GScK1SpQcOnv6ArZ2/ZTWri84D+Az/HVvrB2648sriXMKbsdNHtdW2iwz1Lv7aSsuE4zgxmXWKFhlrIkfPfuN7ZE3maSFwgb531B6qPIpTqb1KOadIq3VUbSiVKqV0bKa5L/7+sR/8+C3XbP9bTc77OPCSl5/tOGQr/YW4jj+wYxFGXn+zX28kg7YNDdI2FlcvYzX5Eu49G8ihZtkf7kly7+e6qdOUN+Mko5mfdWx6+lunaO+3hvWPzUfpwI4dKzQaHAAAALiA8P3G6mASr3Q6rcVNgbe3mxKJp/RwYrPODJx0Vpnm8jwsBgCARWOcGhu61NODfRTrT5D4j6UtRAe+cVhv2+a+DeCOilXqNgKgFsErK2DJSLXo/zJM9Xe8Okq1zyPKMD7TkMjN+XX6j1zekTEN48t8ufyffKk8QcuF7Sz6Qxa7WKLjP/gZDR04SAtC0wkW9X74jl9dW1HJLZX0AdaPx6g6aUjYekab7rrhBjs7WPi6NujjitQILSWacvyA465Uqv5fX31J2znZS1wQfGtA/4aKSbnpdr6nex+n/0a+q5NpfJvPEr2OPzILwy9y3Hdqkz6kbbqzdCXd9OCI7iYAAAAALDXuAFkZFSuv64owEdDRMcE/z+upe32Xe68Xi7Xj7RUAQE2xZstmlT02oWlA3NolvHMY34qKELtnz57yOa23lwCoSSDGgiXjW59dNZGbdD7HItxf8ddq9gk6GzYLVI86pG8dzw/8146NG+c1LDRxBZ2K1dHfOFr/K/9iDNAy4Dj2ooqxxcwkHf/uQ3T8hz8jK7ewUbGa9M+UMp6VV0kq7TdN/RSLgVU5sQSXPWXF7fhsYcRva6nOvodM+y/41ugoLRH86PdDTr74jzvWNZ2mc+Bbp/Rqcuh9jqI7+W7tV0nRuU5vu4r79yv582eWRZ++f1i/nAAAAACwlLiDY3t6evT27dsVf8o7BgcH9fr1HeZ45lnd2io/8dX6vBsAACozfjzjLodiw7q9vVV1k/iMPeKKsOHzXS/UWFCjQIwFS0Zvr3Le8LzVp9KW8XdKG+8gQ32fhapaeoW5n0Wqv9Ix4zc6x1bfN1f3BGF6lXL+ciM9p1cZH+b6v99Q9DinubQ2WKSRsdp2aPzISXrq7nvpyAM/pOJYhhaG1oYyfpQznaGZQpw6df+E0urHvDpJVQbf5zTatjrr632vX7du8kdH1nxVq/hNfHu0hxaXw9qw35WuK/zLr1y14ZxG38pEXCzCvl879B7+ulrrRXNXw92bWvkK6Ve4h3/46wP6lQQAAACARSeYNVyQkbEdHR3lUWKHDnlixbFjg+5EupnnjuoxaLEAgBpjcjKn4/GsFp+xQ0Mj7nlNfMYG+2XSQlmGxVi9BK76AFgq4DMWLDmvuLxDVLyvyef+ZwavZZFvO6tzvNTr+HFAFZ0wtesLk0vUx8tvG00N375uTfqcR7P6DsXFTcF/yOdP9ukXkeG82hCvN1q1sIS1aDbQlmWOHDxyHTkLexvNYYWumMnSxIlBGj10hEYPH3XNcm4YBxxyvvfUDz46q5prOc4PTEP9Pq/WUzWhqD4Wc+JzCdrr+Uv90T2HT/1+wqZXG1r/miZ1iSbdqEglaE4TlKkSd4i8JqdA2jiilf6vupj6lx0b1/bTOXJfn+7ie7deLsdbaSlR9Ao22CfvH9X/8zUt6tsEAAAAgMVEJqxRcpG2a9dtrt/YYKTY5s0iVuRo/XoyBwe9wA0N9RAoAAA1Rf2alCrF+MZovDDr+SssxmJCYVBLQIwFy8prLul4mBcP0wXMR65UP+XFT2kJuGLbzV0JM1E1LiFY+OPHk3q/Q3bf2cKaZuwR0raI1ss22dmc0KrB0Yl5nSvfsGn1KV7889379N2p+MAViZixTVv2C/gSYQOL8I18ByU+V+screMs0tosXuZdAVbrjDL0MeWoRyzT3DORyO+/4aKLcrQI3H1Up1gOvtWhJRZip7iGSvS/vn1aZ5r76JFrr1UlAgAAAMBioGRkrDeJV6+8slsWK2Rk7Pr1L1JjYzaLEnnV1bWaH/s7EGMBADVFE6XpxHODejQ2To2Upz7+Xp9o1LlcI5/PDgeuCiC+gpoFYiwA5xFJFbusmn6R+Oo/Y2t7X36kdNYRxidP3ntkzerrhvm+Yj1VE5qaDMdO0AK44Uolri0e9T//+5uH+jsdW3fz7dN6voro5LuoemWYOXKcwZJVOlGMm4d+bfOaJfEt3FJPP0cOvYOWl19wNL311MX0FyRuPwAAAACwGMjlnurt7VUyKEzcFAwODqpcLqe2bvUm8BocJCUXFJnshN7UCsECAFBbTE4O6HS6pGL17TrT16y66ag/Act+/qTCQeX8pvl8aPAH5zpQM0CMBeA8QhvqeVRFaNIHFKmHDh36dGFOERTdx3+vompCUUrHzu4zdi5c5wmt8lmSkdEzcf+EXqsn6Fa1AuNitKbfS2j6Jq/+OwEAAADgnBG/iMGo2J0795d/3VOplB4b6zRkAq9E4iLd2ZxXsRGi8fFxAgCAWqK+PqVO5LM6NkS0Zg0/WGruUMVjWZVI9LBIOygTF5IvvgZvCkCIBTUFJvAC4DyCL82rSYyV1+8fsxzjwFwjaG19j6qPOsdZHDF2xZik3zQM2korgaI6bdA7CQAAAACLRVl02LWrp6IAIRPeDD81pjPxrJYXfgEAoJaQCbzSpUb3YVMmc8g5yQ+ZaIs8dDqsM5mM2r17Nz+M2unu9x5OyXMqTOAFageIsQCcT2iqIjFWDWhtPHQg/ZM5+7DN5+t+QFWHSpqaalaM3ad1gvvFTr4Ta6CV4+UPDOuLCQAAAADnjAyLlZFgRL06PDI2TCKR0rSGyGIxIxabxIgxAEBNYdWnVCaT1fF4UheL7apbNh4k2rNHPnsqndMURseCWgJiLADnCS960Z+289V4F1UL2jlm6NKjtHu3NdcoY2NfH+GIVTbBm05ps3ZdupwcpB5StIkF2TitHHXaol8gAAAAACwWZdGhp6fHFWT3iErhk07XGW3FZnd7ItGOez4AQG0xTtTWRlQqFdzzWJ/82UK0desmtW3btmkPobyHUwDUFvhhBuA8Ia/sLeLflKqDHJflx9mR4mM0XzRVm6uCGD9llQm8avK1F0fTS/n6ZMX7hWHSKwgAAAAAi4HvNLZXiZuC/fv3a3lllwWKUJBTtG7dGqOV12KxHJQKAEBNEYvFdalUUlZT2r0H6+bP+txqJW4KgjC7du1y1+GmANQiEGMBOE9QZGwlhxJUBbD4d0KR+q85T9wVoqWtuer8xmrLaJQbHqpB+NrkhYZa+X7BovAvEgAAAADOmSnB4VYtk3gJMpmNsGULUaFQUENDCf344Kgt2zB/FwCg9hinTDyuY+MZvWnTxa5udSx1SssLAOl0Wh5ARR8ywU0BqCkgxgJwnuA49hZtUB1VAfxDeKSo9Y9pAdz4vrevS9VXywBfD0c59du371688yXfRL39YR2/8UFdt3OfTizVU9zPcR5k0ia+KkkSAAAAAM4XfMFBuRPY7Nq1q7zj4EGiyy67TLe3F9Xg0IgWn4sTE/AZCwCoLdxnSMNEp3lx+PBzTrBdXgCQCbz4AZQKJvAKwMhYUEvUrB9EAMB0DFKXahkZu+I/QWrcIX3/gYc+2k8L4OLN61+9+apL6fEfP0pVRMPAwMCCxdhbjupUbpLaVLa0xkioNmM/Nau6UkMiRqkmxyj84eOUvemR0mghoU8bTvx0vUPDH3u+mqBzZFMHXUQO1eMODAAAADjvkJ931dPT4y4HBwfLO/r6+iiRSNBl6ZSRiZFqMWvT1RIA4MKliT92uqRW18f1+PjFRh8dcPqOHNHbUil3ZKyECdwUiM9YcVXguysAoCaAGAvAecBlL/+TNJWoU1XFaHdnTGt7Qa4G9u3TiUPWcy+8aPNFVSbG6rpicQOb98CcY7xd63jdfplQzbrYGi5tSpjmZj7jXkJarWf7rNMinxv+nRR/nBidjFnGMaWKR0px8+C7flbqi8esZ0fTdSfu2qjytADsBlplVIG/WAAAAAAsHu67uO6MNYpuuGH/jOrDAH/WitPY8XERK8Y4WjMBAED1MyZ/RvhTT6sok3nO6drUoWKplModaWQxdtAVYb03A3p0SITFGBRQM0CMBeA8IJEvdWsz3lQVzwK1emg0ph+hBXCyceiSRD7R1X1ZN1UThmHELSs3J/OK+4EEFS/Xj5de6mi6RpFxKd8rrdWOjrvq60xo1cXXESzemi90LM4zRoOOiu9vyFgH/mBf8XudPfFHepWyaB4Yilr4kgQuCgAAAIDzDFVWH3bp3t5eQybwCiM+Yzc/P20kMzGy6i1VKBS+UVdX95sEAABVTj5f+IYsW/nf+HjGFViTgyzAplIkE3hlMqSC0bGCPzJWByNkAagF4DMWgPMAw1QybLORqgBHOf9+7Ed35GgBWLa+2jAN6ly7mto626ha4B92FmMLZ/1lFyE2nrR/RSXMP+cLgXcqZbyahdgNfMsUp3mjOvh6YrvS9FbDMXpHnqA30TyxS64PYZMAAAAAcB6i3ZFhLMZGRoN1u3/HD2f0c9mjulgsOj/+8c8+wtcVYwQAAFXOD37wk496vq5H3O+JxJB7jjt05IjO5bwBMh0dHf55r9cVYN2XBQguWUDtADEWgPMApWMX8wV5E608R3Kq8DVaIIbjXCrLhnQ9bbhsI1UL/AMft+32s/64J+P2bxla38Kr25RWaVoEOO8EZ3yZU7L+8N17i/+d5uOY3hQhGRclAAAAwPmG9pUHeUWXBdny9kTiiO7r283LlB5OjOlYPK4LhYLzoTv/7ujQ0MifEwAAVCmO44wPDAzd9OHP/MNz8j3D5y85j7W3t6s+/r6VeiiVSuk9e/bowcHB8j0OP5BSPgRArQA3BQCcB/DV+CaW7RpohVGavn7op58epwWilb6C/1BDc5rWd6+jR763h6oBpXXc1sVZf93fvdf6DQ54M4deGlFcqTV8ffHWP9xv25/u1f9Ivco5WxRDBirDdxIAAABw3iGigwgQvb3RPT0Ui2Vdl/QXd3frVCymR55+mlpZ1HjdDe/60gff+84fXXXt8/5ExeKvVcqohgf5AIALHK2dceWU7tv708c/8qlPffqo2ZDWmVzBScdanVxijIaGhnR3Mun6wd7Dt4fbtm2T+zLtTeDVK+dCHTyggiALagWIsQDUOFu39zbS5ORFvLrSEzVNKlJfonPC6BTtMFVfR10b15IZM8m2bFppWB+OzSRp8k9/bPhR+7dYSL5lyYTYMqpF2+oP3vNrpYS+Vf/Dp5UqzBraoRFlUBFqLAAAAHBeEcz/6cKCBG3fvr28c8sWolyuQZ88cUKtMwwVZyF2cHDIaW5RSoQO27bfYzTUm5O5SWpQynQSCeU4cUX5PFmxksHhValU0o4dV4lEXBWLJS3L7MSkk+B9kod8l+XUtgIl65opEbdVsWTqsbExqmPxpMjp1NXx02E7HlJIvLCcAactwnGSv3OlHC+vIJSXt7c/QNJLp9OqwGU1TK+MEreQJ0pz+KFQGafSKGkJ4+acL3Aahp/GmFsOSStMUBYpp+QdlCFIKxpW8g6WUj43X78MSfJSCcqeiMtzcq++bkNyPmwwrcPl5HS0b19vW51bRll6NjuzDJmMpC22qHPbQL67VvPLNZX/VJtG05B8oxeW0XavZONwWEmhWDR0OA8pk/SnOJdLylIp/+nhicObbnipgNRd9iujpCW+YZpsBtvPv8D7Gt240h+kKQM7ZDIZ3dhQ774JLHVobDANrz1nyttr70TCUZZtO9K3ApsF7Rv0uanYU/kHbZ1Ox1WBV5Rhaq/dgr6d1UHYSnnLPsuedKTOUj/JK2aahjLqtdQlavMgblBGb5vDdjJ00OaVbB1sH89ktRyjXpx6HRwH4TiLdfwHGEVTF40ib2txfallrQlH2jMeTzjxZJ1jjY05xUTJsfh81draSpY/W8bJZFJfkUrpVKpVsxDLNn5ai5sCcdPS00Pafyjlzm1IANQIEGMBqHESuYku/tVepVb8bXT9bd1QfIzOAX6emQ5q0dbRRmu719HRQ8/RSqP4Etm2685w67JTa3PocdpOBv3+0guxflmUTmttvEnvLQ68/WH99c9fqyZnCmsbdJpP8pMEAAAAgPMOz1esjI7tVfv373dFiFwuuCDso8RQh+5LjzltxaLK5WIq0WAqKrpCiiGB46Vxx0yljPw4SymFQcdJJlSi4OicWdDpxkYjb+WJBVtXELNyY1TPD8vHxkedeKzBmMjlw0/LjTq+TBIfj8NFeQYsog7HsSdVyTJ0jAWVWKzOyGSHXKEpyeLPxMioH47lLxZ2rIk8jWcsJ8llSCbEQ1OeYlrSELf7Dhks4OQ4eHNTQg2PjDqShqENLcWw7IRb5xEuo2HUEZfNSTeahmXZTp5VqRyLTBM5yadJJRxD1deb+mT/gN2UbjSkHBI2k7XdOCI8TYwYOs6idInjJxOkCkWtU3V5GhnzyhuET7GaNDHhsLiZ5jJNOFI2wySVybLAZDRxvKK2uC6ylPKKLUps02TCVk7O8MUuRxV1UcdsLq89qa0JFh8lvO24NpD14VFDN6VjButWbKNs2UasFiopo9TfMEosfMn8C5N6grw0LE6bOL3AdklXZDS1YcvSYYHNVhMTOTseb+S0vYYMyuo2Kot6I2OjJHnF4iywjRdF8OTNppb4IrLJNtkveXj2yVOKd0zmvPJLe4uNJc1M1nDf6nLcmnvtIm0i3ybGBrWsS/4sznHb5Z1i0eHvee3F4f7A/c7RE45V5H6asF1RVcqYL2Tk9XaVMOMqFrNZ3CODxWgS2zi6wAItC/eGCIfk1NcX2NZc7qI3VkHKXpyYdONJ+lKu/oGcJTZON3I0u8R1LbntIvUtFm0ddP0Cdwy3D3HZpZ5GIx8X3PZS1lzeq6PUaWJk3N3v1jM3yH24SeX9/VYusLuhJ3IZ8mxmU9C/pS9xrm6/l2MvsJH0PWmblIiadXJsTdiyjZ81sC289pAy8LFABvcwbm2VZBt5xeCych+wnZxjcHNO2qZTKPZraTex48RYkY+JBvdY8Mq3GMc/x5kYKccpZU7roZjlSF+qr0/xiSvvnLbHbBFmV6mUE+OisECrLes4xRONurtYpINyvGwaUZ2Dg+W3A2VkbI+osf7EXbyEIAtqBviMBaDGsR1ay78+LbSCuL+6trq3ONByTsIf/4SWf6RbWYztXLeaqgH+Xa84AdeafYVuMpzf0eSso+VE0cX8aP43EoniJbMFq1tFx/myK08AAAAAOG8QwcF/I5dkRNjWrVuniQ9HjjSKn1gWuY6xkJHQ8mpvayv/YdF10szpYnHEmTg9zBJJPWWzjm0ntT1ajDvFksVaTJ1dKJgsAvEOR9v19fValjJOcGJy0i5xGNZIbIOlovp676OpYOXyBSs7MWnHYnGRO93tZizGApfFqlIDC0NjlsSV7ZKWrLOuyOFjjqzLtoaGBi3xTY4zmWN9lvOzHZaK+HvJstxwrPfYkmapFHMKBRZ6YhLXKxdLp254ySOXN6ySFXfjSR7lenDZZZvkJelK/IkJbXvlqnPrGeO0pE5BWWQpcWzby0fCi3Al2yX86Fi2JPaQMJJvfX27m5dsM117iJ3qfXvV87a045Ut7tZHRjKyMGZ75de2l65ncwnf0ODZcjJXsGQ9qHPQDqZvD/kucYIyy3rCrW/craekIfukLSS+5FHHCl6wLmV16+rbUsRxsZ2sS1tIGsMjBcsLO9Umrv0tr21jXDdpFy9NryxBeil3hKzEyzpSZy/tSdv0+4wsxcZiQ+kzXv+Ju+lKeLcPWV5+bvtynaXPeXnX6yCelE9sFfPL6NnVsTUZbp+acLx+Wl/foEt+WwfpSz9uba0jydOrq/RVsVvcyWS8vmzbXht5fUjK7PXn4ZFTVlDWoM2DY0jKIvskrdNDnr0lbdZa3XaX+G4f8o8R2e6l48WV0cYivEq81ha2o9uvxdZFFtXJ9vqo9xH7ePb1bGeYDd7x2Bhz+4DXNjnb7acJvy25XJ6tvPqKHYL+txjHf6GYLbnHHZeFzzL2uKXt4mjJicXjjjU+YY+NcZp8bkokS46IupnMc3p8vE8PDyd0YijlPbg4ckTT/unnwt6pIbHBEkIsqBkgxgJQ4/CPbRf/7HTQyvI0KesnBw70lmiRaGlvoVVdq6ga0IpMxylNG3rc26sNxzZexlcoVyl+5kzLjdJb+TLnxbf8UM/onmKHUllDkwwttmiFYQPlCAAAAACLgQ7EB9EiDhw4UBYgDhw4rHt6iAYHB51kMuluj7Eid/RozsnlCk5xyLYHCkln2LLtMRaV5JPPF3Rjo8GfRhZwSk66yXIs23tAPjGZs4uljCvUykcEqMHBSTuRZF3IIfv00IhVLCWc8cyEnU4nHHeEYdx2ZFSqvHo8nhHtNWfLCDgRZ7ITZEs6Enbtmma+jG3Ukpbsl7iSlwhp8oq34X8sS9JNsCBleenzerrJ+0ha8l3yHM+cdtPx8hVhyHa8UZzalvIUS7abtreeccsn+yV/WZ/MjVpuOdLeiL0Yh5E6SjoNDY0ssjWyMOqFn8gVrcGhYUvyLhTH3fxFjJJ4jjNkS/4sKXO+WUeWrPjZsl/yyU4MuWlaLDxKmRzZz/lI2lIuWcrIRim3bJelxFWujXxbuMI573O8dgjyD+oqaUu4zIRnB2kjyVvCBm1pumX1bC/5Zie8thaxTOJLG0k8GXHphbFcMdctm9++q1Y1emIhh5NtsVjGra8I+kEZgzi5QqbkCcUJxxPuPPuLPaQtZSl2lvLKemB7t15um3nllj4l5ZR2KBRLbt65fNEKx0unvbCeKGu7/VnKEPQXWQ/yDcoj+8o2l/olJB+vb0kflvxOD52wUikiL62Muz3FG6RecmxIXxW7eseAdzxIGSRtsZfYNO3nn6pLkWfjjGvX7OSI5R0jnu2lX1iuDVhAZ9uJgCrpDY2MWp4tvGNNHpxIGpKmHANSn9NDkmfGLUtwTEmdArvLUsoe2Fb6nGd7r4ySvrTN4h7/LGhLv+Q2k/PNqou921fTNPncw2JrMsnlmtBynpLtI/G4HMtaHirJpF1u4J7pJ0IRYwNBVnvAYSyoGSDGAlDrOI4MH13RkbF8P7CnqJ1+WsTJohJ1Cero6qD6xnpaafhX3Yxuy7+Fmg1TXc43Q820AihSCV5ck6vPtc0Wji/+99GZLsCWHX5s/iwBAAAA4JyZPmX4rdOuvcSfogwe2yKOY5nE0JCmfhE84tpc1aFbWlp4fUIbZozFsaIjQkgskWRBkYUoFlfyZsF99dsw8iwoiSAj3wvaE0tLrkCTbhIBbMwxOGw9X6Y1Nvpx+Hu+MMIiYtaWOCUr49TXT1K+UAilNaJbW5JKttl60hV6yvs5vuQh5a5PTZIrnLkC2aAt6Uq+ElbyHhs/xZ+Mm6a3bZyFwXqSdGR7W2tSSTj5Lh6bJIyElXXZJvlIGhJP0pY4kq98l1elZVmMefWUuFKXYnHMzc+tOy/r6urU6NiYIzZw47kinFefVatEsCvI6/y25CUjGOVtbEknSMMtS2zMz2/MLXdjo+mWRWwo6YpNJFyRBSwJK2nLd08c5bxTkveYG77RFa/zOogrYfP5vGsfsWcmO2gHNpZ4EzkZHe2l5cUdcW0kZQhsJm2bmThtu+k3+uK4376SnmuXkvSLEbcN8yzCitgm4iJ3Kzuwu7RlkJfY21t624M616fqvTIXvDIEfUzKG/Qft+zcp4L9Uk+xi9dOXrpePzTdkaHSpt72vNumQTyvDl6+sj+wSV3S65tBX5F6uWFlG6cr/cori+mW0TC9sDG3r3h9Vewq7S7iqJdWXgfHgxu+seCmKXb1+oCXt9ve5bS8fhFuc8++I+WHFF69xx2v73lptrW2quC4dNuIxVav3bwyBDYO+o+XltcOUr68X8+p436xjn+Jm9cySLp+VQfJ+cbW2n14UEgU5fjg/i99MiejofUQt1tsWITYkyQPlXK5nHvOSx0+PO18J0JsMHEXeX60MTIW1AzwGQtADdO1rbfeUJPrNOlGWimfsZpOc/67S2P2MC0yay7uorbV7TSZXWG3p4riWk8fGZsbp4tIq0tpJVG0LaZSIsYenzGIpp8qg/J8mdJAKwjfNn6PAAAAALBYaF93KF+f7N69W2/bllG0P0cHixvcyW+sLqLV8SFtWWkVy2R1jiOZqZjBsgc186WBzUKI+BFNpsQH54hKJBJGcdTS6VRa5cYLjviQjDXEycnkVU4EnbxpG/yMWvyVFvMsklFchEJiMY/yw3mKGXG3UEVigakUF7+jZORLulhk0aauUcko3InTLLhImKJ3M1pXl1STeRa+8iwC1slLXyycjfHFbX2cJSjvGrDRaNQSl+o870uxoghtJXLqDCXpE5djpDjKNWrgfFhQy2QdSas4Osp5NXAecSVp1VMj5UdZPGrwnrPX8z833YaSmITIr4/Uyy3XJJerXuotIdme8uo21at8vOBI+Hp5Sa0Y931Ylvw6xSlv5BWXUfyqKgnF5XFHGsubVmIjp85WUicpkwimXp1Y5JL4csU2YdLYyLiTbE2wOQyxr64jrlex4FhuHg7lckVtpLKezdh2bHMtbSNXfMXRkhbbrqqvlzpoq2g6so/bzA3DZXSKUl4RUvNZN39pH1mKfaQOUh/DSPr14LxHC45rWy8vt85jJ8ftZDJhcJ1YbDNUoTisG4wGqud2z0+IM1Gu26SM/8qTkeZ0bIPjSx/xXqYTO4ydLDpS5lg8xW1vK7dNuAxcRTVWHLdTTkq55Xbb2pTya2kjqUd9HYcVwVrark4szfmWuPxFv18ZXv6u6MjxpF3cfiZwX/LWPW9kmeKEleL+LnWcHOOHEX5fduvOdnfyXLb6ep3PFLj9OJ2MWRb+XLvXuX5wxfcq58HiqFmwpRwypkPyFvtIX5M6S75S9snSpBxT2so7dmB/6RMixEq7S/cX27rtks/7fSeog5duuZ+KYMrtks+UtNdOnp3zhpef5OE4Y8oQoTbvjopW0rfZlGwvxz9G3XbW7rGakePfVjFut3M+/kdN95xSoAJlJweteEL85I7oeMGrR5YfDiWSBSdVbHXtmcikHDk5nEok9FAf0RVXpKaJrDJ5V09Pj546F5aFWAiyoGbAyFgAapj2wni7ViwKklqxVzL4126/Y+m9hw59etFHX3au7aS2jlZaaVjINLW2ptvYslbzg9hNtIJombjNKl42m6uCnEE/4nAZWmlM+iYBAAAA4JwJXseVuWp6e0km8CIRJrZv367S6bSWV3oTiUYdYwGDLxKJBVZ5/VgfzuRcUcfMxMRlgM6aE9qcZBGk4AlrxqSIXEWnmEg4w0XLybEgJCPWCsWEU3BfrW7SORZ85FNi9TaXy7n7c/5IPQkTfI8lWp2xsYwtcYM44mYgF3I/4Mbh8CO8vWSnPFcFHF4+pZJty3Y376LnokDiut9HvDwkbsxP30vPK5+4XpB9kmbO31b005I03bA5rgPvlzIaQbpx7+OmzUs3Ha5Tacx2w0mdDbNJy3ou59smVOfgE6Qn6yMjo246wT4J79pvzHMTIeFkPcg/55dNltTQSDHf9rJvxLdBUHfZH9jACOfvl83NX+otbdfUVC5b2B6ejfz6cr3c7VIOblsj1GYj/vaib7+Y3y5uGf3yefua3Hgj4faSthDb5by2MULlCNJgGZByp3N6lG0RlEH6gGwPhw3KGtTFzSfnrYsdg++Bvdw6Jr06BmHc9KTvhvqmbJO83Hokkk7gQqGcjtg5NtUGheLU/mDp9t1C3CmXc3h6vwhsGMQNyhfYWmwTbBNbeW45pvqF2CPaV6Vdg76ZC9k93FfKbRz01yB+zGv/4Ngr94ugznGv7c71+HfLb3ppx/n84grN/DH5fJPNTvJ5aFIncgXxZ6tjnXE+V43rodiw66Iglkzy95Q+eJDKrgrkoZMsQ/5ig3s0TN4FagqMjAWghlENiU5+NHkxrZgUqyxl6IcnHfMILQHta9op3dq04s84VeRc+faHj9fbSl/Cz5ObaIXRpnFlroG+SzP4ZH1Dh8rcP6hFCP0dkqvMlUBTX+szrrsEAAAAAJwjgfYgb+fKW7qyvn//fkNGix0+fNgQVwXf//736dAR0lZnp+4qdKh4PKe71vDT2WM5J51OGcGVTZYmqNFuUIlC0hkxLdVUMLVdb05dWTbLCNIcmSa5YtXEZE7LqLg0X1GYrW1aJt1x7KIayhKlXcePRRl/ycJLgkyOK+sSL5PNUpx357PeXOtuWMZMJCg/mXMaZFZ7c2qk4WSxSOmEvKbMETj+EMdP+1cxGU6b9/GS80oUtYxrLHKYuB9W8upa10xZXnrllv0y/tFLIMELd5985zIWKaEDf1RefVLKy1fcOzRqVrPd9UY3Xkmbzc0yDlJ7dU24+03Kau8yKzutLF5ctgOnG+z3CtHs2rKBrygzRbNc18kc6XijF7+Rlyf7s1O2CtknsLOkUyRvZGsw22zRtWtge38b20pGIxb9cF4ZyU/XL5tri6Ju5vyyZkIX3dBT6QojBdNZ3ZlSbD5/e9ZLU8Q221ZiYy5P2dZBe3Vx2tlsTovNi25+XvyM229c65LBYlucbV+Uy1veMsFinNsv3PSo3Lbk9h/SQZuKHeNsR5Nt4faleq/93Lbz22GShUOxK/cXskzxB5tQ5NePpvUfsRUfA6apxN4meX2osU36E7dN0K5+vYP6SHmHuO3Sbt/w+kLG78NeO6eUu0wUlaQXzo8Sba7N8ixOSn+QuEEflfWgDJTw2ifcHsViTufFTn55p/ppdppt3X3cFyezWV2pP8mxFw/VKdhntkq/PPfj322jNKdkJbQxMKmbm5tcJ3Bmm6nFNUHKbKBYxhNi4/G4NviTSAxx3CTRFqJD3ziit20TH7vpGe8IRYiVh1QQZEGtgJGxANQwynbWsVK4YqMzFemDjm3+1+E9t4/REiCvtlyydTOlm9O0oqjpYmwquZYLpDYqWjkZPEAZ6nLDpFlFYcOif+RLqEFaGUp8sfWZa69Viza5GwAAAAACUVbJCDEVvLIbiBWp1Cv05g0bVDevJ5ODrrARH0q4+zKZI072aM5ZFetwhRAZISufeKLOHSErI2VzhSH3w6IVLwv+aLacTvMVUFvc2yb7Jbzsa2729st6vJBwgvUgXizupSHhJH68UHQ/koak6YWf+kg4L0zCDRPkKd+D+N4yUS5bsJS4g0NDzlT+pl8uL09XmPPTnYqbc/d79fH2B2FcO/A+SVOWU+Xk+vjpejaaSjewQdgWXlzPPs1uvpM6sElQ16Busr0wVHTCtgo+YduG04zWN9ge2G16mJwO7O/tL5b3S77huEF8WbaYnm2DcgTpit2idQ/ykLYP0pyyudiu2e83XnkmJifLceTT4ocPyiXbJLxnL7Fhc7lPBvaX9aAuQbtM9ZViuaxBGcJ9O2zTOsu2w/Xz+sxUHby8w3204ISPAVlKnrJs8cN5ZUuUyxRtw2C/xAnsJetTZaz8Ceoc2NzMmXrqmAzS98rvHUden24ut8dU3Yxyfx4qHx/ncvzL+SOekLQntQi8rWZMiwCbS3J8/sj5p5VaSfzEihArk3YNDyf0WupyfcXGWKA/dMQVYvWePXvc89fOnTtpF5/veonCk3cF50QIsaBmgBgLQI3CP0QmKb2OV9fQymBrUk9qZTxOS8i67vXUuMJirHLdFDSUhddCLJ8yTLWWqgFHb/C8g83Mq7rUQ8qg/y2haZnha6Mfx9tYDAYAAADAoiMaBAsS0wSIkZERFn6e1s0DFzkDHR3OsWPHtAgbsk/cFVBnJ5ldcZ3LnXA6Yp06UVfnJHJ1jhmb0LlEwRVnVyU6nHjOE11azVb3lWIZPSsfea1YtjVRmoLtgWgn65JPEDbYJ2FlKeFNFmTc15OzXjoSRra7aQwUynGC+hhZb5ResHTjcxmC/RInSLs4ZNmydEWkAS+9oIxBvrItSK+cL39kX1BmCSsfSUfKLkhZg/hBnAIL19PqwXHccCI++XUN6uSWXV7N5n2Tk7lynPI+P8/AfsE2WUoc95OdLLeFLIM0g2V4n2sTqUPWnJZuEC6wgdQvaI9paXEc2ee+Uu6vB3aQ72GbBuHDdQ/sHA4f9CX5DAwMeW3t2yewR1BP+TSx+hfOK7B9YMOgvkF7B/Z1y+CXJ7Bf0F+C/iVhpU5hm5Tr7+fp1s2d7M6zpeyXNAdYiAyHDY6FcB/24prl/IO6ufb2v0f7nduf/b4flEvyC/fjaX3at3NQNteuvsAe7A+3a9Ae8hH7BeUu91d/XfZL3wiO3YUe/+IGJTiHeO3muUgZz2R0loVYOf/U1dU7oyzEZhoanJFMxonHh1j0zU7ds7juCbbRNFiE7fU/chqECAtqEbgpAKBGefTwxa0pU22mFUP181PI3fse+tBRWkLWblpLDemGFXVVIJ7lwz5j4zmjXseok6oBpTpIWU1ney0n1k6ftE7TL3CAHbRMcF5Pqjh97Du7g/ewAAAAALBIeLN3Ke8tHRFk+UG9ElcFg4ODKpPJ8PY9JJN50ZYtdIzDdxTktd8iDWZIt6bThogf1rEjqjW2WVmxkhrLZXQ7tZFllVSutUAs0JIds1QuVvCuL0ZtshstJS8fn8ye0i0tLd7m0SEK1nOjBRrlf/LdtjgsCy+mZaqcWdASz11mbRkdp8wsCzW5ApEXlSZHc5Rua3Tzk/WEvKLM+xL1SS61XV7aVkEFaUm8trY2yoqQzNs5EuWIRaEYi8/iIaCFpuJwWTisGqMxGsgOOS2JFmLx2U0rk83qls4WiesVZtSLK2Xw4luqmeoo0ZnUQb0kTK6lINsoa02UrxOb+Z/kn3PztLXsF7uI7TLea+KePXjf6GjIVmwXsZ3s50f/ZCZjTqNVp9hGTqIlSRLWtQ95NpS8JE1Zii0Du/NWtxyu3dmWUmexjxueyySjOrPZCd3Y2KAmE0PaTJhK6iX1GSgO+flzfC6fbBMbmI0xJSK9aye/raXMspS4QV0bGxpUYiKpxWZtCTdfR/IMd1wzF3OFtskEt3EyWbaf2FTSnNZ2QzYXwetf9hDbqI1by7d9scWe3v86vbaWert9kevu2pXtGG5HKaf0L7PR9NvRJrFFYCPXzr4NuIwiqLplctvYfV2/4LbvgOTL/+zGgpuHm7a4pEjEZOSnW7+2Ave3xJhsdV2CSLygjEE/l37n1j/rC+bc1q49pY25Wo0NdeKCgHJj3O7t3rFTzNoOtXj1ce3v9y83fszro7ks17/Rs5kX3muzTHbI7YNS5qCubrnYDm6fH016/TqRJNu0VDFpO+d0/LPkJHVNxOpc241lcppFWHIF2HjOdYOQTDTIiGstI13S6bT7ACmRuEY3pw7rbe62p+X8Nv0+R8RYz4W28s6FEGRBbQExFoAapc5UaU16i1q5N+Wf4p/kH9ES09jUSGu719LRZ56jQm7R5wibG9EJvBKJOGmrhfSKeylw0TrWumO3eF4ia6YwO5TK3j+g/4gM+jjX5xdo6TnE+XwsXqL/6t2hLAIAAADAkiKuCnp79/PFyW6ZzItEkJVJbw58Y0D/0i91GgcHW1hUOUjdHR1GMZNxSqV2FYut15mGvLaOFZXZGlOjNC53iLol0+Q6aYql4pqG/QxYGyXf6VB9Ml32Vr+uoUmfyp1SIuRKmNWUIvk/NDxM7aU0S2leAuYoi20tlmrnuDEd11aypGRfe67N3b86mXLTHx0c16tburyLrJBHfDcstZ2xXiKHsqVc+bu/0Stv2KN+yQtbT2mv/OTl1dLSpOT7UM4rZ1CPIO7QEOfV3ubGTZZS5XhuXXJtZ7RDP50mczCmWzaxDSO2c/Mp+WXnIqzOpdx8vDzSru0k7VWr2snKlZSbZ9ILI/aRuKtjq3VTV1oNs30lTde+2RKtbu+i0ZNefcJ1DsqzaVO3Ojh8iOvvpVkqOZxml5eGlKmrjVYPcx79w+5oz5ZNKRXYQMK6duviQg9HKiy2bvPaO3ss59oqaJfAXtNIeouYiHC51FR7ptM0Os52PZZTbhqc92jO7wtio3rpT21ntK3bbySZYa8c6VIjP4zI6rJt+ktumcp9hrfHkjmq574ZpCX1C8rq2rnfa3O3n5So3O/DdZY0kuT12bZ0Gx08eMizW4tnt2RDSfeXTqsz+mVofbXftm7Zkv6xkvP6oNS9JdmkSjnP9vzH7aOybyjpHTfy4ERe8Xe/l/xjI+hffp8bHR1321LahzNw+0lQp+CYc+Mk27xjgOO5/Vrip4kW8/h3l6tiJCKsCLDU30/ykqdM1tWd2KTFpYoIsfIAifwZSQLXK7t27ZJXQ6mXz3N33323/zBKBT60IcSCmgNiLAA1inJiLVrpLbQyDwFH+Cfv+3VOZj8tA5uv3EL7fvr4iomxmtQ0ly6WU4rFyKyrlt99w6D6S9Okdp8lXFsH7R8Zpj/Tmj7EX5dOkFV00ND08aJJu3a0K4yKBQAAAJaGM54K9/b26P37p94n2r17N23btk19Y2DA2UydhogcJ594Qnd1dfGz5YwuFtsVDZ10X6GJZTyfslZbUWVGctp9B0gEF9GoBoiCd4I6qYO/hl3R5ygRT+lMWPnk1UQqRbItMZDy4qZkzp64F24gJ9v06qbVauTQuJuXpDs8PKbNrrg6PHBEd3R2Tst3bCBDic6Uuy3BiWU6c+X97vfIXKatpSY1Eh+fulgL0vKXrU1NymSxOTPg1TVBnhiX8cpWrmciwWmncm74Q319TntbmzIzcZK4sVJcjYx45Q+QdAYzA2Tm4roz1UEnSyeUGY/r8H43j9SUbRPrvfIPDgxQh9lJXG6ZnUqHbS373PhsgxEW6jgC2a0llRhJuSNJpYxcJknHGwVbKrn5Jnxx7EjuuA7aJIpZiqlMLqel3G2rW914wXe3HZjYcEJbuaKiiL7KoptuP9Km3LZZT+X0pezlunPRW1vZfhnPfrIvweG8vuDVifMjDkvm+ni5LwX1ce3C5Tij7EGbHvGXuan2C/pJUKZwHwnaoLMz0peD/rR+up2C/KN2dfOSPpM67sZx1337Dw+MSBzNfZl6OnvcfNz2HBikcH8RuybaUkryk3ZwbS95x0ixaOkE/Vj6X2LcO87Kx4JbZsuzX7huQdm5Pnw8UeZITpfbJ7BPqM5B/OgxsNjHv9RV+u1gfMj1C9t18cW0d++Qvugi1nEvu0wf+/4jrhDrT9jl+omVB0s+moVY9y2AkK9YsbUKJjUEoJaAGAtAbaK0YbUqMi6mFYB/9gYcrb//6J7PT9IycNHmi6i+sZ4vaoZpRVBkTt/AV8faMqrlh9+xbGPksHnWwlyrVOlhrfcMDbEYq13/sdvVYv8OaOrj5wOfZqn631/XpMYJAAAAAEuGaBFyPSKTeHm+Y3v5p73HXcprvSxkiMsC1+NiLtGoRbRK1NfrwZYWZT3xhOruTupCIaFEmJX0RJyNsyhbWl9U3mvDXVQqFb2pTP3LsGEa468Jd72trVmJgDprIWMyYLGonnoq47ReljZEkDkV66fVw2soM5zXsVjCTVvSFUTc64qt9/IL5TttG9EZ+6NkiNP2yzlVjmYViErDfWOOuz+ahv+9XE//e5yStFqmahjmqx3eNvjUkI51JFiMZduNEHV0tLvXYoODQ7qrY70K0hgfzDsdHd7cAyJ0u4KUn+YpYjvE3DSn4lFlW0v9JTzHL5fTFdB9e0jdwm3B8fS0PAWZaaLfz5e/BEsJK+uujTOkpSxSHxYR3TTL4YJ0Qum66cT6tbSnEIQN193qZIF/OO9c0XaZm960PtR5Zh8K8i/XhQVn7idnXuty3dckVlN/7NRUG/q2LacbattptojJy251FOtPTJXbb4tovy73Pd+uks76REIf6/TTGz6z3DL5FO9TEpfTcus70DaoxG/zqWHPRhLe6Sgp46m4I/GCNgu3X9CP3WOFl2vWiO/n9dPqG7R9UL+gDcp9O9THg2PvjDCh/iHtJcfh6mBqkgUe/zLitRQrqjUc/PHH+Xyytou3niTzFAvQFw0R35PQ5s1JfUz8wp46ReKa4MDAYRFi3fgixIrrFVkXNyzkPmRy9Vd3P0bFgloGjxAAqEG2bXt73Iq1vYW08zlafuSV8y/Vm6W3/ehHd+RoEbnv4Kkf8+LF0e3FQpE+9b5P0oE9+8uzZS4z9xkT1u8ez3x7SL688zG9zdTWXXwBkKIqgC3yF6eeNP9t1w2qOJfw92qdTPTTJXaM3sI/Am+lsre2c0L8ONzLn7+3bXrwujVqggAAAACwZIT8xavpoiyJL0Xav3O/6unpUfv379eHDx923/LJ5XLl+79icYOiLd66CLPU3U3dvN7Xx+JTVweHO+aHK7JYm6h4AeaOrHU5yR9PaJGw4TjB+tGjRKtXT60HyKi4qbROhlKX0btDOlqGoxz5Io4ky9WrV6vp+barU6e8OEG6kpesR+sxlV8XhfMNyhfED/K8+uqrlYzik++rV7eroGxBHsG29vZ2FYz2m8rbyytqm+m29LbLMqi7rJ9i4Soof7AeIHkNDXl5njx5kvWsU1psEk4nqJuMhpYw4W2SnpRbbBa0zVQ5vO3h/Dg+53Wl4ZXNq2/QB4LyzlT2aJ3D8QL7BTYK7BZth8BO4baafVtXKH2vPF77TS/nVN+a6qNBGmK3oD2DfKJ1iZY/WibJi5Nx7R/OK6hb0GeCviXphNtmqsxU7ueSnrR9YMsp+08PE23zaP+O9qtwXaI2jTKX41+QCQS980pBnZTJBPlLLBbz92/hOPygqIcodfhwOY64JwiE2F09/ICJT2yixAZG1f4JkCDGghoFI2MBqEla64mcHloZxvlX74HFFmJnI5FM0CU9l9ChfQepkF8BVwVaGw7Z583Dq9cpVeDrlyfuP0W9sXr6qlWgX+NLmfdovbDfBI77H2ycL1Ad/ajlSRq+9lpVIgAAAAAsKeEJa4K3dYLRsb28vpP/7d+/S4uvxZ07dzq8VNu3b9fiS1ZE2UTiiKYj3uVkov6FupMaWLBlkeSKlB6krKaDg2StX69YSdEyym89x+nz8+smCck3ky22421P87YsyTJ27JiWeLJcz8uTfvzYySfUULpbS9y6Oi+MpCUyjuy3clnlOakMyHKanoPRwcFBJwhfV1enOU21ebM7j60md57QNB1z80tyHl6cIN1YMqcGxQ8lE6Th1iHJdeR4fRw/lup063fML3OMkw7iyGvTMc7vySefdDZvXu+K1n27d+uyeC35xLjmaRaZuLxP2rZTVzdIJ5NeOq6kxXl1+3UTe0i8IC/XpixOdXd366m6ptl+g9qrL3lptbQ4dZ287gvqkobkxRFE7OJ6p2kzf46lUg4dPOjVtW8fSTmlLVjccsO49uobcrdvTkv5szrGNhs7Nuisf8Ur1Mm+Ph1z6z5Idc/bQkkWd/ukfG6m3TTUt89x0xx80hHbSLt5dkiK6qa7u1fxl6xbzxinn+Swg9//vmPJhF/dbioU89vqmNvuSddOYymZKMobtlzXwrlzHaTuyeRUm3nhcyqwe5CW1HXaNj+c1zeS5HWVpB7yu9dYqsXx+luS+wELhX46Ut+0xONyHmNhW+zINuPyJd2e6AqJ09Kf6mNSfiuXnrpfkPqXj4Un2f7r1Vhnpw7axu0bIkpecYU+mc26eQhD5PXLus6UTnMZg/48RN5x5ObL/WmIqxYbHPTqzt/L9vft0H3ZKr1P0h8b015/Gisfc0G/7PbrFLSTK5Ju9sowLfw5HP/uqFf3GDlIgy1btNxsHKqv11tFfSXxeHeExLc1HZ7yDysEQqyLPGHyxFf5FgyNxcBCUNOgAwNQg1xzzZ92ODH7K3wEv5yWHfVDVV/45b27PzlKi8xMI2OFx378GH3+g39HE+Mr4IJU0beI4r918uTXTsvXWh8ZOxP3jejnmza9TDv0In7sfBVv6uC7sjivG+S4Fz422yLLn6dYuP0Zb/uBHaOfvK4d7ggAAACAFcIdGSY6xW233ea7KnBdSrFA26vcIbLC/v1qJ3mT4IjrAtkkoqz4ZNy6daeRSh3Wudwm5YkjHsUNG9xwh44c8YUT2ZZViSONWpbyXdaD7eHvwoYNa9SRI/1njgANpRFNK9gWDhvsO8Bl2+yXKfo9XM4gDdkffJd9Ema2egThJM0gvhDNM0gjSCccZ6a6hssaDR+UIbxdbPeNI992v89k/yB+kHa4/mGbBGlGbTtTerPlE657pbJH+0C0H0j4LbSZDtKhinGi9grXPZp/ECZqh8B+kme0D0TDB4T7TbgcVIFKfT+oU9hm0fJF+1xgt2h/ih4bM5UjGj5chuixErZZuC/N1j/Cbbuw4z/LbSDHXSC6BvRQcL6RZbA1EGJFhN3Fy95dMiGhp8P2Um85XPCWZPhhFAC1CEbGAlCD2PFSI5GxdWWepuh/XQoh9mxcvPliqmtIrYgYy7/5Jp1HI2Nn4rWt6lFeyOdvudLqWxlqs0q0xnBoFW8bMw0abG6nAfE9SwAAAACoBsIT2OjIZs9fgagZu3a5Aof4XRwcHJSJvSSA71PWE0Q8YWTqOfOBbwzobeJs9kBK1Cp14MBhvS1FOkeNriDTwxrLYY6zZ4/s3uTG33NggNw4zJEjRFMi79R688CAQ6kBDrCJJI39+1k84rS3bm0si0GBSNPTuIn3e9+3cdn2cJm2bvXS25ZK6dyRRjcvSSfBIo9bpsMDjpTR3Z8jN82tvgDEe0nKcOgbA862bQNcR89mkrdsk/o3pwb0VHzO64gXxitjz7TrQakLhyMa8OKExSWJG9THzX/gsCPbZP3ANw47kme5vJLPgZQO8h4Y+KGzs6dHHT7M4cjLU/JnNW2anQI7eHbpOVMM5TQT5NkoKuq5ZT3itRs3h5tvsE9sIflI/aRNXZtzWqltnv2Cerrx+LuUwbWB39ZB+ps2beI6/JDtuqlctsaefmo+PKDdeoVs69WFv3Oi0tZu23KeQd9z++bWqcFkQfsHZZE4UgaJL30vsHuQr7vu5ydxdm4SFx5U7hfSF6TOUVul/D4u/dpdpmiakCjxmrkvXcN13e/bTvrW1tz0+skxUql9xKbR/iLLoH3C5QgfS+7GI1NpHqH+6X3XPzam2ZcLL8fEVF+aKmP42Js6Rugcjv9N7ojXXG6/X2ZvhGw6Pai9EfCHZXJBevrpp7Wcj/jcVC4viRDLJ6+d+3eqXurRYQHW9c2yMm7rAFhUMDIWgBrkede+71WG4TxAy8+A4xgvffzhDx+mJWC2kbHCx/7oI7T/oX20/OjvsB67s7//G+7UoefryFgAAAAA1DQqJFqUN7LIYeza5U7qpYP1nSF/sizOlgPLqDT5LkvxMysjZ1kwKe+X0WsyolbWZZ8sZX8QTsSVPaLO+PtlAp4gfEAQ7+1vf7sSISa6fyaiZZmpbLJkcced/EeWlcKEyxYuj5Q9CBPUJfzqdLju4bpFv4ftFF6vtC8oazj9aJqBaBWUN1yn2Ww0W9mi5ZqP/WcrQ6V6ziXNcJzA9uH+FF6P9kNJo5Kdg/Wo3c7WlwLCdqd51iFarkp5Bu0elDHoD5XaMNgW1GsufU/wBHERTaeXJ2zPaNlnKvNCjv8o/oMg17+1nH+i+3e5f9zzVbBJh5Zhu0CRBTUNxFgAapCrXvQ//5ci9SFaZvj6/u8fe+gjb6cl4mxi7Nf/79fo3/7ubloBvutovfPUqfsH5AvEWAAAAABUMdGRY8FEN+69n4yOlQlxdu7fP+O9oDuK1l8Pi7VCINjSHAj8Pp4tDRFoAvcJwXcZKSdhovtmiuNvk4WbZ3RfOM+51OHSSy9Vwag9SStcprmmMVM551uecBlkKSKXuKSI2IzC4lelNMNlmUv5A0E7nKYs59r+ldIIpyVuM/wwM/YFiR9+aDBTemGibTdTecL7o+07U7vNRrid+KuKipFz6QuVtgXr0TaeKW54X9g1iRDYhs7CTOnO9/ivdK4JHgi5694GR3xduw4Jet3PtNGwwVxdespvLAA1D3oyADXI81/03q/wdeb1tJwoGla28aa9D394Ny0RZxNjD+0/RB/67x+gFeD7LMa+CWIsAAAAAKodETGCV3l9AYMiAob7RUSPAG+1113p9R017vcFFH8CsBnz4/3aFXj9ZXhbpXB0FqLh5hpvsQjXN1q32eoYxJspjKzLku1riLgY2TerjSPlK8cLRjdH9/NCna3Nzhamgi3c9Up5BgT7KrVhsB61YzQvX6Cdsc1n6g9R+59LvwmVV0XrP1O+lco2l7KczRYz9cWZ0lhovSv13/D2WeLNemyIGNvLy1tZYFW9vd65h0LnHKJAgJVVHT1flZVY/ysBcJ4An7EA1CB8dS0TLC0vmn5YjNc9RivIRZdcRKnGesplJ2lZ0ctubQAAAACABRH4j/WF2OhrvSpYsvjhUHkUrTv5lxfKF2N3hYSPYARjBbS8biwj2YIRbcEOFuYC8ZFCSx0WgaP4+8SFwrRw4e8h4SZahkppTYsT/sxGuL6BMCdlkO2yvPXWW137hsOF093ljvQjFS27H86Jph0RnM5axiCeLIOwIn4FZQy1hxtehPWwIOoThC3nGSVaLprqN5XiSXpu/wr6BJ35annZjiFx+ox2ifalMCEhWkfyl20UtFGwlHQ89xxTouFsdY7UTUf6Qnm/3weCskwTFCP10uHtQtAesj2wRdgG/rZynUJ56Eq2CY8YDR9nM9UzlEb4uFGRfWfUuwJnPf53yXapuy/Ekv/dm2Rwqjx+PUgmIgzX50x/2ACcH0BgAKDGuOqqP+5UdcYJXjVpGXHI+R8Je/zTe/Z8fskmbzrbyFjhIzd9mJ742QFaTvi64Eea9PUYGQsAAACAGkaFR52F/cuGxLOKhEfZ+nECUXdO+VKFEW+V0vfLqEN5hIUm+VMWOSPxKOovt1J+gdgjQlq5cBVG4YXL4K/qUHncsEE64XKH8p420ZCaeteaZrIPzWyTGQnn488ur84SfrbyhONPK1PY7UUoTsX8KrVJhbjTwlfaF+2Tc7FHNF4wStxfn/cr7uG2750S/HWkjmfYodLxEZQrCB/pdxTq43qmUe3h79F6Sn/0059pRDxV0fE/zWbRcvl9GYDzGoMAADWFlVQvoGUWYvnn8hFlq91LKcTOlS1XXUrLjUEYGQsAAACAmsYVRHyRo/wJdCoRFQOhpdcbwRYVwQJxMrRZl8WqUD5niCjBqLc5CmHhfMJldDPUld9WKseJiKFniIF+eXQQNlqmsHsHColFgRhHocmEZIRoNL9oOoKIZBSxZygtPVU1Xd4fqTeF44aXgaLnC2oGRdoiSDcsvFXyvemXJyw2uyMeg7gRe5Vf4a9ULl/nPcPwkbjheumoIO7bqJxOSAyMjgg9o425Lzt6usDrRPLQkWU0jahQH4wYLY+o9ds0CKPC9onWszd4Nd8XO6OifrA/VP1pwmcFO+lwekH44AFDWIitIIbryPfAZst9/IfdDugK6wCc90BgAKDGeP4L3/tBfvb+57R82Py7+PGY7Xx0z56Pn6YlZC4jY5/c+xR95D1/VfHiesnQ9BOH9OsvhJGxcm1+26798Yb8qrhdl4jl62LxRIyvnvJjjpGut/Kx1sL+QSpxXjYBAAAA4LxB+4Ms6cyRmmXXBlGhMIjnBgrFDYthWocHlU4btafCoworjNIkmhopq0JCVKVReeVt4bQrlLOcbkSYUhXyrrQ9nI+KiFPheoTD6GiZZokb2C5avmlx9JkjFcN5luPrM4XlaNmj5VSRMpTDRGwSbetw3wmXUYf6VaURkG5cHRl9TNP70LT+F0qTotvpzBG95bghe04rf7RclexN0wXo8LEQzVdFw+oKo1vD5YnYvFzlkNAZFn7P6IP+9mg5y/ui8YK+GKr3rDakpTv+CYALGfiMBaDG0Mp5gVre5yjPkq3uW2ohdq50ru2g9tWr6HT/IC0jfPFhTxm9VCKKnz+vz/Q+qGPxwumOmFnX8tFvZDtTTRdv0k262yR1UUrrTqWcBp1qHFYWDaac7NEXNNuHtn1z/Khjl0aJioPF1JqR3h28FwAAAAA1S0isil7jlLdXElAiomF0BN20/cH2QJyZQeyblneFMJXCR/M4o6yVynmWNGcNp84cZXhGGpERhWE/mDPGnckms9gxGq4cv5JIN1v+0fJSZab1k0jYSmU8Y1u0bJXKWWHbTPbTc6innqn80XJViEuV4qrKDw9mPRZC38/oR9E6zFQnmqUPRvKpGG+m/jGH/Bb7+AfgggZiLAA1xItf/IdNea220jLBDy0dMujhYtx4lqqEulQdbbxi47KLseEv2nRfd1pxlw1lNBUGd5Iz32gf+lZ2tVG0esz8+BWOil2rLH0lmXoLXzI1e8nKU2tZUxRcMyntkCnmUHrYMONPkI49Fp8cfejj9438zFEth/7ndWqCAAAAAAAAAAAAUBGIsQDUEBaltmlF9cs1JpMFuNPa0d9tcIaPU5UQT8Rp0xWX0EMP/pSWD3n9pqH8zSRdNJQxpn3RcuXRIw8S2XN9xvz2zz0cv2T95ucblv072qBX8abLDTJiJB1rrn1LUxv/eTmvvVybxtsc0j9UOvvtj31z/O4/vq7pSQIAAAAAAAAAAMAZYAIvAGqIEjkvYb0sQcsE63JPK23+uBom7gqIxWN00eb1lKxL0rIRUTkdw8lph4aoCtDuAGY9oeY46+hHv9nfsPniy3/dMNWntFbv4MpdSef+YC6mSb3S0fb7HMf5q9vvHXsJAQAAAAAAAAAA4AwgxgJQQxhkiMjVSMtD1tD0vbHGuieoilCGoub2Vlq7YS0tGxExNhmry7EGeoKqAC7aQcOOZ+YS9nOfeziudepNRPYnWLl9KSm9uBOQyYRmyngd68If+utvjGwnAAAAAAAAAAAATANiLAA1wuUvele71vQ8Wi73IpqOK9P5r77dvXlaJrh+cxqBm25upLUb19EyMk2OLTqUUYZxlKoAZegnHMrPyU/r8MWXXc+Lj3Jt1tCSoZMsyv6cqQwWZMdeSAAAAAAAAAAAACgDMRaAGiFu1svr5MsyKlYT5VmweyKjC8vpmFVyHp9LqFRjPa2+aAn1xLPwN1eqrEO6KsRYp6SfyaTqsmcL99dfG91kKOfTvNpJS0+cPy/k/P7X7fcOrScAAAAAAAAAAAC4QIwFoEZQlvkyXtTRMqCIjmpHfeXQTz49J3F0sTAUPT2XcIlkgtZvXE+NLWlaKXRJP8d2OkwrirYMpR7b9CUamS3UJ+4ba4vFjS9weVfT8hFXZFyvzNhf/9WXx9sJAAAAAAAAAAAAEGMBqA12mkrpq3mlnpYerZU+QInUfbTMaGU8M9ewze3NtHrdcmqL07FTsZNa0SFaQZRS+wwjdqK3Vzkzhent1UZJ6w9qrV9MK4Gm343X6+sIAAAAAAAAAAAAEGMBqAWueNml6x1yNvKqSUvPCNn05cd+2DtAywyrwPvmGralo3U5xVgd3RCP0Uml1X5NToFWBKUdrX5aoNlHxaZefGKLoYw38mqSVgg23n8jAAAAAAAAAAAAQIwFoBZI2PZlLKi10jKgiPZZiu6nFUAVEo/xYnIuYZtamqhz/WqKxeO05OgzN316iyrY2n6YHLVCrgr0ccMwHvqb59HobKGU0fALpJ0GWll+/vZ7J+E7FgAAAAAAAADABQ/EWABqAW33kNYttAyw7vivBx76aD+tAK+9snlYaXpsLmFj8Ritvmg1NbU20VKjSaW0Zok6Qori+4yY+k9um2X1rau1HnO081WdHd6jlNKzhJO9r9LL495iNmIqZr2KAAAAAAAAAACACxyIsQBUOVdd9ccNpIyreHU5RsYeVsX6/0criaJvzjVo57rV1NbZRksNq7Cm1vYZYuzHnq8m4nnzyyx23sPS55xG9J57YVSBlP6Bra1dn35J+6wi8IfuH17vOLSB48RohWFReDsBAAAAAAAAAAAXOBBjAahySoZaqx2SV7yX3F+sVvTve/f2jtIK4jjm1+caVnzGNrU101LDYqs9076PX6tOr2qK3c5hvkVLXxKbHPthpeJ3/u3zUyfOFjphJ69gBXnphw7PAa31SwgAAAAAAAAAALjAgRgLQJUTi+kNipw1tMRorU7x4lO0wtRR4llePDCXsA1NDbR2QxclkglaYmylzBndAfRuVPnPXBX/IxbNv0tLiFbqcceO/8Wnn6eemc09QYCjrI1kqKVXq+fGik0gBgAAAAAAAAAAVAsQYwGoZnp7DWYzKbWOlhCtRefTu4xUMUsrTDrz9Jh27L/lMk3MJfy67nVU37i081OxbZy5hIvpzB+xMb/EnxxVnPZrgflrnVGKHogr8+2ffYE6Mtd4hqHWc9OutL9YAAAAAAAAAAAA+ECMBaCK2fafubQivfT+YhWNWjZ9ee/uO8Zohbn22mtLmZL9HaXp4/z1rOVZt2k9NbY00hLjKBU7q7j6yWtaR83h2Ecd0n/DCu7PWAgdYOMWaEE4WiYGY1H6kE36i7rOvPmOK9XwnKNrrcih9YrU0irVAAAAAAAAAAAAmDMrPqkLAGBmLNNYzYrcRYqWFqXV1xNJ67A7zVIVcMOVFw3/x5P9dyWI2viZ0f/HyuKMfk9Xr19Drata6fizx0g7S1R8R1lzDfrJHWp0+4P671+wir5WUvqFStHV2qFNLI2uIluvUYaaUTnWWmcMQw2yiDrEYu5JrdRj2jQfMhLmoU9vmZ+o+4kfUV2JdB2LsUvdfQAAAAAAAAAAADBHIMYCUMU4urhGKfNiWlpOk6HvNwqZs04ItZy8/vI1z953aOBOpbXBEuvv8KaKvk8TdQm6+NIN9NTeJ6lYKNJSoFjmVSo/Z6V39w5l7SY6yqtH//Cg/rq2aS3lrA1asbCuqNNxqE0pleb9SVZKSyy6jnMWo4ahT+oSnbRs+6itkkc/f62apAUyfmo0mapTOMcDAAAAAAAAAABVBG7UAahStm7tTSg1cSmLd5toacer/lgV9I/37P18iaqM127uPPS1I/0fj+V1hpR6G3/aKoXbtPUSiiXiSybGOu6I4YU1gj+i9Vn/Q70sLp/6/liz7myur3MobhfJKhYpnxwwMp963UJdGgAAAAAAAAAAAKAWgBgLQJXS3EyNE5bq4dUldIiqx4mMB1ta6p+lKuVXNqw5/ODx4x8r5ROP2rZ9i1LqhdEw3Zd2U10qSZOZOc35NW9YELf1IgnivUrJZGAj/mfJSHW02EZ23KkKvxMAAAAAAAAAAABwwQReAFQp2dJoiyJ9CS0hmtR+ctSDu3f3ztkn6kqwY9260/FNq3aZTvF6W9M7udzfCe9v7WilNRd3USy2VM+XlK2UWVO65sYTNMkNjJG2AAAAAAAAAABAFYGRsQBUKaYy21l0vJyWjjFTqW8/8vCHH6EaYIdyJ9ESv7Z/J58Hnx1pKdr5l2pNL1GGceUlW7e86NkDh9db1uLrypocm1uEaokbblD2h+8bzZpksH6ta6vwAAAAAAAAAADAeQrEWACqkO3be2MjudxlpHU3LRWKnnPI+ibVKDs2to7y4hv+h9asefXPKzLu5tVOWmSUVg4ZtTUyVlCantVKZ3i1hQAAAAAAAAAAALDiwE0BAFXI8HA2qRzn+bwapyVBs0anHnn0Jx//Pp0nWNbkz7SmYVoStEPZLNUayqDnWHQfp6pAV90EcQAAAAAAAAAAwHIDMRaAKsQ0C/UsXvXQkqEGHK3/D51HnD79gwzb7Ie0FCiyDaq9kbG2XXza0JShKkCT6iMAAAAAAAAAAOACB24KAKhCbDO5Wil1JS0NRU36p4891LebzjOUVru5bh2NqUTDpouanteQinfQAnC0Yw0O5585fGzsaTddpQ5OmLZNNUaezGdMRcfJoStYUF7ph2/fIwAAAAAAAAAA4AIHYiwAVYgma43SyS8apo5vu7zphd1rUq8wDErQAhkes576yYHR+8czpUlFlFMU+w7RrpoTF8+GTdb92jF+vOOFXWuv277pvQ2J2C/RQlDaGh4tfufm27/zMW+DprVrByZHR6mmuO117eO3fzPzkFLOK/lrHa0gRkl9iwAAAAAAAAAAgAsciLEAVCGmRQ8TFR5+y+s3tb/6ha1dybgRJ0ULQ1MhO1n630OTo1945BGrlEzaTiZzJE/nIQMD3z7Fi1Nv/a3PDKfixhOsqi5IjNWa4ms7tDM4+MDBYNvgINUkhla7HaK3qhUUY7VWxyZPDz1CAAAAAAAAAADABQ7EWACqkL17P+mOwfy9z9/dXbScjUotWIqVV+z3NzbEf/iFL/x1jcqJ88ccjI/bq61nTFOJ6DxvEZLtbTqkVnQk6WIxkWzY3VAcP6S1buearcg5XynnS71v2XhePgAAAAAAAAAAAADmAybwAqBK0Q/2xkpWaQspfQUtEEW6pBU9UBqo+xldQFz7jneUDIcOa6JTtECUQclnH/xCzQuyvTuU5ZC+TWv1HK0I+ifx+uaPEwAAAAAAAAAAACDGAlCtHK/f2Eza/DlFahUtEEerI6Tpu+te//pJusCI16lRQ6mFi7FapcZH8k10HvDe61oeUEr9Na8O0XKi9Wmb7I/+sJ8GCAAAAAAAAAAAABBjAahWErbRqgy14FGxjG0oeoRykxfUqNgAp2iM8+I0LRBFOqUSupHOE/7ktU3/4Gj6F02UpeVA62FSxh11ybZv77pBnXeTxQEAAAAAAAAAAAsBYiwAVYi++27TUUa3o52raOGcIkd/q3PHW/rpAkQrc8ghOimrtAA06XpDW2k6j9C2vpVF0n/h1WFaWoa0Un9bLBW/eMsONUoAAAAAAAAAAABwgRgLQBVyYlNd0qDYS5RSnbQQlNIsRh4pOuZ9dIGiCsdHDHIOs6qaowWh6i1tpvv7+xu01ufFZId/+ivNoyXL+gDX53PaE6oXH0WnlGncQUbxb/78V1cdJwAAAAAAAAAAAJSBGAtAFdJYzNeRdl5M80SbSXJS7WQ3d5PVftlFeuPLth89erSNLkCuvKG3aDvqqFY0QvPEMOMUb16ztuWyV/yBbdufO378+E3Hjh1rp5pHaRFI7bjxccM0/koRHaAFjhw+I2WlSizE3qsd9WcTufHPvfc1HScIAAAAAAAAAAAA01AEAKgaRDhdv379+OnvfekqHdPfYoWrdcbAhumKrzqeIideTxRrIB1LEpkJ0kaClGHYWmsZmbibl3/D6T7MgtkF4buT65sYHR2tP/a9u1+klfNx3nTlTGHZTmSwDc26RjLq0mQmG731eF1JxZIO709wsBFO86e8/PBFF130HToPuP2ewTTVJ3qUo7az8P8atsQOWiCa9APc6b4UV/o74+ubnuu9UhUJAAAAAAAAAAAAZwAxFoAq4rnnnvszFkx/27Anx42JwRcrx/GOUaVIqxjrXTEWYeNEiTr+zkvDG9yulUnu4awqHtJFTvM4i4n/O5VKfaq9vX2czmO4nsaxY8eu4zrfqUv50/mx/lZdzDcH+814wiQjFqdYPG7GUwkWXOPKhW1oiA0NNmPFlwYcTvskB/x//Pn7devWPUW1jtbqU9+gRNyk5jE93GHo2HYy6CWsrr6Q9142Q6wJNtA+rZ1HDCP2A6eY3xOPxU/FnKaJ97xOFQgAAAAAAAAAAAAzAjEWgCri5MmTn7Is6+0s9iVpaRjktG/j5X+OjIz0X3nllefdCEbx73rixIkbePl/aenIsB3/ifP4fDKZPNzR0ZGh84zeu3Ui3ZxbbRUnuyhWl9aqdLquEO+/+Q2NpwgAAAAAAAAAAAALAmIsAFXEsWPHvsiL3+bPUk4YZbGQ+LTjOHcZhvGteDx+sLOzM0vnCeKi4Pjx4/+NV/+Wlp7n+PNFFtDvi8ViT61fv36IAAAAAAAAAAAAAGYAYiwAVQSLiF9mMfENtDyT61mc114WZr/Couz3crncY5s2bRrn74syodNKcfTo0RQv/pDrcTstH4f586/8+TaLsvtXr149WOt2BAAAAAAAAAAAwOIDMRaAKuLYsWP38+JVtLzHZp4/j7J4+E0WEn+YyWQe2bx58wDVKP39/Q2WZb2XV99Pywzb8FHHcb7Jy++x0P3U2NjYkfPRFQQAAAAAAAAAAAAWBsRYAKoEFu+SJ06cuJ+Xr6SV4xkWEnfbtv2zeDx+gL/v7+rqGqQaYnBwMF0oFD7IqzfRymBzGx7n5c/Ylg/zci8LtI9cdNFFJzFaFgAAAAAAAAAAuLCBGAtAlXD48OHViUTiK7z6UlpZNIuGGRYUj/D6U/x5lNd/1tLS8lBjY+PpahcUh4eHm3O53Ce4zP+NVhguQ84wjD4WY/t4/RHTNH/CZZORx0cJAAAAAAAAAAAAFxwQYwGoEo4ePbqZF//KYue1VD04/MnwZ4DFxBEWFg+ysPhd/v7jfD7/1JYtWwpUZYyOjrZmMpm/Zzu+iaoIX+AW9w/D/HmWPz8WgdayrL0bN24cJQAAAAAAAAAAAJz3QIwFoEo4ceLENhbn/oE/V1OVwmUr8SLHwqL4mT0hI2bFrUEsFvvBE0888dyOHTssWmEOHjzYUV9f/89cttdQlSJ2ZGFbbJhjcVsmTXuYt/2At31r3bp1TxIAAAAAAAAAAADOSyDGAlAlHDly5BdZjPsUC3NbqQZhMXGUP/u5Dj9hgfHhurq6Bzs6Ok4tt1sD393Df/Dqi6gGYXvl2I6P8epeXorP2Z9cdNFFjxMAAAAAAAAAAABqHoMAAFUBi3Bp/sSpRuGyt7AQ+3Je/SNe/lOxWLxjYGCgk5YZzlvOa01Uo7AAm+LFi/nzDrbp3/PyX44fP34Nb8fDMwAAAAAAAAAAoMaBGAtAlRCLxUSMjdH5gcmfiy3LWkvLDNtR8k7TeQL3iStYiG0jAAAAAAAAAAAA1DwQYwGoElhwa+JPzY6MDcP1kMXpUqnUT8sMi5fG+SRecn2OO44zttzuHgAAAAAAAAAAALD4QIwFoHo4zp8cnR/I5FSHNmzYMEDLjG3bMonYSTpPYCH2sUQiMUQAAAAAAAAAAACoeSDGAlAlFIvF3bz4On8KVOMYhiETdz3MH5uWGRYuxzj/v+XVCap9NNfloXg8DjEWAAAAAAAAAAA4Dzhf/FMCUPNs3Lhx9OjRox/j1YtZxLyEapunuA4/pBVg9erVk8ePH/9/nH+H1vo6qmG4DsO8+GFbW1uGAAAAAAAAAAAAUPNgdm4AqoxDhw51NjU11fyo9Y6OjgEWEx1aIZ599tmWhoaGOqphxsfHndHR0ey11147SQAAAAAAAAAAAAAAAAAAAAAAAAAAAAAAAAAAAAAAAAAAAAAAAAAAAAAAAAAAAAAAAAAAAAAAAAAAAAAAAAAAAAAAAAAAAAAAAAAAAAAAAAAAAAAAAAAAAAAAAAAAAAAAAAAAAAAAAAAAAAAAAAAAAAAAAAAAAAAAAAAAAAAAAAAAAAAAAAAAAAAAAAAAAAAAAAAAAAAAAAAAAAAAAAAAAAAAAAAAAAAAAAAAAAAAAAAAAAAAAAAAAAAAAAAAAAAAAAAAAAAAAAAAAAAAAAAAAAAAAAAAAAAAAAAAAAAAAAAAAAAAAAAAAAAAAAAAAAAAAAAAAAAAAAAAAAAAAAAAAAAAAAAAAAAAAAAAAAAAAAAAAAAAAAAAAAAAAAAAAAAAAAAAAAAAAAAAAAAAAAAAAAAAAAAAAAAAAAAAAAAAAAAAAAAAAAAAAAAAAAAAAAAAAAAAAAAAAAAAAAAAAAAAAAAAAAAAAAAAAAAAAAAAAAAAAAAAAAAAAAAAAAAAAAAAAAAAAAAAAAAAAAAAAAAAAAAAAAAAAAAAAAAAAAAAAAAAAAAAAAAAAAAAAAAAAAAAAAAAAAAAAAAAAAAAAAAAAAAAAAAAAAAAAAAAAAAAAAAAAAAAAAAAAAAAAAAAAAAAAAAAAAAAAAAAAAAAAAAAAAAAAAAAAAAAAAAAAAAAAAAAAAAAAAAAAAAAAAAAAAAAAAAAAAAAAAAAAAAAAAAAAAAAV1xxxfWXX355N1UZ3d3dLQTmBLff9mpsQ+D148VuG0lvpY6PpahPNSLH1JYtW64+W7jFtsdS23cl+85KIXWW3zlaYbgMN9E5sHXr1hvn0jeWo40l/ZWwaa313+jxjN9qAAAAAAAAZsegFURucpbjRkfEBqXUV/hzM1UJcrPCdX+wvr7+2Z6enjtw43J2DMP4An++QqDqqKuru5rb5lnu0xtokeD05PhYkWOW871e6kPnOaZp3hGPx79wtnDSDtIetEgsRX8Js5J9Z6XgOt8sv3NzEdeXAvlNYyH1EV5d8G+6pMELOc/feLaw0n+Wuo0lfbHpcguyft1WXFifK9Hz5WL+Vkt/Xuj1kcTjPtmL6ysAAAAAAFBtrJgYKxfHvkD6Ff8GbMk4ePDgXsdx3qK1/iRVCXyj8mYuz20HDhxo5eUYf99OYFakDflzCwEAFgXbtm/BMXV+wO34Sf4tuUV+72iZ8X/Pb5W+9MQTT+ygBfLkk0/u5jq8kdO5i6oAKYfYlOv0VQJzZjF/q/lh0VfmIs7PQDd/bvWXAAAAAAAAVA0xWiF88XFUPv767krhZFQEX4xfzRf2fXKjJq/DyaiqfD6/t6+vb1RuAllQaInegFbY3lcp/Wh60bxlGU47XJ5KcYI0U6nUdlm3LKuv0s3x5OTkLZKvvJLJae2WutEciNqjUhipu9iUbyJH+bOXw/VVqq98lxEtEi6Xy+2O1iVcj2g60fLMlEaQTjQfX4CXOvQFZYrWJ7qd23OU5oCkzfXvLpVKe8X2M/WRudjybO19NhvNxYaztddMVEq3Un8N22Omes6ljFHmYrsg7aDtg7SlPFFbVgo3U3r+qMoVqc9C2mom+8/j3FUxHX+0V/fZzh2z9eGZjqnoMURzrNtMx/K59Bc6C3Nt77n0nWiZTdMcZZuNVkp/LmWdqf9T5Nwn7cLLlqBvzST+zdb/pJycxt5w2KAfhfMM24IF1JbgN2qmfhdKz01D8pE68W/YV4O+5G/7Iq+6r6sH5yOxX7SeEn629pK6SXpns2OlMs7nvBhmpv4Z2FTSjV5vzHJcB9t3R8sZnPtkPWp/Ogtzua6Y63EWTnM+x0SFOlaMEz2vRPsOP4S+iyrUK9q2ftu18GeDpCHpznQ9Vun6UMJzOed87QAAAAAAAMBysWJiLN+EyMhQueE8wh/xMdcb3u9foMvI2e38tY8vqFtYuBzli+7b5BU43tfN20d5fy9fjGtef0sk/d5YLCavwLqjdPxXbCXMXeFwLS0tVCwWv8Lp3cZfp42clREZkh+v7vVH/nwhXB6+qRi94oor7uQb53I88ZfH+3rlplHKJzcKvO2rLEK+Jbhx5bTezDepMopJyrlXbq65bn2c146ZbjJD+V/t5y+v342GR+34N6zyyvH1EkZu9OQjr+nxzY/UI3g9WF7hvcsPJzZ068I3Nm8MbnTktUyxc1APyTecTqR99vKym9OQeLeF7cFxbvXbVtKQGzG5WZdXnu8K2sN/HVPKrcJ1jm5PJBJ3cHn6KNLWobzENvJqZLfUn20vdRfbuHYgvy/MZEsZzRPcWEbaW9pI6ic3470c5otBGG7HR6QdfXtf3dPT88n9+/ffMpMNedstgX2ifbxSe83QF8r9x0/XfRVT0gnbxxdupN9L3UeDY4gFtnI7V6rD2fLn/dImN1LouKw06jza9vwRm9zJyzu4H0pb7PbtFBwz5Idz61Oh3tu5rF8J6u2327Tj5mz9tkKaZxzXUh+KnCcix5bYrsXPf9a0A/sHx3m4f0TPUQHR7aF0ukNl7OM6fofDvoG3bTxL3cr9PNqHo8dUNK/gGJLR+9J+c7RbL/nH7Gzn8Wh5xV0L53Mz+Q/OzmZfIdx3KHQsRMPJuYH3PTifc66c/3mxm2223d9UPj55/R4/vdHguA0f29GyRfp1r2/vu2Y4H5/Rr+fS/6LnS78fNXOYbv56dZBn6Dzpnhekjdn2d3F+rZX6Y4DfL3obGhpu5jpJu8r30VnqeSN/pJ/1BvXkOG8MHZ+u3cLHRND/Fnh+mNN5MYq4C6rwW+DaPlTubpq63ng+x3HT9+3SLXVgwe/OsCsPqecMdXsLL28NwnF6kudd8oC20sPMiA1mvK4IHT97o/WolGb4fLqA65DtNMv5Mnpe8e1yF/cdEdRbgvBSL05Ljpk+377TfkP9dCS8nNe38/57eP3m6LVO+HdI0gvaSx4GSDrcr0cIAAAAAACAKmJF3BTIBT1fNG/ni/4v+q8jtkRdFfCF9h28kJEXO/hmc6P/Ov+d4uOQFpG9e/fKxbrcML4hvF1GrJInSOyW74FAweXZGJRH4omwFJTdv+GXm8E7/TDXSHjedbVfn+CG7C4/TCvfdOzww8iNyBdmKmcg6vANm5uun78IAl8IJvqQPDjdqyM2k5uaXr8+ZSScn9ZGDn8NeTd4Xwnld6uI5UE9eJPc8PeG8wrZIyjPnRF7SJ69Elf2B3ktoe9eubEc5Xq1htpIxP7rw4FmsqX4uAvq598sR+v3RWm7oH7cF7/A+7/j103aeofcDAf7K9jQtc8MNpzWXjP5KAz6jxw7ofbbKMcTeYJLOJzUc2+4nUXA43Z+MPChV6kOkv9MrkPkhl/sGe1j0TYN2l4E7lDbS9o3RcOFjpnWUH0kfne4PiIcROtNnij7YLjdojanUL+NwuErnmco8nCIRYRb/WPLTZdFt41BW81kK/HhKUKHlFeOc94k9r95vv4npX6STuTcI8f+TWeJF/Thayr04e5Z8hqN5HVEHp5Fw1GF8yFF7DbX87gI9xym3K98+76RKpy7Anxh6JMV+oTYtzsS7sH5nnN9bvT7cFBHt29wWnew+HZNeLu8ph/0s7P060q0RPt1uGwL6X+CP4r2O/45MWh3OU/2Bfn5baKibTwDN3O93yjpcRmOSN6V6kmRNgiQ85/ED/L13QfdWElcnY8dZzov+uW4eqbKyLEowmJwjPi/hS1n+Y2S3/nv+HVw+6kc1/6xc2do+y3h34MAEWlDfSro59dLG89ggxmvK1h0/IJff2nnm/lBW/lY5zh9vtB5BsH5dIHXIWc97ishv1FB3/HrdaN//O4I1yvcH/zzZh9/7vTPC267+LbaHj6vyAMeVUXzAgAAAAAAADAbKyLGiv8vuRmUUYgyAoMvoHfzpyxQXH311XJDK2FuC78CJ6OOfKFkUeGL+K/KDVnkpknE2btCr5V2W5b1xvCIEb4B6PXLHtwA3MTl2y3bgzASnrfJDec9ft1FoOmLhhH/alKGSpOvhPJ/S3jkTCKRkDTE3UEwk/FMNvsif6bdaMuNYpCWX0YRW7tDE+qM+iNSgrw+6YtpFOQleVewx96gLUUsknpXsMei+6gMxHO5sQ3byM+7L/g+T1u+Zbb6+aOUmgMBRuwuNgpeQw3bL8hD9gevu9JUe5Xz8EfWfZUiomVA0H/kpjTcfslk8o3+iLAg3HbybppviYS72d9/41zqEEVulLn+d0X6mJT3i+FwvlAo4e4KtgXHQiTcm2c6ZqL15nKNRuvNNpU+2R1MdjObzaN18dvg+pmOmUi9b67UVpHj/wxk5J/0KVnnOu71Bfu9NEfOdu6ZJV43VejDchzTzCMEXQFNjqFK/T5aphmOj93B93mex2/kz53RflXp3BXgC+9nHAts4zdGwomgOjqfc26IaX3dP09Iu/ZF7Crby69bz7VfB3BZ7gzXgTxxd3twXC60/0XtE5wXpByR86SkMUpn56tij1B6FX/zWBScqZ7T+oJ/fpC+UPF8N5/zQ6W+IOeH6DlhNvyy75Bz3Exhor/f0k/9fj8aHhntt8/e8LWNX6dPVjh/3inn1hkeGlW0MS+k/14vcYLX8GOxWHcQhre9RUbyVkhvQceEv+2sx/0s3BnuO774f1ekP/TRLP0hQHsjgO+s0Je+SAAAAAAAANQAK+Wm4M3hi3e+AbjHH1XUKxfqLARd7fv5OkO0ECEj/LrsYiAX9D09PbsD37Uhkca9qZdX/mRZyUeb9l4VdsUC/1XHvZXSD9Y5zPN5Ia+0PhgOo7zX6GWk4hk3YzPl74/qvUvWAyFZRoBF4/u2/kJk27ORekyzqy+YfoVFTgm3u1Ao3MP1+KqfV3CjdpO8ZhjJrpv8m3oZyUUVbo7EB1+xWKRFpptCPhHDSBvxwhWZ52nLW7l+t1bIR0bbkn/j+mBDQ4PMCi+iyD1hX3i+De+oZEO/r1RsL79PVRwBLv2H9z8a3S7l5z7cFxJk3b4YtYeE4/Ls9tvmrHUI4x8XcuN/T3Sf+EcMv3rrp1/pwUkfTa+rjFo8o4/IMeO//nrWesurteSPwpvN5lFmawP/mHGP62AUqQhPbKOoMCij1iqKWDKhEu97g8wyLq8Ui23DfjbnQlDGmc49NPPENN1+/GnHebifz5DXTMfQo0GawTFUyVekfy7fLutzPY8Hvm/lPMp2ekOkTN00A/6+3dHtUn6/TwR5SdoznnPllW+qcN72ORL+EvS3aF/0t5fTPEu/pgp1mdZO4gNTbMfibjPbJxj1Pa/+55fjSDQ8VTgv+GHluN5As/Mdml7ubr8fTkP6a/j4DZilL0j7bAidv4J9c7LjWc6Le6PpBogQyunc6R+jcg67h8soI+v7aGbO2MftdWSGsDLStDm8Ybbzp7gsoEhf9Pt59yz9t9u39228TX6zJf498taRPACiCizkmPC3nfW4n4loP/V/I86oF3nnmRkF9OB8LDarUI5pv0MAAAAAAABUK8suxgajqvhzJHj91L9RavFHt90VTLpwLsgN0Ew3YJUIBGFe7fVf7eyLTqISTOIRiSo3DXMWV+SmTXk+BmcawdE3U9wZ8j8rMjJovgK2fxO30R8tJx8RuG5lMWlHqH1EYBqL5CX1Cso477IuBZX6whxtOWv9fEFjo/+qroj3t/o2ukbS9vvPV6M29F+fPxsVy+aPZJ1rY1a8oZX+x+mMzaUOM8WnOVBpRJpMfhM9tmcZudYSCjNbvcvhztHm08pU4ZiRc0RfJNwX/bKdQSXb8jnuVv4+o0/GeTJjO8y1jcJo3//pDLvPEOkqHUPh+HM9j/PDmVF5OOM/hKgk1i3kPBKtR99M59xKos7ZmE0ADZjPiMw5Mq/+J3D4Sr4yZzovzOs3089/0eqYy+XGglHk881jnufFacioYD4mP+mPYJWHJ3fw+eONM02idq4s8Ng8MlP/LZVKfbKUEapcj7t4VXzBvllEyagf4wgLOibOdtzPA0lDhPh7aAEsME8AAAAAAACqgmV3U8A3CG/W3sQOcnP/8/LxR7X0Ba+jNjQ0yH7xYXp9NL7yJqwJf5cL+qsrZFVp24wkk8m7ZOkLJzeFb1KCGxOZzKNCVCmPKyD4I4TOKLOMHvUnMyI/bLeMkJMRiMFHRkKRNzN6XzT+TPnLCBGZTEleH/Rn0RYx5YzXQ4NXPWkeiFAu6csNKX9u5PjyOrjkc3XQPpJ0uA7+iMruQBzwhZU3RNNm4WWajYLwFV7R/HmaI76NuqP++fxRNGW7yezwspyjLcdmq58IfuLPT0YKyeux3Idcf4PyUEFe0Y7aUF41l7JIHhx2t2+jSu11U6XRZj6P8v6fj/r89P0wl+vkt3f3DOHkYcNXz1aHaMZ+3xyNHoOCHNeROuymCm0fi8WibSoC0xuibV/BT6hb72i4YLZtaf+z2TxaltnagOtTLntQb1mfrT9EEdtKfwxsK34+/bRv9PN1J6ypkPfzg/XApcEMfkHfQDMQ1I2Z9sp+uJ9H4/h5neG/27d5OXwikXD7DveRmytkXe4Hcz2P+6N1RZQZrWDfGcW44Hw7U58IbZr3Ofdc0VOTq01jJv+3s7HQ/lcJcclDM58nt9P8keP3zdE28B+GnNFu3HfOcDkhdpLf/0oPf+Zhx4rnh+h5sUI6MhHW9WJjES3FR6n/wO1GWiJmOn+KDWYYAS8jfnW07YP+G7i9EZtIPeR1fd/X6m1qZr/S8z4m5nrczxV5sCDHdqVjnssxY7zgeGCbnXF9EP0dkrCcphL/xgQAAAAAAEAVsRJuCraTNxnDJ8Mb/ZsrdzIquTnnGyS5kZBRbZoFtHtkVlz+iEi1PRxPbi7l9U0ROyPh5jVqInh9W0bHam+ilLKIIRf0XB6Z+OYL8ipgIPz5YeVm6Ta/LJ+UmwEOKxNj3JLP50fFh6DyJtFww4joWygUbpKJN1g0uE1uvuTGWNKmCq/cBvnLjOYShsO+xX9FU24wvyD15DRcMcm32a3+jMhuWr4trubPRpoHcoMtduX83ij1CN1A9oXaR/JyBRRpN3+SmRvJfw3atu3bZMIPEX+4bWTSnlH/ZmmaOCPCEQu0o3yT9yDb5C0Szs/vRpojIVcT09rIn6Cp3Bf81znPakt5dZW8UZUUTHzjv/7ojt6WML6/xG4u8xslXf+1bBl1Ourb6NawDVmUeoPfJqN+f3N944Xby8+jxfeJdwbi85P7j7SNTMIlZe3z6/kFCo2q9l+/3VspnPb8NZ+1DpXyl77uH5d9kePtxnC4Wdp+Wr2CYyY4HvzZr7vJ8xk4Gq13uI+E6rM7eHV2NptH6xJqAxlBNhoI1FIfLld3xG1H+dgSAUO2+f39ZprltX8RQ7i8O4LjnDw/vn1+3Wc6d3WT/4DH758STl4/viXUryUcqRlGvAd1Cx+jwUzokj7nc1s0zmzHUDiv2fpuNNxcz+O+fb8i7ZDL5e6K2HdHpTpKn+Dzxk2V+gSF+s5Czrnnin/Of4P8FvADgdv8/r+dzuILcyYW0v8q4fenvcH5j6bOCwuaGHOm49d/y6SSuCoPf0aj5w49gy9d3t7LaT0StiNNnR/KhM8PXK9baIbzYoXyy0j9rwQjSP3fAhH5dtPScX2l8yfX87YZyig2fkTOpeJzV85r8jAxmIDLD9bNHzluN3D/CLY933/wfQYLOSbmetzPFe1N/PiIP3nfF/3rJfmNkGOn3B9EtOX9Py8PWWQUsIjP/jXXHRX60rRrC/+cd4f0nUpCNwAAAAAAACvFso6MDU2y9NXoPn/UhVyMS5hgIqPb5CaFBZVHxKebiAg6MvmT3Fxqb9bicji+cFfanzBrPsgkKuL3zBd3+sL7ZJQdLyTNOyQPf1ZhuaEov3LsT4Bxjfh4kzB8Yzjiix+3BBNlyA2NxBHBS8orIoXcDEp5+SZqxomt2D5yc3KPL3DJu6SPiGDmj1ilkM1kIpBb/TKKLURYnvdr0f7kH6OhevRKPYJ0wnlJeSSM5MXbwvaQtpGJpbaH2nB7dIIdf2ScO9FKEI480fO2+ZbZHy33Bb/+X/Ff471nvrb026tcv6D/hesX5Bdpx1uC11uD9AIb8urNYRv6k+ZMa69oHlGC/iM3qFL+oJ58s3lL9BVmsbOULxTuQe2NQN8RtdlMdYhS6bj0232amDLXtvfr6Y66DsL5wpCkN1qh3qOhcF/hXV9k8a6c5tlsHsVvA1foCh0zoircGa23CADaczUwIh+/PjO2lQhE0vdCthX73xkI4SEbhW3ZWqm/+tu+EKr3o2pmVyfhugUPFbR/XE07Z0Xhcryx0jEUzctP+4uhcHIMjUUFpbmex6W/yQzzvHpTyL43+hOX7a5UVukT/uz3FKQt51s/nTP6Dq+Ozeecey74bl6m9WvtvfnxloWkt5D+NxMVzgsVz5NzYa7Hbyjvt9B0m9zoH593LSD9MqE2prOdFyPp7ybvd+am0G+B/I7P67dnnsj1ysaoDcKTaUXKeMZ1hd9mdwZx/IkX5TxxY6h/tMwkcofOpzSfY2Kux/1cCE1oeGOF64y7gnD+uaJbyslh3IcGs/wORcsuYuz1LNReTQAAAAAAAID5IaMbgtcPZfSG3DjIZB+zhVuu8syE7I++Ij5TmPmWeS5xFssWc6nHXMsTTsdvw+sr5Xeu5Z5LmcPlOldbnq0dF8uGC0k3HO5c6lCJuYafa7j51udcw0SZT33mk/ZcbDufc8pCjo/5xlvsY2i+4ebbdot5LCw2C+mLs7EQ+1Riscs1W3rR3+2F5L2Y54cZyrik/cJ3JaADFxFLZYOlOD/NlM9i2etc+uJcftsIAAAAAACAKmN+75VVAf6rdA/K6Cr4AatufLH1Jhm5GPYHKNvlleRSqXQNXh0EAIDzG/xue6KhP4Jzx0yjvQEAAAAAAAAXBivhMxZcIIgv2EKhcEfYj5/vR1NeNbwLQiwAAAAAAAAAAAAAuJBYVp+xi4Ft2zLCso9A1RP4pePPo4EfP/HpyLu+uFS+GgEAAFQX+N0u00cAAAAAAAAAAAAAAAAAAAAAAAAAAAAAAAAAAAAAAAAAAAAAAAAAAAAAAAAAAAAAAAAAAAAAAAAAAAAAAAAAAAAAAAAAAAAAAAAAAAAAAAAAAAAAAAAAAAAAAAAAAAAAAAAAAAAAoNb4/wEYlFBBI6pHVgAAAABJRU5ErkJggg==;" vertex="1" parent="1">
          <mxGeometry x="-800" y="120" width="760" height="288.24" as="geometry" />
        </mxCell>
        <mxCell id="NkDDDWs9M4khyT48eCoO-10" style="edgeStyle=orthogonalEdgeStyle;rounded=0;orthogonalLoop=1;jettySize=auto;html=1;fontSize=61;" edge="1" parent="1" source="NkDDDWs9M4khyT48eCoO-8" target="NkDDDWs9M4khyT48eCoO-9">
          <mxGeometry relative="1" as="geometry" />
        </mxCell>
        <mxCell id="NkDDDWs9M4khyT48eCoO-15" value="" style="edgeStyle=orthogonalEdgeStyle;rounded=0;orthogonalLoop=1;jettySize=auto;html=1;fontSize=61;" edge="1" parent="1" source="NkDDDWs9M4khyT48eCoO-8" target="NkDDDWs9M4khyT48eCoO-14">
          <mxGeometry relative="1" as="geometry" />
        </mxCell>
        <mxCell id="NkDDDWs9M4khyT48eCoO-19" value="" style="edgeStyle=orthogonalEdgeStyle;rounded=0;orthogonalLoop=1;jettySize=auto;html=1;fontSize=61;" edge="1" parent="1" source="NkDDDWs9M4khyT48eCoO-8" target="NkDDDWs9M4khyT48eCoO-18">
          <mxGeometry relative="1" as="geometry" />
        </mxCell>
        <mxCell id="NkDDDWs9M4khyT48eCoO-23" value="" style="edgeStyle=orthogonalEdgeStyle;rounded=0;orthogonalLoop=1;jettySize=auto;html=1;fontSize=61;" edge="1" parent="1" source="NkDDDWs9M4khyT48eCoO-8" target="NkDDDWs9M4khyT48eCoO-22">
          <mxGeometry relative="1" as="geometry" />
        </mxCell>
        <mxCell id="NkDDDWs9M4khyT48eCoO-8" value="Container" style="ellipse;whiteSpace=wrap;html=1;aspect=fixed;fillColor=#ffcccc;strokeColor=#36393d;" vertex="1" parent="1">
          <mxGeometry x="134" y="80" width="80" height="80" as="geometry" />
        </mxCell>
        <mxCell id="NkDDDWs9M4khyT48eCoO-13" value="" style="edgeStyle=orthogonalEdgeStyle;rounded=0;orthogonalLoop=1;jettySize=auto;html=1;fontSize=61;" edge="1" parent="1" source="NkDDDWs9M4khyT48eCoO-9" target="NkDDDWs9M4khyT48eCoO-12">
          <mxGeometry relative="1" as="geometry" />
        </mxCell>
        <mxCell id="NkDDDWs9M4khyT48eCoO-9" value="Container" style="ellipse;whiteSpace=wrap;html=1;aspect=fixed;fillColor=#cce5ff;strokeColor=#36393d;" vertex="1" parent="1">
          <mxGeometry x="10" y="250" width="80" height="80" as="geometry" />
        </mxCell>
        <mxCell id="NkDDDWs9M4khyT48eCoO-12" value="Text" style="ellipse;whiteSpace=wrap;html=1;aspect=fixed;fillColor=#cce5ff;strokeColor=#36393d;" vertex="1" parent="1">
          <mxGeometry x="10" y="390" width="80" height="80" as="geometry" />
        </mxCell>
        <mxCell id="NkDDDWs9M4khyT48eCoO-17" value="" style="edgeStyle=orthogonalEdgeStyle;rounded=0;orthogonalLoop=1;jettySize=auto;html=1;fontSize=61;" edge="1" parent="1" source="NkDDDWs9M4khyT48eCoO-14" target="NkDDDWs9M4khyT48eCoO-16">
          <mxGeometry relative="1" as="geometry" />
        </mxCell>
        <mxCell id="NkDDDWs9M4khyT48eCoO-14" value="Container" style="ellipse;whiteSpace=wrap;html=1;aspect=fixed;fillColor=#cce5ff;strokeColor=#36393d;" vertex="1" parent="1">
          <mxGeometry x="134" y="240" width="80" height="80" as="geometry" />
        </mxCell>
        <mxCell id="NkDDDWs9M4khyT48eCoO-16" value="Image" style="ellipse;whiteSpace=wrap;html=1;aspect=fixed;fillColor=#cce5ff;strokeColor=#36393d;" vertex="1" parent="1">
          <mxGeometry x="134" y="400" width="80" height="80" as="geometry" />
        </mxCell>
        <mxCell id="NkDDDWs9M4khyT48eCoO-21" value="" style="edgeStyle=orthogonalEdgeStyle;rounded=0;orthogonalLoop=1;jettySize=auto;html=1;fontSize=61;" edge="1" parent="1" source="NkDDDWs9M4khyT48eCoO-18" target="NkDDDWs9M4khyT48eCoO-20">
          <mxGeometry relative="1" as="geometry" />
        </mxCell>
        <mxCell id="NkDDDWs9M4khyT48eCoO-18" value="Container" style="ellipse;whiteSpace=wrap;html=1;aspect=fixed;fillColor=#cce5ff;strokeColor=#36393d;" vertex="1" parent="1">
          <mxGeometry x="294" y="240" width="80" height="80" as="geometry" />
        </mxCell>
        <mxCell id="NkDDDWs9M4khyT48eCoO-20" value="Text" style="ellipse;whiteSpace=wrap;html=1;aspect=fixed;fillColor=#cce5ff;strokeColor=#36393d;" vertex="1" parent="1">
          <mxGeometry x="294" y="400" width="80" height="80" as="geometry" />
        </mxCell>
        <mxCell id="NkDDDWs9M4khyT48eCoO-25" value="" style="edgeStyle=orthogonalEdgeStyle;rounded=0;orthogonalLoop=1;jettySize=auto;html=1;fontSize=61;" edge="1" parent="1" source="NkDDDWs9M4khyT48eCoO-22" target="NkDDDWs9M4khyT48eCoO-24">
          <mxGeometry relative="1" as="geometry" />
        </mxCell>
        <mxCell id="NkDDDWs9M4khyT48eCoO-27" value="" style="edgeStyle=orthogonalEdgeStyle;rounded=0;orthogonalLoop=1;jettySize=auto;html=1;fontSize=61;" edge="1" parent="1" source="NkDDDWs9M4khyT48eCoO-22" target="NkDDDWs9M4khyT48eCoO-26">
          <mxGeometry relative="1" as="geometry" />
        </mxCell>
        <mxCell id="NkDDDWs9M4khyT48eCoO-29" value="" style="edgeStyle=orthogonalEdgeStyle;rounded=0;orthogonalLoop=1;jettySize=auto;html=1;fontSize=61;" edge="1" parent="1" source="NkDDDWs9M4khyT48eCoO-22" target="NkDDDWs9M4khyT48eCoO-28">
          <mxGeometry relative="1" as="geometry" />
        </mxCell>
        <mxCell id="NkDDDWs9M4khyT48eCoO-22" value="Container" style="ellipse;whiteSpace=wrap;html=1;aspect=fixed;fillColor=#ffcccc;strokeColor=#36393d;" vertex="1" parent="1">
          <mxGeometry x="430" y="240" width="80" height="80" as="geometry" />
        </mxCell>
        <mxCell id="NkDDDWs9M4khyT48eCoO-40" value="" style="edgeStyle=orthogonalEdgeStyle;rounded=0;orthogonalLoop=1;jettySize=auto;html=1;fontSize=61;" edge="1" parent="1" source="NkDDDWs9M4khyT48eCoO-24" target="NkDDDWs9M4khyT48eCoO-39">
          <mxGeometry relative="1" as="geometry" />
        </mxCell>
        <mxCell id="NkDDDWs9M4khyT48eCoO-42" value="" style="edgeStyle=orthogonalEdgeStyle;rounded=0;orthogonalLoop=1;jettySize=auto;html=1;fontSize=61;" edge="1" parent="1" source="NkDDDWs9M4khyT48eCoO-24" target="NkDDDWs9M4khyT48eCoO-41">
          <mxGeometry relative="1" as="geometry" />
        </mxCell>
        <mxCell id="NkDDDWs9M4khyT48eCoO-24" value="Container" style="ellipse;whiteSpace=wrap;html=1;aspect=fixed;fillColor=#cce5ff;strokeColor=#36393d;" vertex="1" parent="1">
          <mxGeometry x="430" y="400" width="80" height="80" as="geometry" />
        </mxCell>
        <mxCell id="NkDDDWs9M4khyT48eCoO-44" value="" style="edgeStyle=orthogonalEdgeStyle;rounded=0;orthogonalLoop=1;jettySize=auto;html=1;fontSize=61;" edge="1" parent="1" source="NkDDDWs9M4khyT48eCoO-26" target="NkDDDWs9M4khyT48eCoO-43">
          <mxGeometry relative="1" as="geometry" />
        </mxCell>
        <mxCell id="NkDDDWs9M4khyT48eCoO-47" value="" style="edgeStyle=orthogonalEdgeStyle;rounded=0;orthogonalLoop=1;jettySize=auto;html=1;fontSize=61;" edge="1" parent="1" source="NkDDDWs9M4khyT48eCoO-26" target="NkDDDWs9M4khyT48eCoO-46">
          <mxGeometry relative="1" as="geometry" />
        </mxCell>
        <mxCell id="NkDDDWs9M4khyT48eCoO-26" value="Container" style="ellipse;whiteSpace=wrap;html=1;aspect=fixed;fillColor=#cce5ff;strokeColor=#36393d;" vertex="1" parent="1">
          <mxGeometry x="570" y="400" width="80" height="80" as="geometry" />
        </mxCell>
        <mxCell id="NkDDDWs9M4khyT48eCoO-50" value="" style="edgeStyle=orthogonalEdgeStyle;rounded=0;orthogonalLoop=1;jettySize=auto;html=1;fontSize=61;" edge="1" parent="1" source="NkDDDWs9M4khyT48eCoO-28" target="NkDDDWs9M4khyT48eCoO-49">
          <mxGeometry relative="1" as="geometry" />
        </mxCell>
        <mxCell id="NkDDDWs9M4khyT48eCoO-52" value="" style="edgeStyle=orthogonalEdgeStyle;rounded=0;orthogonalLoop=1;jettySize=auto;html=1;fontSize=61;" edge="1" parent="1" source="NkDDDWs9M4khyT48eCoO-28" target="NkDDDWs9M4khyT48eCoO-51">
          <mxGeometry relative="1" as="geometry" />
        </mxCell>
        <mxCell id="NkDDDWs9M4khyT48eCoO-28" value="Container" style="ellipse;whiteSpace=wrap;html=1;aspect=fixed;fillColor=#cce5ff;strokeColor=#36393d;" vertex="1" parent="1">
          <mxGeometry x="730" y="400" width="80" height="80" as="geometry" />
        </mxCell>
        <mxCell id="6a8K1tgUcUgkUUCFOzlF-15" value="Text" style="ellipse;whiteSpace=wrap;html=1;aspect=fixed;fillColor=#cce5ff;strokeColor=#36393d;" parent="1" vertex="1">
          <mxGeometry x="440" y="-100" width="80" height="80" as="geometry" />
        </mxCell>
        <mxCell id="NkDDDWs9M4khyT48eCoO-38" value="" style="group" vertex="1" connectable="0" parent="1">
          <mxGeometry x="100" y="-690" width="420" height="660" as="geometry" />
        </mxCell>
        <mxCell id="NkDDDWs9M4khyT48eCoO-2" value="" style="group" vertex="1" connectable="0" parent="NkDDDWs9M4khyT48eCoO-38">
          <mxGeometry width="420" height="490" as="geometry" />
        </mxCell>
        <mxCell id="6a8K1tgUcUgkUUCFOzlF-1" value="Container" style="ellipse;whiteSpace=wrap;html=1;aspect=fixed;fillColor=#ffcccc;strokeColor=#36393d;" parent="NkDDDWs9M4khyT48eCoO-2" vertex="1">
          <mxGeometry x="170" width="80" height="80" as="geometry" />
        </mxCell>
        <mxCell id="6a8K1tgUcUgkUUCFOzlF-3" value="Row" style="ellipse;whiteSpace=wrap;html=1;aspect=fixed;fillColor=#cce5ff;strokeColor=#36393d;" parent="NkDDDWs9M4khyT48eCoO-2" vertex="1">
          <mxGeometry x="170" y="130" width="80" height="80" as="geometry" />
        </mxCell>
        <mxCell id="6a8K1tgUcUgkUUCFOzlF-4" value="Column" style="ellipse;whiteSpace=wrap;html=1;aspect=fixed;fillColor=#cce5ff;strokeColor=#36393d;" parent="NkDDDWs9M4khyT48eCoO-2" vertex="1">
          <mxGeometry y="260" width="80" height="80" as="geometry" />
        </mxCell>
        <mxCell id="6a8K1tgUcUgkUUCFOzlF-11" style="edgeStyle=orthogonalEdgeStyle;rounded=0;orthogonalLoop=1;jettySize=auto;html=1;exitX=0;exitY=0.5;exitDx=0;exitDy=0;" parent="NkDDDWs9M4khyT48eCoO-2" source="6a8K1tgUcUgkUUCFOzlF-3" target="6a8K1tgUcUgkUUCFOzlF-4" edge="1">
          <mxGeometry relative="1" as="geometry">
            <Array as="points">
              <mxPoint x="40" y="170" />
            </Array>
          </mxGeometry>
        </mxCell>
        <mxCell id="6a8K1tgUcUgkUUCFOzlF-5" value="Column" style="ellipse;whiteSpace=wrap;html=1;aspect=fixed;fillColor=#cce5ff;strokeColor=#36393d;" parent="NkDDDWs9M4khyT48eCoO-2" vertex="1">
          <mxGeometry x="170" y="260" width="80" height="80" as="geometry" />
        </mxCell>
        <mxCell id="6a8K1tgUcUgkUUCFOzlF-8" value="" style="edgeStyle=orthogonalEdgeStyle;rounded=0;orthogonalLoop=1;jettySize=auto;html=1;" parent="NkDDDWs9M4khyT48eCoO-2" source="6a8K1tgUcUgkUUCFOzlF-3" target="6a8K1tgUcUgkUUCFOzlF-5" edge="1">
          <mxGeometry relative="1" as="geometry" />
        </mxCell>
        <mxCell id="6a8K1tgUcUgkUUCFOzlF-6" value="Column" style="ellipse;whiteSpace=wrap;html=1;aspect=fixed;fillColor=#cce5ff;strokeColor=#36393d;" parent="NkDDDWs9M4khyT48eCoO-2" vertex="1">
          <mxGeometry x="340" y="260" width="80" height="80" as="geometry" />
        </mxCell>
        <mxCell id="6a8K1tgUcUgkUUCFOzlF-12" style="edgeStyle=orthogonalEdgeStyle;rounded=0;orthogonalLoop=1;jettySize=auto;html=1;exitX=1;exitY=0.5;exitDx=0;exitDy=0;" parent="NkDDDWs9M4khyT48eCoO-2" source="6a8K1tgUcUgkUUCFOzlF-3" target="6a8K1tgUcUgkUUCFOzlF-6" edge="1">
          <mxGeometry relative="1" as="geometry" />
        </mxCell>
        <mxCell id="6a8K1tgUcUgkUUCFOzlF-7" value="" style="endArrow=classic;html=1;rounded=0;exitX=0.5;exitY=1;exitDx=0;exitDy=0;" parent="NkDDDWs9M4khyT48eCoO-2" source="6a8K1tgUcUgkUUCFOzlF-1" target="6a8K1tgUcUgkUUCFOzlF-3" edge="1">
          <mxGeometry width="50" height="50" relative="1" as="geometry">
            <mxPoint x="250" y="190" as="sourcePoint" />
            <mxPoint x="300" y="140" as="targetPoint" />
          </mxGeometry>
        </mxCell>
        <mxCell id="NkDDDWs9M4khyT48eCoO-31" value="Container" style="ellipse;whiteSpace=wrap;html=1;aspect=fixed;fillColor=#cce5ff;strokeColor=#36393d;" vertex="1" parent="NkDDDWs9M4khyT48eCoO-2">
          <mxGeometry y="410" width="80" height="80" as="geometry" />
        </mxCell>
        <mxCell id="NkDDDWs9M4khyT48eCoO-32" value="" style="edgeStyle=orthogonalEdgeStyle;rounded=0;orthogonalLoop=1;jettySize=auto;html=1;fontSize=61;" edge="1" parent="NkDDDWs9M4khyT48eCoO-2" source="6a8K1tgUcUgkUUCFOzlF-4" target="NkDDDWs9M4khyT48eCoO-31">
          <mxGeometry relative="1" as="geometry" />
        </mxCell>
        <mxCell id="NkDDDWs9M4khyT48eCoO-33" value="" style="edgeStyle=orthogonalEdgeStyle;rounded=0;orthogonalLoop=1;jettySize=auto;html=1;fontSize=61;" edge="1" parent="NkDDDWs9M4khyT48eCoO-38" source="NkDDDWs9M4khyT48eCoO-31" target="6a8K1tgUcUgkUUCFOzlF-13">
          <mxGeometry relative="1" as="geometry" />
        </mxCell>
        <mxCell id="6a8K1tgUcUgkUUCFOzlF-13" value="Text" style="ellipse;whiteSpace=wrap;html=1;aspect=fixed;fillColor=#cce5ff;strokeColor=#36393d;" parent="NkDDDWs9M4khyT48eCoO-38" vertex="1">
          <mxGeometry y="580" width="80" height="80" as="geometry" />
        </mxCell>
        <mxCell id="6a8K1tgUcUgkUUCFOzlF-14" value="Text" style="ellipse;whiteSpace=wrap;html=1;aspect=fixed;fillColor=#cce5ff;strokeColor=#36393d;" parent="NkDDDWs9M4khyT48eCoO-38" vertex="1">
          <mxGeometry x="170" y="580" width="80" height="80" as="geometry" />
        </mxCell>
        <mxCell id="6a8K1tgUcUgkUUCFOzlF-17" value="" style="edgeStyle=orthogonalEdgeStyle;rounded=0;orthogonalLoop=1;jettySize=auto;html=1;" parent="NkDDDWs9M4khyT48eCoO-38" source="6a8K1tgUcUgkUUCFOzlF-5" target="6a8K1tgUcUgkUUCFOzlF-14" edge="1">
          <mxGeometry relative="1" as="geometry" />
        </mxCell>
        <mxCell id="NkDDDWs9M4khyT48eCoO-34" value="Container" style="ellipse;whiteSpace=wrap;html=1;aspect=fixed;fillColor=#cce5ff;strokeColor=#36393d;" vertex="1" parent="NkDDDWs9M4khyT48eCoO-38">
          <mxGeometry x="170" y="420" width="80" height="80" as="geometry" />
        </mxCell>
        <mxCell id="NkDDDWs9M4khyT48eCoO-35" value="" style="edgeStyle=orthogonalEdgeStyle;rounded=0;orthogonalLoop=1;jettySize=auto;html=1;fontSize=61;" edge="1" parent="NkDDDWs9M4khyT48eCoO-38" source="6a8K1tgUcUgkUUCFOzlF-5" target="NkDDDWs9M4khyT48eCoO-34">
          <mxGeometry relative="1" as="geometry" />
        </mxCell>
        <mxCell id="6a8K1tgUcUgkUUCFOzlF-18" value="" style="edgeStyle=orthogonalEdgeStyle;rounded=0;orthogonalLoop=1;jettySize=auto;html=1;" parent="NkDDDWs9M4khyT48eCoO-38" source="6a8K1tgUcUgkUUCFOzlF-6" target="6a8K1tgUcUgkUUCFOzlF-15" edge="1">
          <mxGeometry relative="1" as="geometry" />
        </mxCell>
        <mxCell id="NkDDDWs9M4khyT48eCoO-36" value="Container" style="ellipse;whiteSpace=wrap;html=1;aspect=fixed;fillColor=#cce5ff;strokeColor=#36393d;" vertex="1" parent="NkDDDWs9M4khyT48eCoO-38">
          <mxGeometry x="340" y="420" width="80" height="80" as="geometry" />
        </mxCell>
        <mxCell id="NkDDDWs9M4khyT48eCoO-37" value="" style="edgeStyle=orthogonalEdgeStyle;rounded=0;orthogonalLoop=1;jettySize=auto;html=1;fontSize=61;" edge="1" parent="NkDDDWs9M4khyT48eCoO-38" source="6a8K1tgUcUgkUUCFOzlF-6" target="NkDDDWs9M4khyT48eCoO-36">
          <mxGeometry relative="1" as="geometry" />
        </mxCell>
        <mxCell id="NkDDDWs9M4khyT48eCoO-39" value="Icon" style="ellipse;whiteSpace=wrap;html=1;aspect=fixed;fillColor=#cce5ff;strokeColor=#36393d;" vertex="1" parent="1">
          <mxGeometry x="370" y="545" width="80" height="80" as="geometry" />
        </mxCell>
        <mxCell id="NkDDDWs9M4khyT48eCoO-54" value="" style="edgeStyle=orthogonalEdgeStyle;rounded=0;orthogonalLoop=1;jettySize=auto;html=1;fontSize=61;" edge="1" parent="1" source="NkDDDWs9M4khyT48eCoO-41" target="NkDDDWs9M4khyT48eCoO-53">
          <mxGeometry relative="1" as="geometry" />
        </mxCell>
        <mxCell id="NkDDDWs9M4khyT48eCoO-41" value="Container" style="ellipse;whiteSpace=wrap;html=1;aspect=fixed;fillColor=#cce5ff;strokeColor=#36393d;" vertex="1" parent="1">
          <mxGeometry x="470" y="545" width="80" height="80" as="geometry" />
        </mxCell>
        <mxCell id="NkDDDWs9M4khyT48eCoO-43" value="Icon" style="ellipse;whiteSpace=wrap;html=1;aspect=fixed;fillColor=#cce5ff;strokeColor=#36393d;" vertex="1" parent="1">
          <mxGeometry x="570" y="560" width="80" height="80" as="geometry" />
        </mxCell>
        <mxCell id="NkDDDWs9M4khyT48eCoO-46" value="Container" style="ellipse;whiteSpace=wrap;html=1;aspect=fixed;fillColor=#cce5ff;strokeColor=#36393d;" vertex="1" parent="1">
          <mxGeometry x="660" y="560" width="80" height="80" as="geometry" />
        </mxCell>
        <mxCell id="NkDDDWs9M4khyT48eCoO-49" value="Icon" style="ellipse;whiteSpace=wrap;html=1;aspect=fixed;fillColor=#cce5ff;strokeColor=#36393d;" vertex="1" parent="1">
          <mxGeometry x="750" y="560" width="80" height="80" as="geometry" />
        </mxCell>
        <mxCell id="NkDDDWs9M4khyT48eCoO-56" value="" style="edgeStyle=orthogonalEdgeStyle;rounded=0;orthogonalLoop=1;jettySize=auto;html=1;fontSize=61;" edge="1" parent="1" source="NkDDDWs9M4khyT48eCoO-51" target="NkDDDWs9M4khyT48eCoO-55">
          <mxGeometry relative="1" as="geometry" />
        </mxCell>
        <mxCell id="NkDDDWs9M4khyT48eCoO-51" value="Contaner&lt;br&gt;" style="ellipse;whiteSpace=wrap;html=1;aspect=fixed;fillColor=#cce5ff;strokeColor=#36393d;" vertex="1" parent="1">
          <mxGeometry x="850" y="560" width="80" height="80" as="geometry" />
        </mxCell>
        <mxCell id="NkDDDWs9M4khyT48eCoO-53" value="Text" style="ellipse;whiteSpace=wrap;html=1;aspect=fixed;fillColor=#cce5ff;strokeColor=#36393d;" vertex="1" parent="1">
          <mxGeometry x="470" y="705" width="80" height="80" as="geometry" />
        </mxCell>
        <mxCell id="NkDDDWs9M4khyT48eCoO-55" value="Text" style="ellipse;whiteSpace=wrap;html=1;aspect=fixed;fillColor=#cce5ff;strokeColor=#36393d;" vertex="1" parent="1">
          <mxGeometry x="850" y="720" width="80" height="80" as="geometry" />
        </mxCell>
      </root>
    </mxGraphModel>
  </diagram>
</mxfile>
